<svg xmlns="http://www.w3.org/2000/svg" viewBox="0 0 310 870"><defs><style>.cls-1{fill:#70583d;}.cls-2{fill:#d9b299;stroke:#c69c6d;stroke-miterlimit:10;stroke-width:0.71px;}.cls-3{fill:#c69c6d;}.cls-4{fill:#7b4a66;}.cls-5{fill:#a67c60;}.cls-6{fill:#fae2f0;}.cls-7{fill:none;}.cls-8{fill:#a78b55;}.cls-9{fill:#fff;}.cls-10{fill:#211106;}.cls-11{fill:#dbdbda;}.cls-12{fill:#957551;}.cls-13{fill:#904747;}.cls-14{fill:#cc7f7f;}</style></defs><title>julie_1</title><g id="Game_over" data-name="Game over"><g id="julie_tøj_1" data-name="julie tøj 1"><path class="cls-1" d="M127.6,122.65s-16,27-12,39-12,19-12,19,16,7,29,4,3-32,3-32,9,26,6,31,40,1,40,1l-3-21Z"/><path class="cls-1" d="M140.63,37.37s-7,4.28-15,17.28-10,20-10,20,4.58-30.53,8.29-34.76S136.6,25.65,146.6,23.65s49-9,61-11,33,16,42,42,14,50,23,61,17,38,14,49c0,0-12,11-20,10,0,0,6-6,2-15,0,0-1,16-5,16s-7,1-14,0-10-24-10-24-1,22,2,24-30-1-30-1l-3-23,10.5-55.5-1-24-16-36Z"/><path class="cls-2" d="M274.94,291.15s2-83-13-91l-27.55-7.66a94.29,94.29,0,0,0-10.62-2.42c-3.89-.61-11.58-4.17-10.83-22.92,1-25,6.16-41,6.16-41l-12.16,5-24.84,29s-3.16,26-9.16,28-43,8-49,22-17,68-23,78-17,49-13,63c0,0,14,23,49-16a10.69,10.69,0,0,1,.58,2c4.68-5.91,14.68-18.77,16.58-23,2.23-4.91,9-14,11-16,1.42-1.42,5.87-6.88,8.33-9.92a20.61,20.61,0,0,0,2.57-4.12c.66-1.38,1.54-3,2.1-3,1,0,3,2,4,4s7,10,9,10,2-1,2-1l-3-7-6-10s-8-8-10-9-8-1-12,0a13.63,13.63,0,0,0-6,3s1-3,6-4a57,57,0,0,1,8.89-1,.16.16,0,0,0,0-.32c-3-.81-11.88-2.82-19.07-1.21a2.74,2.74,0,0,0-2.1,2.31c-.36,2.48-1.06,6.8-1.76,8.2-1,2-4,24-4,24s-13.5,14.5-19,18c-4.54,2.89-10.5,3.5-13.5,1.5s-8-6-12.5.5c-5.25,7.58-6,5-6,5,10-15,13-9,22-6s25-16,27-18,4-24,5-26,0-7,2-9,20-2,24,0,11,10,11,10,4,7,6,11c1.68,3.34,4.05,7.39,4.78,8.62a.45.45,0,0,1-.15.61c-5.45,3.13-10-5.1-13-10.2,1,4.66,10.1,38.46,53.62,40.45a.3.3,0,0,0,.32-.24,533.46,533.46,0,0,0,7.13-60.16c.2-16.45-.18-29.58-.18-29.58a212.94,212.94,0,0,1,.18,29.58c-.26,21.53-1.49,48.76-5.83,59.67a.64.64,0,0,0,.45.89c4.4.89,23.2,6.86,30.2,25.86,0,0-13-22-31-24s-33-7-44-19c-9.88-10.78-10.88-21.55-11-23.64-.17-.3-.34-.59-.51-.86-2.06-3.44-3.65-1.21-4.44.53a19.05,19.05,0,0,1-2.39,3.81c-4.66,6-16.76,21.64-19.17,25.66-4.56,7.29-9.13,14.59-17.48,23.41.65,3.45.85,10.3-4.68,18.59-3.61,5.41-10.65,19.39-17.48,34.84,5.06,7.84,42.3,60.09,111,14.68-2.62-8.9-4.52-16.66-4.52-19.52,0-5.21,1.51-15.69,1.91-18.37C210.23,354.6,178.57,326,173.6,322.65c-6-4-11-18-11-18s6,14,15,19c7,3.86,34.24,31.64,46.26,44,0-.35.08-.54.08-.54s31,32,39,19S278.94,358.15,274.94,291.15Zm-146-15.32c2.58.05,3,3.17,2.64,6.08-.33,2.41-1.73,5.82-3.69,6.23,4.06,7.22,11.75,13.51,11.75,13.51-3.78-.76-15-10.08-16.77-18a6.1,6.1,0,0,1-.39-3,4.32,4.32,0,0,1,.62-1.68,6.88,6.88,0,0,1,1.54-2.31c8-8,17-50,17-50a110,110,0,0,1-13.07,49.19Zm71.7,19.82c17.08,12.66,37-1,37-1C217.33,314.4,200.6,295.65,200.6,295.65Zm-34.12,71.23c.54-5.66,3.59-3.71,3.59-3.71-1.89-1.21-2.51,3.84-2.59,4.56a4.19,4.19,0,0,1,1,.07c1,.13,2,1.87,1.05,4.74S165.76,374.43,166.48,366.88Z"/><path class="cls-2" d="M168.6,480.65a2.64,2.64,0,0,1-1.79.43c3.06,16.49,14.91,137.1,12.29,151.07-2.72,14.51-1.33,115.45-1.79,147.49,9.64,3.63,18,8,23.47,5.11,8.24-24.45,19.48-61.27,20.32-75.6,1-17,4-65,6-86s15.68-80,15.84-111c0,0,3.16-53-6.84-78-1.47-3.69-3.11-8.21-4.73-13C218.35,431.3,170.33,469.41,168.6,480.65Z"/><path class="cls-2" d="M108.72,407c-5.47,13.68-9.83,26.65-10.62,34.16-2,19-1,75-1,75s12,111,12,118c0,5.5,3.7,90,0,133.25,3.67,2.79,13.78,9.08,23.66,2.72a3,3,0,0,1,1.06-.45c8.74-25.66,19.7-59.67,20.32-74.52,1-24-7-46,2-58s10-135,10-156V481a9.66,9.66,0,0,1-1.5-.36C161.7,479.68,120.51,412.4,108.72,407Z"/><path class="cls-3" d="M135.1,340.15c.88-.88,1.71-1.74,2.52-2.59,0-.16-.06-.31-.1-.46Z"/><path class="cls-4" d="M153.6,192.65l-13,39-6,21s-5.08,20.63-11.54,26.31,13.54,24.69,16.54,22.69c.35-.24,2.62-.65,4-5,2.52-7.92,4.64-22.41,4.75-26.81.25-10.19-2.75-28.19-1.75-35.19s11-43,11-43l-4,1"/><path class="cls-4" d="M227.61,190.21l4.18,1.4s5.79,67.27,10.05,75.9l-1.12,27.35-1.39,7.54s-18.23,3.75-25.23,2.75-15-6-15-6-8.86-1.26-11.68-.38-4.56-10.42-4.56-10.42,4.24,4.4,5.74,5.3,1.59,2.21,4,2-1-7-1-7-9.09-15.76-10.05-16.37,13-.61,16-4.61S226.61,251.78,227.61,190.21Z"/><path class="cls-3" d="M174.27,288.49a19.05,19.05,0,0,0,2.39-3.81c.79-1.74,2.38-4,4.44-.53.17.27.34.56.51.86,0-.23,0-.36,0-.36l.11.53c3,5.1,7.57,13.33,13,10.2a.45.45,0,0,0,.15-.61c-.73-1.23-3.1-5.28-4.78-8.62-2-4-6-11-6-11s-7-8-11-10-22-2-24,0-1,7-2,9-3,24-5,26-18,21-27,18-12-9-22,6c0,0,.75,2.58,6-5,4.5-6.5,9.5-2.5,12.5-.5s9,1.39,13.5-1.5c5.5-3.5,19-18,19-18s4.5-21.5,5.5-23.5c.7-1.4-.1-6.22.26-8.7a2.74,2.74,0,0,1,2.1-2.31c7.19-1.61,16,.4,19.07,1.21a.16.16,0,0,1,0,.32,57,57,0,0,0-8.89,1c-5,1-6,4-6,4a13.63,13.63,0,0,1,6-3c4-1,10-1,12,0s10,9,10,9l6,10,3,7s0,1-2,1-8-8-9-10-3-4-4-4c-.56,0-1.44,1.58-2.1,3a20.61,20.61,0,0,1-2.57,4.12c-2.46,3-6.91,8.5-8.33,9.92-2,2-8.77,11.09-11,16-1.9,4.18-11.9,17-16.58,23,0,.15.07.3.1.46,8.35-8.82,12.92-16.12,17.48-23.41C157.51,310.13,169.61,294.48,174.27,288.49Z"/><path class="cls-3" d="M192.6,308.65c11,12,26,17,44,19s31,24,31,24c-7-19-25.8-25-30.2-25.86a.64.64,0,0,1-.45-.89c4.34-10.91,5.57-38.14,5.83-59.67a533.46,533.46,0,0,1-7.13,60.16.3.3,0,0,1-.32.24c-43.52-2-52.57-35.79-53.62-40.45l-.1-.17C181.72,287.1,182.72,297.87,192.6,308.65Z"/><path class="cls-3" d="M242.6,235.65s.38,13.13.18,29.58A212.94,212.94,0,0,0,242.6,235.65Z"/><path class="cls-3" d="M181.61,285l.1.17-.11-.53S181.6,284.78,181.61,285Z"/><path class="cls-3" d="M225.78,369.67c2.39,2.48,3.82,4,3.82,4C229,372.86,227.61,371.48,225.78,369.67Z"/><path class="cls-3" d="M225.78,369.67l-1.92-2v.09Z"/><path class="cls-3" d="M177.6,323.65c-9-5-15-19-15-19s5,14,11,18c5,3.31,36.63,32,50.25,45.13v-.09C211.84,355.29,184.56,327.51,177.6,323.65Z"/><path class="cls-5" d="M167.47,367.82v-.09C167.33,367.75,167.47,367.82,167.47,367.82Z"/><path class="cls-5" d="M169.5,372.54c.93-2.87-.08-4.61-1.05-4.74a4.19,4.19,0,0,0-1-.07v.09s-.14-.07,0-.09c.08-.72.7-5.77,2.59-4.56,0,0-3-1.95-3.59,3.71C165.76,374.43,168.57,375.41,169.5,372.54Z"/><path class="cls-4" d="M115.46,391c-2.32,5.25-4.61,10.68-6.74,16,11.79,5.41,53,72.69,55.88,73.66a9.66,9.66,0,0,0,1.5.36c0-2.52.27-2.29.71.07a2.64,2.64,0,0,0,1.79-.43c1.73-11.24,49.75-49.35,62.77-59.5-1.72-5.08-3.43-10.46-4.91-15.48C157.76,451.08,120.52,398.83,115.46,391Zm45.22,68.19s-8.85,6.07-10.66-17.42c0,0,3.58,22.27,10.94,15.92,0,0,4,11.56,11.17-10.27C172.13,447.41,166.47,469.51,160.68,459.18Z"/><path class="cls-4" d="M166.1,481a6.53,6.53,0,0,0,.71.07C166.37,478.72,166.11,478.49,166.1,481Z"/><path class="cls-4" d="M161,457.68C153.6,464,150,441.76,150,441.76c1.81,23.49,10.66,17.42,10.66,17.42,5.79,10.33,11.45-11.77,11.45-11.77C165,469.24,161,457.68,161,457.68Z"/><path class="cls-6" d="M109.06,767.4c-1,11.8-2.6,20.53-5,23.75-11,15-52,37-60,38s-22,1-16,7,27,8,34,7,33-7,43-1,19.77.47,22-4c3-6-6-29-4-37,.76-3,5.3-15.69,10.68-31.48a3,3,0,0,0-1.06.45C122.84,776.48,112.73,770.19,109.06,767.4Z"/><path class="cls-6" d="M177,779.64c0,3.28-.07,5.84-.15,7.51-.88,18-12.77,34.09-15.71,42.11s-10.87,19.08-5.85,22,9,.94,17,3.89,30-1.21,30-4.21S188.1,818.08,193,806c1.43-3.49,4.24-11.44,7.53-21.45C195.1,787.52,186.71,783.2,177,779.64Z"/><g id="hovede"><path class="cls-1" d="M128.6,116.65s-23,5-27.39-29c0,0-.32,28.7,12.39,29,0,0-32.62-2.23-14.14-47.95,5.84-16.27,26.65-30.45,28.18-30.93a45,45,0,0,1,10.45-1.58L126.62,83.87Z"/><path class="cls-7" d="M124,125.66c-5.13,2.31-7.16,8.89-4.54,14.69s8.89,8.62,14,6.31a9,9,0,0,0,3.33-2.57,11.78,11.78,0,0,1-11.28-7,11.32,11.32,0,0,1,1.53-12.24A8.89,8.89,0,0,0,124,125.66Z"/><path class="cls-8" d="M133.49,146.66c-5.12,2.31-11.39-.51-14-6.31S118.89,128,124,125.66a10.87,10.87,0,0,1,3.41-.44c.12-.14-.11-.59,0-.73a10.1,10.1,0,0,0-4.78.86c-5.62,2.53-7.84,9.74-5,16.1s9.74,9.47,15.36,6.93a10.18,10.18,0,0,0,4.72-4.4c-.32.05-.64.09-1,.11A9,9,0,0,1,133.49,146.66Z"/><path class="cls-2" d="M150.6,30.24a60.47,60.47,0,0,0-30.9,52.31,26.17,26.17,0,0,0,1.4,9.6c5,12,6,12,6,23s-6,35,41,55c0,0,24,11,56-50,0,0,15,5,18-15s-6-27-15-19-3-46-3-46l-61-17Z"/><path class="cls-1" d="M138.6,36.65s-3,18,42,25,45,25,45,25-11-15-50-21S132.6,55.65,138.6,36.65Z"/><path class="cls-3" d="M150.6,99.65s13,21,11,26-4,4-4,6,3,6,8,7c0,0-7-3-7-7,0-1,4-4,4-7C162.6,120.65,155.6,105.65,150.6,99.65Z"/><path d="M176.11,105.56a.21.21,0,0,1-.25-.26c.61-2.65,5.69-21.67,25.24-15.15,0,0,.92.91,3.63.11a.23.23,0,0,1,.28.26,17.44,17.44,0,0,1-5.91,8.63C194.49,102.84,178.53,105.22,176.11,105.56Z"/><path d="M180.1,113.15s-2.35,1-.67,2.5,17.67.5,22.67-6.5S180.1,113.15,180.1,113.15Z"/><path class="cls-9" d="M176.1,114.15C172.67,96.29,192.75,85.48,202.94,94,211.09,108.37,188.64,119.12,176.1,114.15Z"/><path d="M147.47,110.64a.41.41,0,0,1,.24.08c.59.36,3.24,1.88,2.13-.93-1.24-3.14-6.24-14.14-18.24-8.14a11.09,11.09,0,0,1-3.29,1,.53.53,0,0,0-.44.73,14.14,14.14,0,0,0,2.73,4.31C132.49,109.54,146,110.53,147.47,110.64Z"/><path d="M133.1,114.15a1,1,0,0,0-1,1c0,1,7,11,14,6S133.1,114.15,133.1,114.15Z"/><path class="cls-10" d="M204.2,99c.08,5-3.2,9-8.55,10a9.07,9.07,0,0,1-10.5-7.91c-.53-4.94,2.2-9.46,7.46-10S204.1,93.06,204.2,99Z"/><path class="cls-11" d="M193.1,98.57c-.94,2.3-.93,4.49-2,4.48s-2-2-2-4.51.93-4.49,2-4.49C194.14,94.08,194.12,96.08,193.1,98.57Z"/><path class="cls-9" d="M150.75,113.27a8.77,8.77,0,0,1-6.54,4.69,7.84,7.84,0,0,1-9.07-6.84c-.46-4.27,1.9-8.17,6.45-8.66a11.8,11.8,0,0,1,2.06,0c-4.54-3.26-9.07-1.07-12,1.19a5.35,5.35,0,0,0-1.55,6.52c8.93,18.5,18.11,9.63,20.72,6.47a2.11,2.11,0,0,0,.36-2Q151,113.9,150.75,113.27Z"/><path class="cls-10" d="M141.59,102.46c-4.55.49-6.91,4.39-6.45,8.66a7.84,7.84,0,0,0,9.07,6.84,8.77,8.77,0,0,0,6.54-4.69c-2.2-5.75-4.65-9.08-7.1-10.84A11.8,11.8,0,0,0,141.59,102.46Z"/><path class="cls-11" d="M141,109c-.81,2-.81,3.88-1.76,3.87s-1.71-1.75-1.7-3.9.81-3.88,1.77-3.87C141.91,105.12,141.89,106.85,141,109Z"/><path class="cls-3" d="M237.6,98.63S236.67,84,229.46,94a8.24,8.24,0,0,0-1.23,2.65l-2.46,8.21c-.05.14.11.27.21.17,1.35-1.3,5.93-5,7.62,2.64,0,0-1.93-7.62-8.64-.4-.1.11-.26,0-.22-.14.6-2.41,3.11-12.14,4.86-14.11C231.6,90.74,236.6,85.11,237.6,98.63Z"/><path class="cls-12" d="M162.6,76.68s1,7,3,8c1.15.58,5.94-1.52,11.73-3.4a42.78,42.78,0,0,1,18-1.8c6.19.72,13.52,2,16.22,4.15,5,4-3-7-13-9-9.25-1.83-29.6-.24-32.63,0a.41.41,0,0,0-.37.41c0,1.19.17,4.79,1,5.62,1,1-2-1-2-6,0,0-1.65-.35-2,0S162.6,75.68,162.6,76.68Z"/><path class="cls-12" d="M146.31,82.52s.48,6.66-.58,7.79c-.6.65-5-.6-8.71-1.77a14.7,14.7,0,0,0-10.3.36c-3.62,1.3-4.5,2.79-6.24,4.75-1.49,1.67-1.86-4.64,3.56-9,5-4,20.15-3.74,20.15-3.74s.77,4.68.32,5.72,1.05-1.14.28-5.82c0,0,.94-.5,1.21-.2S146.15,81.59,146.31,82.52Z"/><path class="cls-1" d="M137.6,38.65s17.87,14.55,61,16.79c20,1,27,31.21,27,31.21l4-49.93-30-9.37s-37-10.4-48-3.12S137.6,38.65,137.6,38.65Z"/><path class="cls-7" d="M218.78,125.75c-.81,6.26,3,11.92,8.56,12.63,4.27.55,8.29-2,10.28-6.1a10.11,10.11,0,0,1-2.33,0c-5.87-.81-10-6.56-9.28-12.84a11.93,11.93,0,0,1,1-3.51C222.83,116.88,219.42,120.75,218.78,125.75Z"/><path class="cls-8" d="M227.34,138.38c-5.53-.71-9.37-6.37-8.56-12.63.64-5,4.05-8.87,8.21-9.86a11.51,11.51,0,0,1,.63-1.21c-5.4.21-10.12,4.84-10.92,11.08-.89,6.87,3.32,13.07,9.38,13.85,4.9.63,9.51-2.49,11.56-7.33h0C235.63,136.36,231.61,138.93,227.34,138.38Z"/><path class="cls-5" d="M167.37,135.73s-.88-1.24,2.2-.91c4.12.45,4.5,1.52,2.9,1.58s-2.49-.46-2.51-.81c0-.51.07-.34.07-.34S166.78,134.9,167.37,135.73Z"/><path class="cls-3" d="M175.44,137.18c-.28.25,7.69-.12,2.06-5.54C177.5,131.64,181,136.28,175.44,137.18Z"/><path class="cls-13" d="M160.6,150.84s0,3.73,5.54,4.8,14.42-5.33,14.42-5.33l-7.76-2.66-12.2,1.06Z"/><path class="cls-14" d="M157.83,152.15s6.1-7.5,24.39-1.25c.09,0,.15-.07.08-.12-1.43-.87-6-4.07-9.5-5.13C169.47,144.65,160.21,144.63,157.83,152.15Z"/></g></g></g></svg>
