<svg xmlns="http://www.w3.org/2000/svg" viewBox="0 0 310 870"><defs><style>.cls-1{fill:#70583d;}.cls-2{fill:#d9b299;stroke:#c69c6d;stroke-miterlimit:10;stroke-width:0.71px;}.cls-3{fill:#c69c6d;}.cls-4{fill:#e4b4a5;}.cls-5{fill:#dc9b87;}.cls-6{fill:#a67c60;}.cls-7{fill:none;}.cls-8{fill:#a78b55;}.cls-9{fill:#fff;}.cls-10{fill:#211106;}.cls-11{fill:#dbdbda;}.cls-12{fill:#957551;}.cls-13{fill:#904747;}.cls-14{fill:#cc7f7f;}</style></defs><title>julie_0</title><g id="Game_over" data-name="Game over"><g id="julie_uden_tøj" data-name="julie uden tøj"><path class="cls-1" d="M140.63,37.37s-7,4.27-15,17.27-10,20-10,20,4.58-30.52,8.29-34.76S136.6,25.64,146.6,23.64s49-9,61-11,33,16,42,42,14,50,23,61,17,38,14,49c0,0-12,11-20,10,0,0,6-6,2-15,0,0-1,16-5,16s-7,1-14,0-10-24-10-24-1,22,2,24-30-1-30-1l-3-23,10.5-55.5-1-24-16-36Z"/><path class="cls-1" d="M127.6,122.64s-16,27-12,39-12,19-12,19,16,7,29,4,3-32,3-32,9,26,6,31,40,1,40,1l-3-21Z"/><path class="cls-2" d="M242.94,512.14s3.16-53-6.84-78c-5.81-14.53-14.16-42-14.16-48s2-19,2-19,31,32,39,19,16-28,12-95c0,0,2-83-13-91l-27.55-7.65a92.2,92.2,0,0,0-10.62-2.43c-3.89-.61-11.58-4.17-10.83-22.92,1-25,6.16-41,6.16-41l-12.16,5-24.84,29s-3.16,26-9.16,28-43,8-49,22-17,68-23,78-17,49-13,63c0,0,14,23,49-16,0,0,4,9-4,21s-32.84,66-34.84,85-1,75-1,75,12,111,12,118,6,142-5,157-52,37-60,38-22,1-16,7,27,8,34,7,33-7,43-1,19.77.47,22-4c3-6-6-29-4-37s30-82,31-106-7-46,2-58S162,490.5,162,469.5s20.1,146.64,17.1,162.64-1,137-2,155-13,34-16,42-11,19-6,22,9,1,17,4,30-1,30-4-14-33-9-45,26.81-76.81,28-97c1-17,4-65,6-86S242.78,543.14,242.94,512.14Z"/><path class="cls-3" d="M93.1,324.14c10-15,13-9,22-6s25-16,27-18,4-24,5-26,0-7,2-9,20-2,24,0,11,10,11,10,4,7,6,11c1.68,3.35,4.05,7.39,4.78,8.62a.45.45,0,0,1-.15.61c-5.84,3.35-10.69-6.34-13.63-11.23-2.06-3.44-3.65-1.21-4.44.53a19.41,19.41,0,0,1-2.39,3.82c-4.66,6-16.76,21.63-19.17,25.65-5,8-10,16-20,26,0,0,16.5-20.5,19-26,2.23-4.9,9-14,11-16,1.42-1.42,5.87-6.88,8.33-9.92A20.61,20.61,0,0,0,176,284.1c.66-1.38,1.54-3,2.1-3,1,0,3,2,4,4s7,10,9,10,2-1,2-1l-3-7-6-10s-8-8-10-9-8-1-12,0a13.63,13.63,0,0,0-6,3s1-3,6-4a57,57,0,0,1,8.89-1,.16.16,0,0,0,0-.32c-3-.8-11.88-2.82-19.07-1.21a2.74,2.74,0,0,0-2.1,2.31c-.36,2.48-1.06,6.8-1.76,8.2-1,2-4,24-4,24s-13.5,14.5-19,18c-4.54,2.89-10.5,3.5-13.5,1.5s-8-6-12.5.5C93.85,326.72,93.1,324.14,93.1,324.14Z"/><path class="cls-3" d="M200.6,295.64s16.73,18.75,37-1C237.6,294.64,217.68,308.3,200.6,295.64Z"/><path class="cls-3" d="M141.6,226.64s-9,42-17,50,10,24,15,25c0,0-8.92-7.29-12.63-15.19a9.36,9.36,0,0,1,.47-8.72A108.91,108.91,0,0,0,141.6,226.64Z"/><path class="cls-4" d="M131.54,281.9c.41-2.91-.06-6-2.64-6.08s-6.05,1.9-6.46,4.81,1.87,6.34,4.16,7.36C129.21,289.15,131.14,284.8,131.54,281.9Z"/><path class="cls-5" d="M128.63,281.55a3.28,3.28,0,0,0-2.79-3.63c-1.38,0-1.89,1.06-2.15,2.94a3.52,3.52,0,0,0,2.14,3.7C127.23,285.27,128.36,283.43,128.63,281.55Z"/><path class="cls-4" d="M222.6,284.64c0,3.31-3.46,6-6.5,6a5.77,5.77,0,0,1-5.5-6c0-4,2.46-6,5.5-6S222.6,281.32,222.6,284.64Z"/><path class="cls-5" d="M219.6,283.64c.27,2-1.33,4.34-3,4.57a3.39,3.39,0,0,1-3.52-3.17,3.35,3.35,0,0,1,2.54-4C217.28,280.85,219.33,281.67,219.6,283.64Z"/><path class="cls-3" d="M150,441.75S153.6,464,161,457.67c0,0,4,11.56,11.17-10.27,0,0-5.66,22.11-11.45,11.77C160.68,459.17,151.83,465.24,150,441.75Z"/><path class="cls-3" d="M242.6,235.64s2,70-5.65,89.26a.64.64,0,0,0,.45.88c4.4.89,23.2,6.86,30.2,25.86,0,0-13-22-31-24s-33-7-44-19-11-24-11-24,7,38.85,53.73,41a.31.31,0,0,0,.32-.25C236.42,321.53,245.6,268.64,242.6,235.64Z"/><path class="cls-3" d="M162.6,304.64s5,14,11,18,51,45,56,51c0,0-43-45-52-50S162.6,304.64,162.6,304.64Z"/><path class="cls-6" d="M170.07,363.16s-3-1.94-3.59,3.71c-.72,7.55,2.09,8.53,3,5.66s-.08-4.61-1.05-4.74c-1.43-.19-1,0-1,0S168,361.86,170.07,363.16Z"/><g id="hovede"><path class="cls-1" d="M128.6,116.64s-23,5-27.39-29c0,0-.32,28.7,12.39,29,0,0-32.62-2.23-14.14-47.95,5.84-16.27,26.65-30.45,28.18-30.93a45,45,0,0,1,10.45-1.58L126.62,83.86Z"/><path class="cls-7" d="M124,125.66c-5.13,2.31-7.16,8.88-4.54,14.68s8.89,8.63,14,6.32a9.13,9.13,0,0,0,3.33-2.58,11.78,11.78,0,0,1-11.28-7,11.32,11.32,0,0,1,1.53-12.24A8.9,8.9,0,0,0,124,125.66Z"/><path class="cls-8" d="M133.49,146.66c-5.12,2.31-11.39-.52-14-6.32S118.89,128,124,125.66a10.6,10.6,0,0,1,3.41-.45c.12-.14-.11-.59,0-.73a10.1,10.1,0,0,0-4.78.86c-5.62,2.53-7.84,9.74-5,16.1s9.74,9.47,15.36,6.93a10.18,10.18,0,0,0,4.72-4.4c-.32.05-.64.09-1,.11A9.13,9.13,0,0,1,133.49,146.66Z"/><path class="cls-2" d="M150.6,30.23a60.47,60.47,0,0,0-30.9,52.31,26.17,26.17,0,0,0,1.4,9.6c5,12,6,12,6,23s-6,35,41,55c0,0,24,11,56-50,0,0,15,5,18-15s-6-27-15-19-3-46-3-46l-61-17Z"/><path class="cls-1" d="M138.6,36.64s-3,18,42,25,45,25,45,25-11-15-50-21S132.6,55.64,138.6,36.64Z"/><path class="cls-3" d="M150.6,99.64s13,21,11,26-4,4-4,6,3,6,8,7c0,0-7-3-7-7,0-1,4-4,4-7C162.6,120.64,155.6,105.64,150.6,99.64Z"/><path d="M176.11,105.55a.21.21,0,0,1-.25-.26c.61-2.65,5.69-21.67,25.24-15.15,0,0,.92.91,3.63.12a.22.22,0,0,1,.28.25,17.44,17.44,0,0,1-5.91,8.63C194.49,102.83,178.53,105.21,176.11,105.55Z"/><path d="M180.1,113.14s-2.35,1-.67,2.5,17.67.5,22.67-6.5S180.1,113.14,180.1,113.14Z"/><path class="cls-9" d="M176.1,114.14C172.67,96.28,192.75,85.47,202.94,94,211.09,108.36,188.64,119.11,176.1,114.14Z"/><path d="M147.47,110.63a.41.41,0,0,1,.24.08c.59.36,3.24,1.88,2.13-.93-1.24-3.14-6.24-14.14-18.24-8.14a10.76,10.76,0,0,1-3.29,1,.53.53,0,0,0-.44.73,14,14,0,0,0,2.73,4.31C132.49,109.53,146,110.52,147.47,110.63Z"/><path d="M133.1,114.14a1,1,0,0,0-1,1c0,1,7,11,14,6S133.1,114.14,133.1,114.14Z"/><path class="cls-10" d="M204.2,99c.08,5-3.2,9-8.55,10a9.07,9.07,0,0,1-10.5-7.91c-.53-4.94,2.2-9.46,7.46-10S204.1,93.05,204.2,99Z"/><path class="cls-11" d="M193.1,98.56c-.94,2.3-.93,4.5-2,4.49s-2-2-2-4.52.93-4.49,2-4.48C194.14,94.07,194.12,96.07,193.1,98.56Z"/><path class="cls-9" d="M150.75,113.26a8.75,8.75,0,0,1-6.54,4.69,7.84,7.84,0,0,1-9.07-6.83c-.46-4.27,1.9-8.18,6.45-8.67a11.8,11.8,0,0,1,2.06,0c-4.54-3.26-9.07-1.07-12,1.19a5.36,5.36,0,0,0-1.55,6.53c8.93,18.49,18.11,9.62,20.72,6.46a2.11,2.11,0,0,0,.36-2Q151,113.89,150.75,113.26Z"/><path class="cls-10" d="M141.59,102.45c-4.55.49-6.91,4.4-6.45,8.67a7.84,7.84,0,0,0,9.07,6.83,8.75,8.75,0,0,0,6.54-4.69c-2.2-5.75-4.65-9.08-7.1-10.84A11.8,11.8,0,0,0,141.59,102.45Z"/><path class="cls-11" d="M141,109c-.81,2-.81,3.88-1.76,3.88s-1.71-1.76-1.7-3.91.81-3.88,1.77-3.87C141.91,105.11,141.89,106.84,141,109Z"/><path class="cls-3" d="M237.6,98.62S236.67,84,229.46,94a8.09,8.09,0,0,0-1.23,2.64l-2.46,8.21c-.05.15.11.27.21.17,1.35-1.3,5.93-5,7.62,2.64,0,0-1.93-7.62-8.64-.4-.1.11-.26,0-.22-.14.6-2.41,3.11-12.14,4.86-14.11C231.6,90.73,236.6,85.1,237.6,98.62Z"/><path class="cls-12" d="M163.6,71.76s-.39,7.06,1.38,8.44c1,.79,6.12-.33,12.17-1a42.73,42.73,0,0,1,18,1.78c5.94,1.93,12.87,4.62,15.09,7.26,4.12,4.9-1.57-7.45-11-11.37-8.7-3.62-29-6.06-32-6.41a.41.41,0,0,0-.45.33c-.21,1.17-.77,4.73-.12,5.71.78,1.17-1.77-1.37-.79-6.28,0,0-1.55-.67-2-.39S163.79,70.78,163.6,71.76Z"/><path class="cls-12" d="M142.81,77s3.42,5.73,3,7.22c-.25.85-4.71,1.69-8.58,2.32a14.69,14.69,0,0,0-9.05,4.95c-2.65,2.78-2.76,4.51-3.44,7.05-.58,2.16-3.75-3.32-.84-9.61,2.68-5.82,16.32-12.39,16.32-12.39s2.79,3.84,2.86,5,.43-1.49-2.36-5.33c0,0,.61-.86,1-.72S142.25,76.2,142.81,77Z"/><path class="cls-1" d="M137.6,38.64s17.87,14.55,61,16.79c20,1,27,31.21,27,31.21l4-49.93-30-9.36s-37-10.41-48-3.12S137.6,38.64,137.6,38.64Z"/><path class="cls-7" d="M218.78,125.74c-.81,6.27,3,11.92,8.56,12.63,4.27.55,8.29-2,10.28-6.1a10.11,10.11,0,0,1-2.33,0c-5.87-.81-10-6.55-9.28-12.83a11.91,11.91,0,0,1,1-3.52C222.83,116.87,219.42,120.74,218.78,125.74Z"/><path class="cls-8" d="M227.34,138.37c-5.53-.71-9.37-6.36-8.56-12.63.64-5,4.05-8.87,8.21-9.86a12.58,12.58,0,0,1,.63-1.21c-5.4.21-10.12,4.84-10.92,11.08-.89,6.87,3.32,13.07,9.38,13.85,4.9.63,9.51-2.49,11.56-7.33h0C235.63,136.35,231.61,138.92,227.34,138.37Z"/><path class="cls-6" d="M167.37,135.72s-.88-1.24,2.2-.91c4.12.45,4.5,1.52,2.9,1.58s-2.49-.45-2.51-.8c0-.52.07-.34.07-.34S166.78,134.9,167.37,135.72Z"/><path class="cls-3" d="M175.44,137.18c-.28.24,7.69-.13,2.06-5.55C177.5,131.63,181,136.27,175.44,137.18Z"/><path class="cls-13" d="M160.6,150.84s0,3.73,5.54,4.79,14.42-5.33,14.42-5.33l-7.76-2.66-12.2,1.06Z"/><path class="cls-14" d="M157.83,152.14s6.1-7.5,24.39-1.25c.09,0,.15-.07.08-.12-1.43-.86-6-4.07-9.5-5.13C169.47,144.64,160.21,144.62,157.83,152.14Z"/></g></g></g></svg>
