<svg xmlns="http://www.w3.org/2000/svg" viewBox="0 0 300 880"><defs><style>.cls-1{fill:#70583d;}.cls-2{fill:#d9b299;stroke:#c69c6d;stroke-miterlimit:10;stroke-width:0.71px;}.cls-3{fill:#c69c6d;}.cls-4{fill:#e4b4a5;}.cls-5{fill:#dc9b87;}.cls-6{fill:#a67c60;}.cls-7{fill:none;}.cls-8{fill:#a78b55;}.cls-9{fill:#fff;}.cls-10{fill:#211106;}.cls-11{fill:#dbdbda;}.cls-12{fill:#957551;}.cls-13{fill:#904747;}.cls-14{fill:#cc7f7f;}</style></defs><title>julie</title><g id="spilside"><g id="julie_uden_tøj" data-name="julie uden tøj"><path class="cls-1" d="M132,41.43s-7,4.27-15,17.27-10,20-10,20,4.58-30.52,8.29-34.76S128,29.7,138,27.7s49-9,61-11,33,16,42,42,14,50,23,61,17,38,14,49c0,0-12,11-20,10,0,0,6-6,2-15,0,0-1,16-5,16s-7,1-14,0-10-24-10-24-1,22,2,24-30-1-30-1l-3-23,10.5-55.5-1-24-16-36Z"/><path class="cls-1" d="M119,126.7s-16,27-12,39-12,19-12,19,16,7,29,4,3-32,3-32,9,26,6,31,40,1,40,1l-3-21Z"/><path class="cls-2" d="M234.34,516.2s3.16-53-6.84-78c-5.81-14.53-14.16-42-14.16-48s2-19,2-19,31,32,39,19,16-28,12-95c0,0,2-83-13-91l-27.55-7.65a94.33,94.33,0,0,0-10.62-2.43c-3.89-.61-11.58-4.17-10.83-22.92,1-25,6.16-41,6.16-41l-12.16,5-24.84,29s-3.16,26-9.16,28-43,8-49,22-17,68-23,78-17,49-13,63c0,0,14,23,49-16,0,0,4,9-4,21s-32.84,66-34.84,85-1,75-1,75,12,111,12,118,6,142-5,157-52,37-60,38-22,1-16,7,27,8,34,7,33-7,43-1,19.76.47,22-4c3-6-6-29-4-37s30-82,31-106-7-46,2-58S155.59,507,155.59,486,173.5,620.2,170.5,636.2s-1,137-2,155-13,34-16,42-11,19-6,22,9,1,17,4,30-1,30-4-14-33-9-45,26.81-76.81,28-97c1-17,4-65,6-86S234.18,547.2,234.34,516.2Z"/><path class="cls-3" d="M84.5,328.2c10-15,13-9,22-6s25-16,27-18,4-24,5-26,0-7,2-9,20-2,24,0,11,10,11,10,4,7,6,11c1.67,3.35,4.05,7.4,4.78,8.63a.44.44,0,0,1-.15.6c-5.84,3.36-10.69-6.33-13.63-11.23-2.06-3.44-3.65-1.2-4.44.53a19.89,19.89,0,0,1-2.39,3.82c-4.66,6-16.76,21.63-19.17,25.65-5,8-10,16-20,26,0,0,16.5-20.5,19-26,2.23-4.9,9-14,11-16,1.42-1.42,5.87-6.87,8.32-9.92a20.42,20.42,0,0,0,2.58-4.11c.66-1.39,1.54-3,2.1-3,1,0,3,2,4,4s7,10,9,10,2-1,2-1l-3-7-6-10s-8-8-10-9-8-1-12,0a13.63,13.63,0,0,0-6,3s1-3,6-4a58.3,58.3,0,0,1,8.89-1,.16.16,0,0,0,0-.32c-3-.8-11.88-2.82-19.07-1.21a2.76,2.76,0,0,0-2.11,2.31c-.35,2.48-1.05,6.8-1.75,8.2-1,2-4,24-4,24s-13.5,14.5-19,18c-4.54,2.89-10.5,3.5-13.5,1.5s-8-6-12.5.5C85.25,330.78,84.5,328.2,84.5,328.2Z"/><path class="cls-3" d="M192,299.7s16.73,18.75,37-1C229,298.7,209.07,312.37,192,299.7Z"/><path class="cls-3" d="M133,230.7s-9,42-17,50,10,24,15,25c0,0-8.92-7.29-12.63-15.19a9.34,9.34,0,0,1,.47-8.71A109,109,0,0,0,133,230.7Z"/><path class="cls-4" d="M122.94,286c.41-2.91-.06-6-2.65-6.08s-6.05,1.9-6.45,4.81,1.87,6.34,4.15,7.36C120.6,293.21,122.54,288.87,122.94,286Z"/><path class="cls-5" d="M120,285.61a3.27,3.27,0,0,0-2.79-3.63c-1.37,0-1.88,1.06-2.15,2.94a3.53,3.53,0,0,0,2.15,3.7C118.63,289.33,119.76,287.49,120,285.61Z"/><path class="cls-4" d="M214,288.7c0,3.31-3.46,6-6.5,6a5.77,5.77,0,0,1-5.5-6c0-4,2.46-6,5.5-6S214,285.39,214,288.7Z"/><path class="cls-5" d="M211,287.7c.27,2-1.34,4.35-3,4.57a3.39,3.39,0,0,1-3.52-3.17,3.35,3.35,0,0,1,2.54-4C208.68,284.91,210.73,285.73,211,287.7Z"/><path class="cls-3" d="M143.92,461.29s4.65,22.08,11.69,15.38c0,0,4.58,11.34,10.66-10.81,0,0-4.57,22.36-10.86,12.31C155.41,478.17,146.86,484.67,143.92,461.29Z"/><path class="cls-3" d="M234,239.7s2,70-5.65,89.26a.64.64,0,0,0,.44.89c4.4.88,23.21,6.85,30.21,25.85,0,0-13-22-31-24s-33-7-44-19-11-24-11-24,7,38.85,53.73,41a.3.3,0,0,0,.32-.24C227.82,325.6,237,272.7,234,239.7Z"/><path class="cls-3" d="M154,308.7s5,14,11,18,51,45,56,51c0,0-43-45-52-50S154,308.7,154,308.7Z"/><path class="cls-6" d="M160.47,373.22s-3.05-1.94-3.59,3.71c-.72,7.55,2.08,8.53,3,5.66s-.08-4.6-1-4.73c-1.42-.2-1,0-1,0S158.44,371.93,160.47,373.22Z"/><g id="hovede"><path class="cls-1" d="M120,120.7s-23,5-27.39-29c0,0-.32,28.7,12.39,29,0,0-32.62-2.22-14.14-47.95C96.7,56.48,117.51,42.31,119,41.83a44.38,44.38,0,0,1,10.45-1.58L118,87.92Z"/><path class="cls-7" d="M115.41,129.72c-5.12,2.31-7.15,8.88-4.53,14.68s8.89,8.63,14,6.32a9.21,9.21,0,0,0,3.33-2.58,11.77,11.77,0,0,1-11.28-6.95A11.34,11.34,0,0,1,118.46,129,9,9,0,0,0,115.41,129.72Z"/><path class="cls-8" d="M124.89,150.72c-5.12,2.31-11.4-.52-14-6.32s-.59-12.37,4.53-14.68a10.69,10.69,0,0,1,3.42-.45c.12-.14-.11-.59,0-.72a9.93,9.93,0,0,0-4.78.85c-5.62,2.54-7.84,9.75-5,16.11s9.75,9.46,15.37,6.93a10.16,10.16,0,0,0,4.72-4.41c-.32.05-.64.09-1,.11A9.21,9.21,0,0,1,124.89,150.72Z"/><path class="cls-2" d="M142,34.3a60.42,60.42,0,0,0-30.9,52.3,26.17,26.17,0,0,0,1.4,9.6c5,12,6,12,6,23s-6,35,41,55c0,0,24,11,56-50,0,0,15,5,18-15s-6-27-15-19-3-46-3-46l-61-17Z"/><path class="cls-1" d="M130,40.7s-3,18,42,25,45,25,45,25-11-15-50-21S124,59.7,130,40.7Z"/><path class="cls-3" d="M142,103.7s13,21,11,26-4,4-4,6,3,6,8,7c0,0-7-3-7-7,0-1,4-4,4-7C154,124.7,147,109.7,142,103.7Z"/><path d="M167.5,109.62a.21.21,0,0,1-.24-.26c.61-2.66,5.69-21.68,25.24-15.16,0,0,.92.92,3.63.12a.22.22,0,0,1,.28.26,17.47,17.47,0,0,1-5.91,8.62C185.88,106.89,169.92,109.27,167.5,109.62Z"/><path d="M171.5,117.2s-2.35,1-.68,2.51,17.68.49,22.68-6.51S171.5,117.2,171.5,117.2Z"/><path class="cls-9" d="M167.5,118.2c-3.44-17.86,16.65-28.67,26.84-20.17C202.49,112.42,180,123.17,167.5,118.2Z"/><path d="M138.87,114.69a.53.53,0,0,1,.24.08c.59.36,3.24,1.88,2.13-.92C140,110.7,135,99.7,123,105.7a10.76,10.76,0,0,1-3.29,1,.53.53,0,0,0-.44.73A13.72,13.72,0,0,0,122,111.7C123.89,113.59,137.37,114.59,138.87,114.69Z"/><path d="M124.5,118.2a1,1,0,0,0-1,1c0,1,7,11,14,6S124.5,118.2,124.5,118.2Z"/><path class="cls-10" d="M195.6,103c.08,5-3.2,9-8.55,10a9.08,9.08,0,0,1-10.5-7.92c-.54-4.94,2.2-9.45,7.46-10S195.5,97.11,195.6,103Z"/><path class="cls-11" d="M184.5,102.63c-.94,2.29-.94,4.49-2,4.48s-2-2-2-4.52.93-4.49,2-4.48C185.54,98.13,185.52,100.13,184.5,102.63Z"/><path class="cls-9" d="M142.15,117.32a8.8,8.8,0,0,1-6.54,4.7,7.85,7.85,0,0,1-9.07-6.84c-.46-4.27,1.9-8.17,6.45-8.67a12.85,12.85,0,0,1,2.06,0c-4.54-3.26-9.07-1.07-12,1.2a5.35,5.35,0,0,0-1.54,6.52c8.92,18.5,18.11,9.63,20.72,6.46a2.12,2.12,0,0,0,.36-2C142.47,118.17,142.31,117.74,142.15,117.32Z"/><path class="cls-10" d="M133,106.51c-4.55.5-6.91,4.4-6.45,8.67a7.85,7.85,0,0,0,9.07,6.84,8.8,8.8,0,0,0,6.54-4.7c-2.21-5.75-4.65-9.08-7.1-10.84A12.85,12.85,0,0,0,133,106.51Z"/><path class="cls-11" d="M132.41,113.05c-.82,2-.81,3.89-1.76,3.88s-1.72-1.76-1.7-3.91.81-3.88,1.76-3.87C133.31,109.17,133.29,110.9,132.41,113.05Z"/><path class="cls-3" d="M229,102.68s-.93-14.62-8.14-4.64a8.19,8.19,0,0,0-1.23,2.64l-2.46,8.21c0,.15.1.27.21.17,1.35-1.3,5.92-5,7.62,2.64,0,0-1.93-7.62-8.64-.4-.1.11-.26,0-.23-.14.61-2.4,3.12-12.14,4.87-14.11C223,94.8,228,89.16,229,102.68Z"/><path class="cls-12" d="M155,75.83s-.39,7.06,1.37,8.43c1,.79,6.13-.32,12.18-1a42.59,42.59,0,0,1,18,1.79c5.93,1.92,12.87,4.61,15.09,7.25,4.12,4.9-1.57-7.45-11-11.37-8.7-3.62-29-6.06-32-6.41a.41.41,0,0,0-.45.34c-.21,1.17-.78,4.72-.12,5.7.78,1.18-1.77-1.37-.79-6.28,0,0-1.55-.66-2-.39S155.19,74.84,155,75.83Z"/><path class="cls-12" d="M134.21,81s3.41,5.73,3,7.22c-.24.85-4.71,1.69-8.57,2.33a14.63,14.63,0,0,0-9.05,4.94c-2.65,2.78-2.77,4.51-3.44,7-.58,2.16-3.75-3.32-.85-9.61,2.68-5.81,16.33-12.39,16.33-12.39s2.79,3.84,2.86,5,.43-1.49-2.37-5.33c0,0,.62-.86,1-.72S133.65,80.26,134.21,81Z"/><path class="cls-1" d="M129,42.7s17.87,14.55,61,16.79c20,1,27,31.21,27,31.21l4-49.93-30-9.36S154,21,143,28.29,129,42.7,129,42.7Z"/><path class="cls-7" d="M210.18,129.81c-.81,6.26,3,11.91,8.55,12.62,4.27.55,8.3-2,10.28-6.1a9.5,9.5,0,0,1-2.32,0c-5.87-.81-10-6.55-9.28-12.83a11.91,11.91,0,0,1,1-3.52C214.23,120.94,210.82,124.81,210.18,129.81Z"/><path class="cls-8" d="M218.73,142.43c-5.53-.71-9.36-6.36-8.55-12.62.64-5,4-8.87,8.21-9.87a10.67,10.67,0,0,1,.63-1.21c-5.4.22-10.12,4.84-10.93,11.08-.88,6.87,3.32,13.07,9.39,13.85,4.9.63,9.5-2.49,11.56-7.33h0C227,140.41,223,143,218.73,142.43Z"/><path class="cls-6" d="M158.77,139.79s-.88-1.25,2.2-.91c4.12.44,4.5,1.51,2.9,1.57s-2.49-.45-2.51-.8c0-.52.06-.34.06-.34S158.18,139,158.77,139.79Z"/><path class="cls-3" d="M166.84,141.24c-.29.24,7.69-.13,2.06-5.55C168.9,135.69,172.43,140.34,166.84,141.24Z"/><path class="cls-13" d="M152,154.9s0,3.73,5.54,4.79S172,154.36,172,154.36l-7.76-2.66L152,152.77Z"/><path class="cls-14" d="M149.23,156.2s6.1-7.5,24.39-1.25c.08,0,.15-.07.08-.11-1.43-.87-6-4.07-9.51-5.14C160.87,148.7,151.61,148.68,149.23,156.2Z"/></g></g></g></svg>
