<svg xmlns="http://www.w3.org/2000/svg" viewBox="0 0 310 870"><defs><style>.cls-1{fill:#1a1a1a;}.cls-2{fill:#70583d;}.cls-3{fill:#d9b299;stroke:#c69c6d;stroke-miterlimit:10;stroke-width:0.71px;}.cls-4{fill:#c69c6d;}.cls-5{fill:#2d3c60;}.cls-6{fill:#a67c60;}.cls-7{fill:none;}.cls-8{fill:#a78b55;}.cls-9{fill:#fff;}.cls-10{fill:#211106;}.cls-11{fill:#dbdbda;}.cls-12{fill:#957551;}.cls-13{fill:#904747;}.cls-14{fill:#cc7f7f;}.cls-15{fill:#7b4a66;}.cls-16{fill:#fae2f0;}.cls-17{fill:#425d8e;}.cls-18{fill:#333;}</style></defs><title>julie_3</title><g id="Game_over" data-name="Game over"><g id="julie_tøj_3" data-name="julie tøj 3"><ellipse class="cls-1" cx="181.33" cy="818.91" rx="25" ry="4.5"/><g id="julie_tøj_3-2" data-name="julie tøj 3"><g id="julie_uden_tøj" data-name="julie uden tøj"><path class="cls-2" d="M143.22,37.07s-7,4.27-15,17.27-10,20-10,20,4.58-30.52,8.29-34.76,12.71-14.24,22.71-16.24,49-9,61-11,33,16,42,42,14,50,23,61,17,38,14,49c0,0-12,11-20,10,0,0,6-6,2-15,0,0-1,16-5,16s-7,1-14,0-10-24-10-24-1,22,2,24-30-1-30-1l-3-23,10.5-55.5-1-24-16-36Z"/><path class="cls-2" d="M131.11,122.34s-16.62,27-12.47,39-12.46,19-12.46,19,16.62,7,30.12,4,3.11-32,3.11-32,9.35,26,6.23,31,41.54,1,41.54,1l-3.11-21Z"/><path class="cls-3" d="M275.68,350.84c6,28-10,72-11,84-.8,9.65,4.86,20.59,7.11,24.51a6.71,6.71,0,0,1,.88,3.4c-.06,5.14-.36,19.22-2,24.09-1.74,5.24-11.11,13.52-16.12,20.86a1.28,1.28,0,0,1-2.34-.6c-.33-3.83-.43-9.84,1.46-14.26,0,0,3.66-8.21,5-10,3-4-1-14-1-14a5.23,5.23,0,0,0-2,4c-.36,4.58.46,11.45-2,9-4.52-4.53-6-12-4-20s4-19,4-19-11-60-3-92c1.48-5.9-5.07-63.36-5.07-63.36s-5.93,41.36-8.93,47.36-12.16,51-12.16,51c0,6,8.35,33.47,14.16,48,10,25,6.84,78,6.84,78-.16,31-13.84,90-15.84,111s-5,69-6,86c-1.18,20.19-23,85-28,97s9,42,9,45-22,7-30,4-12-1-17-4,3-14,6-22,15-24,16-42-1-139,2-155-11-173-14-153c-3.11,20.77-23.85,144.07-32.85,156.07s0,43-1,67-6.15,90.93-8.15,98.93,7,31,4,37c-2.23,4.47-12,10-22,4s-36,0-43,1-28-1-34-7,8-6,16-7,49-23,60-38,5-150,5-157-12-118-12-118-1-55,1-75c1.9-19,26.84-73,34.84-85,5.72-8.57,5.31-15.61,4.61-18.94a49.85,49.85,0,0,1-.92-7c-.75-10.59-2.53-32.95-2.53-28.06,0,6-7,38.94-7,47,0,12-6,32-18,56-4.21,8.42-11,36-11,36l-1,46-3-1c-4-4-8-23-8-30s9.77-19.46,9-34c-2-38,5-74,5-74,7.16-26,6.39-37,7-58,1-34,9.15-58.93,15.15-72.93s44.69-27.07,50.69-29.07,9.16-28,9.16-28l24.84-29,12.16-5s-5.16,16-6.16,41c-.75,18.75,6.94,22.31,10.83,22.92,3.59.56,5,6.18,8.48,7.15l29,10c11.43,6.1,22.85,88.93,11.85,143.93"/><path class="cls-4" d="M152.6,441.45s3.58,22.28,10.94,15.93c0,0,4,11.55,11.17-10.28,0,0-5.65,22.11-11.45,11.77C163.26,458.87,154.41,464.94,152.6,441.45Z"/><path class="cls-5" d="M239.53,324.6c9.51-18.42,5.65-89.26,5.65-89.26,3,33-6.18,85.89-7,89.74l-1,9.26S238.88,325.85,239.53,324.6Z"/><path class="cls-6" d="M172.65,362.86s-3.05-1.94-3.59,3.71c-.72,7.55,2.09,8.53,3,5.66s-.08-4.61-1.05-4.74c-1.43-.19-1,0-1,0S170.62,361.56,172.65,362.86Z"/><g id="hovede"><path class="cls-2" d="M129.9,112.62s-23.29,3.43-25.37-30.75c0,0-2.26,28.62,10.4,29.73,0,0-32.4-4.42-10.87-48.79C111,47,132.7,34.23,134.26,33.86A44.7,44.7,0,0,1,144.79,33L130.14,79.78Z"/><path class="cls-7" d="M124.71,121.3c-5.26,2-7.73,8.38-5.51,14.35s8.28,9.2,13.55,7.25a9.17,9.17,0,0,0,3.49-2.35,11.77,11.77,0,0,1-10.78-7.7,11.35,11.35,0,0,1,2.35-12.11A9.31,9.31,0,0,0,124.71,121.3Z"/><path class="cls-8" d="M132.75,142.9c-5.27,1.95-11.33-1.29-13.55-7.25s.25-12.39,5.51-14.35a11,11,0,0,1,3.44-.21c.13-.13-.07-.6.07-.72a10,10,0,0,0-4.83.53c-5.77,2.15-8.48,9.19-6,15.73s9.09,10.1,14.87,8a10.17,10.17,0,0,0,5-4.08c-.32,0-.64.05-1,.05A9.17,9.17,0,0,1,132.75,142.9Z"/><path class="cls-3" d="M157.68,27.89A60.47,60.47,0,0,0,123.32,78a26.12,26.12,0,0,0,.75,9.68C128.25,100,129.25,100,128.5,111s-8.34,34.51,37.2,57.64c0,0,23.2,12.59,59.25-46.11,0,0,14.62,6,19-13.75s-4.17-27.34-13.69-20,.11-46.09.11-46.09L170.63,21.66Z"/><path class="cls-2" d="M145.28,33.47s-4.21,17.76,40.21,27.78,43.21,28,43.21,28-10-15.71-48.47-24.33S138,52,145.28,33.47Z"/><path class="cls-4" d="M153,97.14s11.55,21.83,9.22,26.68-4.26,3.72-4.4,5.72,2.59,6.19,7.51,7.52c0,0-6.78-3.46-6.51-7.45.07-1,4.26-3.72,4.46-6.72C163.55,118.9,157.58,103.46,153,97.14Z"/><path d="M178,104.76a.2.2,0,0,1-.22-.27c.78-2.61,7.13-21.24,26.2-13.42,0,0,.85,1,3.61.36a.22.22,0,0,1,.27.28,17.43,17.43,0,0,1-6.48,8.2C196.56,103.29,180.48,104.59,178,104.76Z"/><path d="M181.52,112.6s-2.42.85-.85,2.46,17.61,1.68,23.07-5S181.52,112.6,181.52,112.6Z"/><path class="cls-9" d="M177.46,113.33C175.24,95.28,196,85.85,205.6,95,212.76,109.92,189.63,119.13,177.46,113.33Z"/><path d="M149.13,107.89a.72.72,0,0,1,.24.1c.56.4,3.1,2.1,2.19-.78-1-3.22-5.28-14.53-17.66-9.36a11,11,0,0,1-3.35.74.54.54,0,0,0-.49.7,14,14,0,0,0,2.44,4.48C134.26,105.78,147.65,107.69,149.13,107.89Z"/><path d="M134.56,110.43a1,1,0,0,0-1.07.93c-.06,1,6.24,11.44,13.57,6.93S134.56,110.43,134.56,110.43Z"/><path class="cls-10" d="M206.52,100.07c-.26,5-3.8,8.76-9.21,9.38a9.06,9.06,0,0,1-9.93-8.6c-.21-5,2.83-9.29,8.11-9.5S206.82,94.18,206.52,100.07Z"/><path class="cls-11" d="M195.47,98.94c-1.1,2.23-1.23,4.41-2.34,4.33s-1.84-2.16-1.65-4.64,1.24-4.42,2.34-4.33C196.81,94.52,196.66,96.52,195.47,98.94Z"/><path class="cls-9" d="M152.22,110.74a8.77,8.77,0,0,1-6.83,4.24,7.84,7.84,0,0,1-8.59-7.43c-.18-4.29,2.45-8,7-8.21a11.1,11.1,0,0,1,2.07.11c-4.32-3.56-9-1.69-12,.38a5.35,5.35,0,0,0-2,6.4c7.66,19.06,17.42,10.83,20.24,7.85a2.11,2.11,0,0,0,.5-2C152.49,111.61,152.36,111.17,152.22,110.74Z"/><path class="cls-10" d="M143.81,99.34c-4.56.18-7.19,3.92-7,8.21a7.84,7.84,0,0,0,8.59,7.43,8.77,8.77,0,0,0,6.83-4.24c-1.81-5.88-4-9.38-6.34-11.29A11.1,11.1,0,0,0,143.81,99.34Z"/><path class="cls-11" d="M142.8,105.82c-1,1.93-1.07,3.82-2,3.75s-1.59-1.87-1.43-4,1.07-3.82,2-3.74C144,102,143.82,103.74,142.8,105.82Z"/><path class="cls-4" d="M239.87,102s.06-14.66-7.81-5.19a8.16,8.16,0,0,0-1.4,2.56l-3,8c0,.15.09.28.2.18,1.43-1.2,6.25-4.59,7.43,3.15,0,0-1.42-7.73-8.6-1-.1.1-.26,0-.21-.16.76-2.36,3.93-11.9,5.81-13.75C234.41,93.72,239.78,88.44,239.87,102Z"/><path class="cls-12" d="M166.33,78s.79,6,2.76,7.09c1.14.61,10.31-2.64,16.15-4.34a37.74,37.74,0,0,1,17-1c6.17.91,10.24,2.48,12.86,4.72,4.88,4.14-2.79-7.09-12.73-9.38-9.18-2.12-29.57.84-32.6,1a.41.41,0,0,0-.39.4c0,1.19,0,3.79.83,4.65,1,1-2-.06-1.82-5.06,0,0-1.63-.4-2-.06S166.36,77,166.33,78Z"/><path class="cls-12" d="M149.86,80.4s.28,4.78-.75,5.93c-.59.67-5-.48-8.74-1.57a14.69,14.69,0,0,0-10.3.6c-3.59,1.38-4.43,2.89-6.13,4.89-1.45,1.71-2-4.6,3.35-9,4.92-4.11,20.41-2.34,20.41-2.34s.53,2.8.11,3.85,1.38.7.5-4c0,0,.92-.52,1.2-.23S149.68,79.46,149.86,80.4Z"/><path class="cls-2" d="M144.14,35.4S161,51.12,203.87,56.27c19.89,2.39,24.83,33,24.83,33l7.36-49.55-29.3-11.36S170.55,15.44,159.08,22,144.14,35.4,144.14,35.4Z"/><path class="cls-7" d="M219.26,127.79C218,134,221.47,139.88,226.94,141c4.22.84,8.41-1.45,10.67-5.39a10.21,10.21,0,0,1-2.32-.2c-5.8-1.2-9.56-7.21-8.39-13.43a11.8,11.8,0,0,1,1.21-3.44C223.89,119.21,220.23,122.84,219.26,127.79Z"/><path class="cls-8" d="M226.94,141c-5.47-1.08-8.91-7-7.68-13.17,1-5,4.63-8.58,8.85-9.29a11.44,11.44,0,0,1,.72-1.17c-5.41-.15-10.43,4.15-11.65,10.32-1.35,6.8,2.43,13.27,8.43,14.45,4.85,1,9.65-1.84,12-6.53h0C235.35,139.51,231.16,141.8,226.94,141Z"/><path class="cls-6" d="M167.29,135.28s-.8-1.3,2.26-.76c4.08.72,4.38,1.81,2.78,1.76s-2.45-.62-2.44-1c0-.51.08-.33.08-.33S166.76,134.41,167.29,135.28Z"/><path class="cls-4" d="M175.25,137.27c-.3.22,7.67.39,2.43-5.39C177.68,131.88,180.88,136.75,175.25,137.27Z"/><path class="cls-13" d="M159.41,150.18s.08,4.17,5.65,5.26,14.29-6.26,14.29-6.26l-7.82-2.83-12.17,1.44Z"/><path class="cls-14" d="M157.33,149.41a2.91,2.91,0,0,0,2.12-.35c2.74-1.27,8.3-2.53,17.47.68,1.31.46,4.41-.33,4.41-1.33,0-.09.08,0,0,0-2,1-5.83-1.57-9.29-2.88C168.78,144.31,160.33,141.41,157.33,149.41Z"/></g></g><path class="cls-15" d="M171.48,478.21c4.4-12.46,49.86-48.53,62.47-58.37-1.72-5.08-3.43-10.46-4.9-15.48-68.71,45.41-106-6.84-111-14.68-2.33,5.26-4.62,10.68-6.75,16,11.09,5.09,48.19,64.91,55,72.81a2.46,2.46,0,0,0,1.88.85H170A1.65,1.65,0,0,0,171.48,478.21Z"/><path class="cls-16" d="M111.24,765.34c-1.08,12.19-2.74,21.23-5.23,24.55C94.39,805.4,49.63,826.3,41.18,827.34s-21.8,2.87-15.46,9.07,28.52,8.28,35.92,7.24,34.86-7.24,45.42-1,20.88.49,23.25-4.14c3.17-6.2-6.34-30-4.23-38.25.81-3.15,5.6-16.22,11.28-32.55a3.24,3.24,0,0,0-1.11.47C125.8,774.73,115.12,768.23,111.24,765.34Z"/><path class="cls-16" d="M179.26,779.33c0,3.3-.08,5.89-.17,7.57-.94,18.15-13.6,34.37-16.73,42.46s-11.58,19.23-6.24,22.22,9.59.94,18.13,3.91,31.92-1.23,31.9-4.26-15.13-33.16-9.9-45.29c1.52-3.52,4.52-11.54,8-21.63C198.48,787.27,189.55,782.91,179.26,779.33Z"/><path class="cls-17" d="M175.18,188.34s11,32,51,1c0,0,35.82,14.4,45.15,19.07,4,2,9.52,40.68,7,45-7,12-32.15,17.93-32.35,30-.44,26-15.8,95.95-21.8,103s-100,14.52-97-18c0,0,16-17.61,9-69l-9.27-18.18,8.19-14.51s-9.42-11.81-23.42-14.81c-3,0,9.43-38.81,12.65-40.43C134.33,206.41,162.33,189.41,175.18,188.34Z"/><path class="cls-5" d="M144.18,226.34s-9,42-17,50,6,25,11,26c0,0-4.92-8.29-8.62-16.19a9.36,9.36,0,0,1,.46-8.72A108.91,108.91,0,0,0,144.18,226.34Z"/><path class="cls-5" d="M193.18,298.34s16.73,18.75,37-1C230.18,297.34,210.26,311,193.18,298.34Z"/><path class="cls-5" d="M239.18,233.34s5.36,34.15,5.68,43.07-1.39,21.77-1.39,21.77S240.18,245.34,239.18,233.34Z"/><path class="cls-5" d="M177.89,185.25s-1.14,1.87-6.42,3,8.71,14.11,17.71,16.11,28-3,34-7c4.16-2.77,5.55-5.5,5.78-7.25s-4.39.1-6.78-2.75C222.18,187.34,186.18,211.34,177.89,185.25Z"/></g><path class="cls-1" d="M127.33,368.41s3.36,42.71,94.68,12.36c0,0,1.17,23.31,16.75,67s-8.93,158.52-8.93,158.52,4.5,37.15-.5,48.15,7,78-14,108c0,0,0,22,1,27s-7,29-10,33-27-16-50-4c0,0,2-10,6-14s-4-1-7-8,17.5-16.5,14.5-32.5-10.5-58.5-9.5-66.5,9-62,9-62,2.7-110.16-.9-126.83-3.6-30.67-2.6-34.67-13.5,133.5-22.5,146.5,3,28,3,28,3,9.62,0,19,2.5,104.5-6.5,109.5,2,7,3,11-12,10-12,15,6,30,2,31-82,0-76-17c0,0,16-8,20-11s-15-12-12-23,19-100,16-119-5.5-51.5-1.5-67.5c2.68-10.71,5-133.12,23-180C120.54,369.11,127.33,368.41,127.33,368.41Z"/><path class="cls-18" d="M127.33,368.41s7.36,41.71,98.68,11.36c0,0,1.17,23.31,16.75,67s-8.93,158.52-8.93,158.52,4.5,37.15-.5,48.15,7,78-14,108c0,0,0,22,1,27s-10,28-13,32-27-15-47,0c0,0,2-13,6-17s-4-1-7-8,17.5-16.5,14.5-32.5-10.5-58.5-9.5-66.5,9-62,9-62,2.7-110.16-.9-126.83-8.1-15.17-7.1-19.17-9,118-18,131,3,28,3,28,3,9.62,0,19,2.5,104.5-6.5,109.5,2,7,3,11-12,10-12,15,6,30,2,31-82,0-76-17c0,0,16-8,20-11s-15-12-12-23,19-100,16-119-5.5-51.5-1.5-67.5c2.68-10.71,5-133.12,23-180C124.54,368.11,127.33,368.41,127.33,368.41Z"/><path class="cls-1" d="M228.33,442.41c-38,1-38.28-36-38.28-36S196.62,437.42,228.33,442.41Z"/><path class="cls-1" d="M108.33,425.41c33,3,27-30,27-30S140.05,420.42,108.33,425.41Z"/><path class="cls-1" d="M158.1,404.41c0,2.76.65,5-1,5s-3-2.24-3-5,1.34-5,3-5S158.1,401.65,158.1,404.41Z"/><path class="cls-1" d="M159.33,455.86s6.86,2.78,4.82-31.65c-.45-7.45.59-16.79-1.09-28l2-.2s.11,13.76,1.09,28C167.31,441.12,168.92,458.57,159.33,455.86Z"/><path class="cls-1" d="M147.05,467.06s14.26,17.06,21.6,15.21S159.84,492.37,147.05,467.06Z"/><path class="cls-1" d="M168.53,681.16s-1.2-23.75,10.8-37.75c0,0,8-7,12-8a45.37,45.37,0,0,0,8-3s-19,10-24,25A231.24,231.24,0,0,0,168.53,681.16Z"/><path class="cls-1" d="M164.33,800.41s12.36,8.53,24.72,10S169.33,801.41,164.33,800.41Z"/><path class="cls-1" d="M122.33,790.41s13.41-10.88,20.16-14C151.33,772.41,133.84,772,122.33,790.41Z"/></g></g></svg>
