<svg xmlns="http://www.w3.org/2000/svg" viewBox="0 0 310 870"><defs><style>.cls-1{fill:#1a1a1a;}.cls-2{fill:#70583d;}.cls-3{fill:#d9b299;stroke:#c69c6d;stroke-miterlimit:10;stroke-width:0.71px;}.cls-4{fill:#c69c6d;}.cls-5{fill:#2d3c60;}.cls-6{fill:#a67c60;}.cls-7{fill:none;}.cls-8{fill:#a78b55;}.cls-9{fill:#fff;}.cls-10{fill:#211106;}.cls-11{fill:#dbdbda;}.cls-12{fill:#957551;}.cls-13{fill:#904747;}.cls-14{fill:#cc7f7f;}.cls-15{fill:#7b4a66;}.cls-16{fill:#fae2f0;}.cls-17{fill:#425d8e;}.cls-18{fill:#dddadc;}.cls-19{fill:#a3b0ba;}.cls-20{fill:#333;}</style></defs><title>julie_4</title><g id="Game_over" data-name="Game over"><g id="julie_tøj_4" data-name="julie tøj 4"><ellipse class="cls-1" cx="184.37" cy="817.53" rx="25" ry="4.5"/><g id="julie_tøj_3" data-name="julie tøj 3"><g id="julie_uden_tøj" data-name="julie uden tøj"><path class="cls-2" d="M146.25,35.68s-7,4.27-15,17.27-10,20-10,20,4.57-30.52,8.29-34.76S142.22,24,152.22,22s49-9,61-11,33,16,42,42,14,50,23,61,17,38,14,49c0,0-12,11-20,10,0,0,6-6,2-15,0,0-1,16-5,16s-7,1-14,0-10-24-10-24-1,22,2,24-30-1-30-1l-3-23,10.5-55.5-1-24-16-36Z"/><path class="cls-2" d="M134.14,121s-16.62,27-12.46,39-12.46,19-12.46,19,16.61,7,30.11,4,3.12-32,3.12-32,9.34,26,6.23,31,41.54,1,41.54,1l-3.12-21Z"/><path class="cls-3" d="M278.72,349.45c6,28-10,72-11,84-.81,9.65,4.85,20.59,7.1,24.51a6.57,6.57,0,0,1,.88,3.4c-.05,5.14-.36,19.23-2,24.09-1.75,5.24-11.11,13.53-16.13,20.87a1.28,1.28,0,0,1-2.34-.61c-.33-3.83-.43-9.84,1.47-14.26,0,0,3.66-8.21,5-10,3-4-1-14-1-14a5.19,5.19,0,0,0-2,4c-.37,4.58.45,11.45-2,9-4.53-4.52-6-12-4-20s4-19,4-19-11-60-3-92c1.47-5.9-5.08-63.35-5.08-63.35s-5.92,41.35-8.92,47.35-12.16,51-12.16,51c0,6,8.34,33.47,14.16,48,10,25,6.84,78,6.84,78-.16,31-13.84,90-15.84,111s-5,69-6,86c-1.19,20.19-23,85-28,97s9,42,9,45-22,7-30,4-12-1-17-4,3-14,6-22,15-24,16-42-1-139,2-155-11-173-14-153c-3.12,20.77-23.85,144.08-32.85,156.08s0,43-1,67-6.15,90.92-8.15,98.92,7,31,4,37c-2.24,4.48-12,10-22,4s-36,0-43,1-28-1-34-7,8-6,16-7,49-23,60-38,5-150,5-157-12-118-12-118-1-55,1-75c1.9-19,26.84-73,34.84-85,5.71-8.57,5.3-15.61,4.6-18.93a53.22,53.22,0,0,1-.92-7c-.74-10.6-2.52-33-2.52-28.07,0,6-7,38.94-7,47,0,12-6,32-18,56-4.21,8.42-11,36-11,36l-1,46-3-1c-4-4-8-23-8-30s9.76-19.46,9-34c-2-38,5-74,5-74,7.16-26,6.38-37,7-58,1-34,9.15-58.92,15.15-72.92s44.69-27.08,50.69-29.08,9.16-28,9.16-28l24.84-29,12.16-5s-5.16,16-6.16,41c-.75,18.75,6.93,22.32,10.83,22.92,3.59.57,5,6.19,8.48,7.16l29,10c11.43,6.09,22.85,88.92,11.85,143.92"/><path class="cls-4" d="M155.64,440.06s3.58,22.28,10.93,15.93c0,0,4,11.55,11.17-10.27,0,0-5.65,22.1-11.45,11.76C166.29,457.48,157.45,463.55,155.64,440.06Z"/><path class="cls-5" d="M242.57,323.21c9.5-18.41,5.65-89.26,5.65-89.26,3,33-6.18,85.9-6.95,89.75L240.22,333S241.92,324.47,242.57,323.21Z"/><path class="cls-6" d="M175.69,361.47s-3.05-1.94-3.59,3.72c-.72,7.54,2.08,8.52,3,5.66s-.08-4.61-1.05-4.74c-1.42-.19-1,0-1,0S173.65,360.18,175.69,361.47Z"/><g id="hovede"><path class="cls-2" d="M132.93,111.23s-23.28,3.44-25.37-30.74c0,0-2.25,28.61,10.41,29.73,0,0-32.4-4.42-10.87-48.8,6.92-15.84,28.63-28.57,30.2-28.95a44.68,44.68,0,0,1,10.53-.87L133.17,78.39Z"/><path class="cls-7" d="M127.75,119.92c-5.27,2-7.74,8.38-5.52,14.34s8.29,9.21,13.55,7.25a9.1,9.1,0,0,0,3.5-2.35,11.76,11.76,0,0,1-10.78-7.69,11.32,11.32,0,0,1,2.34-12.11A8.74,8.74,0,0,0,127.75,119.92Z"/><path class="cls-8" d="M135.78,141.51c-5.26,2-11.33-1.29-13.55-7.25s.25-12.38,5.52-14.34a10.7,10.7,0,0,1,3.43-.22c.14-.13-.06-.59.08-.72a10.13,10.13,0,0,0-4.83.53c-5.78,2.15-8.49,9.19-6.05,15.73s9.08,10.1,14.86,7.95a10.12,10.12,0,0,0,5-4.07,8,8,0,0,1-1,0A9.1,9.1,0,0,1,135.78,141.51Z"/><path class="cls-3" d="M160.71,26.51a60.47,60.47,0,0,0-34.36,50.1,26.48,26.48,0,0,0,.75,9.67c4.18,12.31,5.18,12.38,4.44,23.35s-8.35,34.52,37.19,57.64c0,0,23.2,12.6,59.25-46.1,0,0,14.63,6,19-13.75s-4.16-27.35-13.68-20,.11-46.1.11-46.1L173.66,20.27Z"/><path class="cls-2" d="M148.31,32.09s-4.21,17.75,40.22,27.78,43.21,28,43.21,28-10-15.71-48.47-24.33S141,50.64,148.31,32.09Z"/><path class="cls-4" d="M156,95.75s11.55,21.83,9.22,26.69-4.26,3.72-4.4,5.71,2.59,6.19,7.51,7.53c0,0-6.78-3.47-6.51-7.46.07-1,4.26-3.72,4.47-6.71C166.59,117.52,160.61,102.08,156,95.75Z"/><path d="M181.08,103.38a.22.22,0,0,1-.23-.28c.79-2.6,7.14-21.24,26.21-13.42,0,0,.85,1,3.61.37a.21.21,0,0,1,.26.27,17.41,17.41,0,0,1-6.48,8.21C199.6,101.9,183.51,103.2,181.08,103.38Z"/><path d="M184.55,111.21s-2.41.86-.84,2.46,17.6,1.68,23.06-5S184.55,111.21,184.55,111.21Z"/><path class="cls-9" d="M180.49,111.94c-2.22-18,18.55-27.48,28.14-18.32C215.79,108.54,192.67,117.75,180.49,111.94Z"/><path d="M152.16,106.51a.5.5,0,0,1,.24.09c.56.4,3.11,2.1,2.19-.77-1-3.23-5.27-14.54-17.65-9.36a10.79,10.79,0,0,1-3.35.73.53.53,0,0,0-.49.7,14,14,0,0,0,2.44,4.49C137.29,104.4,150.68,106.3,152.16,106.51Z"/><path d="M137.59,109a1,1,0,0,0-1.06.93c-.07,1,6.24,11.45,13.56,6.93S137.59,109,137.59,109Z"/><path class="cls-10" d="M209.55,98.69c-.25,5-3.8,8.76-9.2,9.38a9.07,9.07,0,0,1-9.94-8.6c-.2-5,2.83-9.29,8.12-9.51S209.85,92.79,209.55,98.69Z"/><path class="cls-11" d="M198.5,97.55c-1.09,2.23-1.23,4.42-2.33,4.33s-1.84-2.16-1.65-4.63,1.23-4.42,2.33-4.34C199.84,93.14,199.69,95.13,198.5,97.55Z"/><path class="cls-9" d="M155.26,109.35a8.79,8.79,0,0,1-6.84,4.25,7.85,7.85,0,0,1-8.59-7.44c-.17-4.29,2.45-8,7-8.21a11.91,11.91,0,0,1,2.06.11c-4.31-3.56-9-1.68-12,.38a5.36,5.36,0,0,0-2,6.41c7.65,19.06,17.41,10.83,20.23,7.84a2.09,2.09,0,0,0,.5-2C155.52,110.22,155.39,109.79,155.26,109.35Z"/><path class="cls-10" d="M146.85,98c-4.57.19-7.19,3.92-7,8.21a7.85,7.85,0,0,0,8.59,7.44,8.79,8.79,0,0,0,6.84-4.25c-1.81-5.88-4-9.37-6.35-11.29A11.91,11.91,0,0,0,146.85,98Z"/><path class="cls-11" d="M145.83,104.44c-1,1.93-1.07,3.82-2,3.74s-1.59-1.86-1.43-4,1.07-3.82,2-3.75C147,100.63,146.86,102.35,145.83,104.44Z"/><path class="cls-4" d="M242.9,100.61S243,86,235.09,95.43a8.11,8.11,0,0,0-1.4,2.55l-3,8c0,.14.09.27.2.18,1.44-1.21,6.25-4.6,7.43,3.15,0,0-1.41-7.73-8.59-1a.14.14,0,0,1-.22-.16c.76-2.36,3.93-11.9,5.81-13.75C237.45,92.34,242.82,87.05,242.9,100.61Z"/><path class="cls-12" d="M170.53,76.6s.77,6,2.7,7.08c1.11.62,10.07-2.64,15.78-4.34a35.87,35.87,0,0,1,16.6-1c6,.9,10,2.47,12.56,4.7,4.77,4.14-2.72-7.08-12.43-9.37-9-2.11-28.89.87-31.85,1a.39.39,0,0,0-.37.4c0,1.19,0,3.79.8,4.65,1,1-1.92-.06-1.77-5.06,0,0-1.6-.4-2-.06S170.56,75.6,170.53,76.6Z"/><path class="cls-12" d="M152.29,79.12s.29,4.78-.71,5.94c-.57.66-4.88-.51-8.57-1.61a14.07,14.07,0,0,0-10.07.55c-3.51,1.37-4.33,2.88-6,4.87-1.41,1.7-1.94-4.6,3.24-9,4.8-4.09,20-2.26,20-2.26s.52,2.8.11,3.84,1.35.72.47-4c0,0,.91-.51,1.18-.22S152.11,78.19,152.29,79.12Z"/><path class="cls-2" d="M147.18,34S164,49.74,206.9,54.89c19.89,2.39,24.84,33,24.84,33L239.1,38.3,209.8,26.93s-36.22-12.87-47.68-6.35S147.18,34,147.18,34Z"/><path class="cls-7" d="M222.29,126.4c-1.23,6.19,2.22,12.09,7.68,13.18,4.23.83,8.41-1.46,10.67-5.39a10.21,10.21,0,0,1-2.32-.2c-5.8-1.21-9.55-7.22-8.39-13.43a12.18,12.18,0,0,1,1.22-3.45C226.93,117.83,223.27,121.46,222.29,126.4Z"/><path class="cls-8" d="M230,139.58c-5.46-1.09-8.91-7-7.68-13.18,1-4.94,4.64-8.57,8.86-9.29a9.72,9.72,0,0,1,.71-1.16c-5.4-.15-10.43,4.15-11.65,10.32-1.34,6.79,2.43,13.26,8.43,14.45,4.85,1,9.65-1.84,12-6.53h0C238.38,138.12,234.2,140.41,230,139.58Z"/><path class="cls-6" d="M170.33,133.89s-.8-1.3,2.26-.76c4.07.72,4.38,1.82,2.78,1.77s-2.45-.62-2.45-1c0-.52.09-.34.09-.34S169.79,133,170.33,133.89Z"/><path class="cls-4" d="M178.28,135.88c-.3.22,7.68.4,2.43-5.39C180.71,130.49,183.92,135.36,178.28,135.88Z"/><path class="cls-4" d="M190.69,147.4c0,.25,3.05-2.48-1.57-4.22C189.12,143.18,192.56,145.07,190.69,147.4Z"/><path class="cls-4" d="M159.5,144.81c.23-.08-3.47-1.85-3.28,3.09C156.22,147.9,156.63,144,159.5,144.81Z"/><path class="cls-13" d="M161.37,148a11.39,11.39,0,0,1,2,3,8.89,8.89,0,0,0,6.78,4.95c6.09.79,16.22-7.95,16.22-7.95l-9.9-2.57L161.37,148Z"/><path class="cls-14" d="M159.37,148s3.48,1.52,4,1c1-1,9-3.09,19.17-.22,1.45.42,4.74-.68,4.67-1.79,0-.1.08-.05,0,0-2.09,1.26-6.41-1.31-10.25-2.5-3.36-1-9.49-2.6-13.59,1.51C161.37,148,159.64,147.69,159.37,148Z"/></g></g><path class="cls-15" d="M174.51,476.82c4.4-12.46,49.86-48.53,62.47-58.36-1.72-5.08-3.42-10.46-4.9-15.48-68.71,45.41-106-6.84-111-14.68-2.32,5.25-4.62,10.68-6.74,16,11.08,5.09,48.18,64.92,55,72.81a2.44,2.44,0,0,0,1.87.85H173A1.63,1.63,0,0,0,174.51,476.82Z"/><path class="cls-16" d="M114.28,764c-1.08,12.2-2.75,21.23-5.24,24.55C97.42,804,52.67,824.92,44.22,826S22.41,828.83,28.75,835s28.53,8.27,35.92,7.24,34.86-7.24,45.43-1,20.88.49,23.24-4.13c3.17-6.21-6.34-30-4.23-38.26.81-3.15,5.6-16.21,11.29-32.54a3.37,3.37,0,0,0-1.12.46C128.83,773.34,118.16,766.84,114.28,764Z"/><path class="cls-16" d="M182.29,778c0,3.3-.08,5.88-.17,7.56-.93,18.16-13.59,34.38-16.73,42.46s-11.58,19.24-6.23,22.23,9.58.94,18.12,3.9,31.92-1.23,31.9-4.25-15.13-33.17-9.89-45.3c1.52-3.52,4.51-11.53,8-21.63C201.51,785.88,192.58,781.53,182.29,778Z"/><path class="cls-17" d="M178.22,187s11,32,51,1c0,0,35.81,14.41,45.15,19.08,4,2,9.52,40.68,7,45-7,12-32.15,17.92-32.36,30C248.57,308,233.22,378,227.22,385s-100,14.52-97-18c0,0,16-17.61,9-69l-9.28-18.18,8.19-14.51s-9.41-11.81-23.41-14.81c-3,0,9.42-38.81,12.65-40.42C137.37,205,165.37,188,178.22,187Z"/><path class="cls-5" d="M147.22,225s-9,42-17,50,6,25,11,26c0,0-4.93-8.29-8.63-16.18a9.36,9.36,0,0,1,.47-8.72A109.13,109.13,0,0,0,147.22,225Z"/><path class="cls-5" d="M196.22,297s16.72,18.75,37-1C233.22,296,213.29,309.62,196.22,297Z"/><path class="cls-5" d="M242.22,232s5.36,34.15,5.68,43.08-1.4,21.77-1.4,21.77S243.22,244,242.22,232Z"/><path class="cls-5" d="M180.92,183.87s-1.13,1.86-6.42,3S183.22,201,192.22,203s28-3,34-7c4.16-2.77,5.54-5.5,5.77-7.25s-4.38.11-6.77-2.75C225.22,186,189.22,210,180.92,183.87Z"/></g><g id="sko2"><g id="sko2-2" data-name="sko2"><path class="cls-18" d="M52.12,817.79a25.84,25.84,0,0,0,4.41-.38c2.34.57,4.11,1,4.11,1,8.84-4.28,41.39-7.53,41.39-7.53l-7.37-2.22-1-.12,1.92-1.34,43.16,23.94.55,7.24a6.78,6.78,0,0,1-3.71,6.57l-3.41,1.71s-14.61-1.12-52.92,4.88-58.17-8.41-58.17-8.41C19.32,814.29,47.25,817.41,52.12,817.79Z"/><path d="M94.1,812.54c-9.75,1-25.12,3-31.53,5.67a3.94,3.94,0,0,1-1.93.23c-1.07-.21-2.59-.66-4.11-1,9.59-1.33,30-5.73,33.45-6.49a2.6,2.6,0,0,0,.93-.4l2.79-1.95,1,.12h0C97,809.56,96.56,812.28,94.1,812.54Z"/><path d="M118.38,818.42a4.7,4.7,0,0,0-2.28-.33c-6.32.66-36.14,3.81-42.32,5.31S65,845.52,64.94,846.51s51.83-6.94,60.35-6.29a70.21,70.21,0,0,0,9.49.11,4.66,4.66,0,0,0,4.37-4.31l.44-5.39a4.82,4.82,0,0,0-3-4.83Z"/></g><path class="cls-19" d="M75.64,813.63c.92-.78,4.76,1,8.6,4s6.19,6.07,5.28,6.84"/><path class="cls-19" d="M84.29,812.3c.92-.77,4.76,1,8.59,4s6.2,6.07,5.29,6.84"/><path class="cls-19" d="M66.93,815.93c.91-.77,4.76,1,8.59,4s6.2,6.06,5.28,6.84"/></g><path class="cls-18" d="M207.35,818.33l-.67-.2.29.94C207.19,818.6,207.35,818.33,207.35,818.33Z"/><path class="cls-18" d="M161.86,815.39a9.89,9.89,0,0,1,.43,1l.67-2Z"/><path class="cls-18" d="M210.08,835.64c-.31.17-.81-.08-1.57-.89-5.85-6.27-14.79-2.19-17.14-5.72-1.81-2.71-.35-10.3,2.9-14.7l-23.9-7.3-2.88,2.82a4.06,4.06,0,0,1,.88,1.18c2.49,4.8,5.4,17.6,3,17-4-1-15.25,7.07-15.25,7.07l.1-.31c-2.52,3.85-4,9.54-1.85,20.24,0,0,33,6.8,58-.58C212.37,854.45,214.64,843.75,210.08,835.64Z"/><path d="M156.22,834.79a23.22,23.22,0,0,1,3.15-3.76"/><path d="M171.37,828c2.4.6-.51-12.2-3-17a4.06,4.06,0,0,0-.88-1.18L163,814.31l-1.59.72c1,2.4,3.72,10.28-2,16a23.22,23.22,0,0,0-3.15,3.76l-.1.31S167.37,827,171.37,828Z"/><path d="M191.37,829c2.35,3.53,11.29-.55,17.14,5.72.76.81,1.26,1.06,1.57.89a16.56,16.56,0,0,0-2.71-3.61c-4.12-4.12-1.46-10.75-.4-13l-.29-.94-12.41-3.8C191,818.73,189.56,826.32,191.37,829Z"/><path class="cls-19" d="M170.09,823.68c.08-1,5.59-1.85,12.3-1.84s12.09.86,12,1.89-6.08.22-12.79.2S170,824.71,170.09,823.68Z"/><path class="cls-19" d="M169.09,818.68c.08-1,5.59-1.85,12.3-1.84s12.09.86,12,1.89-6.08.22-12.79.2S169,819.71,169.09,818.68Z"/><path class="cls-1" d="M130.37,367s3.36,42.71,94.68,12.35c0,0,1.16,23.31,16.74,67s-8.93,158.51-8.93,158.51,4.51,37.16-.49,48.16,7,78-14,108c0,0,0,22,1,27s-7,29-10,33-27-16-50-4c0,0,2-10,6-14s-4-1-7-8,17.5-16.5,14.5-32.5-10.5-58.5-9.5-66.5,9-62,9-62,2.69-110.17-.9-126.83-3.6-30.67-2.6-34.67S155.37,606,146.37,619s3,28,3,28,3,9.62,0,19,2.5,104.5-6.5,109.5,2,7,3,11-12,10-12,15,6,30,2,31-82,0-76-17c0,0,16-8,20-11s-15-12-12-23,19-100,16-119-5.5-51.5-1.5-67.5c2.68-10.72,5-133.12,23-180C123.57,367.72,130.37,367,130.37,367Z"/><path class="cls-20" d="M130.37,367s7.36,41.71,98.68,11.35c0,0,1.16,23.31,16.74,67s-8.93,158.51-8.93,158.51,4.51,37.16-.49,48.16,11,81-10,111c0,0-1,24,0,29s-7,25-10,29-33-17-53-2c0,0,2-13,6-17s-4-1-7-8,17.5-16.5,14.5-32.5-10.5-58.5-9.5-66.5,9-62,9-62,2.69-110.17-.9-126.83-8.1-15.17-7.1-19.17-9,118-18,131,3,28,3,28,3,9.62,0,19,2.5,104.5-6.5,109.5,2,7,3,11-12,10-12,15,6,30,2,31-82,0-76-17c0,0,16-8,20-11s-15-12-12-23,19-100,16-119-5.5-51.5-1.5-67.5c2.68-10.72,5-133.12,23-180C127.57,366.72,130.37,367,130.37,367Z"/><path class="cls-1" d="M231.37,441c-38,1-38.29-36-38.29-36S199.65,436,231.37,441Z"/><path class="cls-1" d="M111.37,424c33,3,27-30,27-30S143.08,419,111.37,424Z"/><path class="cls-1" d="M161.13,403c0,2.76.66,5-1,5s-3-2.24-3-5,1.34-5,3-5S161.13,400.27,161.13,403Z"/><path class="cls-1" d="M162.37,454.47s6.86,2.78,4.81-31.65c-.44-7.44.59-16.78-1.09-28l2-.21s.11,13.76,1.09,28C170.35,439.73,172,457.18,162.37,454.47Z"/><path class="cls-1" d="M150.08,465.68s14.26,17.06,21.6,15.2S162.88,491,150.08,465.68Z"/><path class="cls-1" d="M171.56,679.78S170.37,656,182.37,642c0,0,8-7,12-8a45.37,45.37,0,0,0,8-3s-19,10-24,25A233.41,233.41,0,0,0,171.56,679.78Z"/><path class="cls-1" d="M167.37,799s12.36,8.52,24.71,9.94S172.37,800,167.37,799Z"/><path class="cls-1" d="M125.37,789s13.4-10.88,20.15-14C154.37,771,136.87,770.66,125.37,789Z"/></g></g></svg>
