<svg xmlns="http://www.w3.org/2000/svg" viewBox="0 0 310 870"><defs><style>.cls-1{fill:#70583d;}.cls-2{fill:#1a1a1a;}.cls-3{fill:#d9b299;stroke:#c69c6d;stroke-miterlimit:10;stroke-width:0.71px;}.cls-4{fill:#c69c6d;}.cls-5{fill:#2d3c60;}.cls-6{fill:#a67c60;}.cls-7{fill:none;}.cls-8{fill:#a78b55;}.cls-9{fill:#fff;}.cls-10{fill:#211106;}.cls-11{fill:#dbdbda;}.cls-12{fill:#957551;}.cls-13{fill:#904747;}.cls-14{fill:#cc7f7f;}.cls-15{fill:#7b4a66;}.cls-16{fill:#fae2f0;}.cls-17{fill:#425d8e;}.cls-18{fill:#dddadc;}.cls-19{fill:#a3b0ba;}.cls-20{fill:#333;}.cls-21{fill:#a38059;}.cls-22{fill:#8d6f4d;}</style></defs><title>julie_5</title><g id="Game_over" data-name="Game over"><g id="julie_tøj_5" data-name="julie tøj 5"><path class="cls-1" d="M45,701.66S136.61,775,285.61,717l-51-343-116,61Z"/><g id="julie_tøj_5-2" data-name="julie tøj 5"><ellipse class="cls-2" cx="175.61" cy="817.53" rx="25" ry="4.5"/><g id="julie_tøj_3" data-name="julie tøj 3"><g id="julie_uden_tøj" data-name="julie uden tøj"><path class="cls-1" d="M137.49,35.68s-7,4.27-15,17.27-10,20-10,20,4.58-30.52,8.29-34.76S133.46,24,143.46,22s49-9,61-11,33,16,42,42,14,50,23,61,17,38,14,49c0,0-12,11-20,10,0,0,6-6,2-15,0,0-1,16-5,16s-7,1-14,0-10-24-10-24-1,22,2,24-30-1-30-1l-3-23L216,94.45l-1-24-16-36Z"/><path class="cls-1" d="M125.39,121s-16.62,27-12.47,39-12.46,19-12.46,19,16.62,7,30.12,4,3.11-32,3.11-32,9.35,26,6.23,31,41.54,1,41.54,1l-3.11-21Z"/><path class="cls-3" d="M270,349.45c6,28-10,72-11,84-.8,9.65,4.86,20.59,7.11,24.51a6.76,6.76,0,0,1,.88,3.4c-.06,5.14-.37,19.23-2,24.09-1.74,5.24-11.11,13.53-16.12,20.87a1.28,1.28,0,0,1-2.34-.61c-.33-3.83-.43-9.84,1.46-14.26,0,0,3.66-8.21,5-10,3-4-1-14-1-14a5.19,5.19,0,0,0-2,4c-.37,4.58.45,11.45-2,9-4.53-4.52-6-12-4-20s4-19,4-19-11-60-3-92c1.48-5.9-5.07-63.35-5.07-63.35S234,327.45,231,333.45s-12.16,51-12.16,51c0,6,8.35,33.47,14.16,48,10,25,6.84,78,6.84,78-.16,31-13.84,90-15.84,111s-5,69-6,86c-1.19,20.19-23,85-28,97s9,42,9,45-22,7-30,4-12-1-17-4,3-14,6-22,15-24,16-42-1-139,2-155-11-173-14-153c-3.11,20.77-23.85,144.08-32.85,156.08s0,43-1,67S122,791.45,120,799.45s7,31,4,37c-2.23,4.48-12,10-22,4s-36,0-43,1-28-1-34-7,8-6,16-7,49-23,60-38,5-150,5-157-12-118-12-118-1-55,1-75c1.9-19,26.84-73,34.84-85,5.72-8.57,5.31-15.61,4.61-18.93a50,50,0,0,1-.92-7c-.75-10.6-2.53-33-2.53-28.07,0,6-7,38.94-7,47,0,12-6,32-18,56-4.21,8.42-11,36-11,36l-1,46-3-1c-4-4-8-23-8-30s9.77-19.46,9-34c-2-38,5-74,5-74,7.16-26,6.38-37,7-58,1-34,9.15-58.92,15.15-72.92s44.69-27.08,50.69-29.08,9.16-28,9.16-28l24.84-29,12.16-5s-5.16,16-6.16,41c-.75,18.75,6.94,22.32,10.83,22.92,3.59.57,5,6.19,8.48,7.16l29,10C269.54,211.62,281,294.45,270,349.45"/><path class="cls-4" d="M146.88,440.06s3.58,22.28,10.94,15.93c0,0,4,11.55,11.17-10.27,0,0-5.66,22.1-11.45,11.76C157.54,457.48,148.69,463.55,146.88,440.06Z"/><path class="cls-5" d="M233.81,323.21c9.51-18.41,5.65-89.26,5.65-89.26,3,33-6.18,85.9-7,89.75l-1,9.25S233.16,324.47,233.81,323.21Z"/><path class="cls-6" d="M166.93,361.47s-3.05-1.94-3.59,3.72c-.72,7.54,2.09,8.52,3,5.66s-.08-4.61-1.05-4.74c-1.43-.19-1,0-1,0S164.9,360.18,166.93,361.47Z"/><g id="hovede"><path class="cls-1" d="M124.18,111.23s-23.29,3.44-25.38-30.74c0,0-2.25,28.61,10.41,29.73,0,0-32.4-4.42-10.87-48.8,6.92-15.84,28.64-28.57,30.2-28.95a44.7,44.7,0,0,1,10.53-.87L124.42,78.39Z"/><path class="cls-7" d="M119,119.92c-5.26,2-7.73,8.38-5.51,14.34s8.28,9.21,13.55,7.25a9.06,9.06,0,0,0,3.49-2.35,11.78,11.78,0,0,1-10.78-7.69,11.33,11.33,0,0,1,2.35-12.11A8.83,8.83,0,0,0,119,119.92Z"/><path class="cls-8" d="M127,141.51c-5.27,2-11.33-1.29-13.55-7.25s.25-12.38,5.51-14.34a10.76,10.76,0,0,1,3.44-.22c.13-.13-.07-.59.07-.72a10.14,10.14,0,0,0-4.83.53c-5.77,2.15-8.48,9.19-6,15.73s9.09,10.1,14.86,7.95a10.08,10.08,0,0,0,5-4.07,7.79,7.79,0,0,1-1,0A9.06,9.06,0,0,1,127,141.51Z"/><path class="cls-3" d="M152,26.51a60.43,60.43,0,0,0-34.36,50.1,26,26,0,0,0,.75,9.67c4.18,12.31,5.18,12.38,4.43,23.35s-8.35,34.52,37.2,57.64c0,0,23.2,12.6,59.24-46.1,0,0,14.63,6,19-13.75s-4.17-27.35-13.69-20,.11-46.1.11-46.1L164.91,20.27Z"/><path class="cls-1" d="M139.55,32.09s-4.2,17.75,40.22,27.78,43.21,28,43.21,28-10-15.71-48.47-24.33S132.29,50.64,139.55,32.09Z"/><path class="cls-4" d="M147.28,95.75s11.55,21.83,9.22,26.69-4.27,3.72-4.4,5.71,2.59,6.19,7.51,7.53c0,0-6.78-3.47-6.51-7.46.06-1,4.26-3.72,4.46-6.71C157.83,117.52,151.86,102.08,147.28,95.75Z"/><path d="M172.32,103.38a.21.21,0,0,1-.22-.28c.78-2.6,7.13-21.24,26.2-13.42,0,0,.85,1,3.61.37a.21.21,0,0,1,.26.27,17.37,17.37,0,0,1-6.47,8.21C190.84,101.9,174.76,103.2,172.32,103.38Z"/><path d="M175.8,111.21s-2.42.86-.85,2.46,17.61,1.68,23.07-5S175.8,111.21,175.8,111.21Z"/><path class="cls-9" d="M171.74,111.94c-2.22-18,18.54-27.48,28.14-18.32C207,108.54,183.91,117.75,171.74,111.94Z"/><path d="M143.41,106.51a.59.59,0,0,1,.24.09c.56.4,3.1,2.1,2.18-.77-1-3.23-5.27-14.54-17.65-9.36a10.79,10.79,0,0,1-3.35.73.54.54,0,0,0-.49.7,14,14,0,0,0,2.44,4.49C128.54,104.4,141.92,106.3,143.41,106.51Z"/><path d="M128.84,109a1,1,0,0,0-1.07.93c-.07,1,6.24,11.45,13.56,6.93S128.84,109,128.84,109Z"/><path class="cls-10" d="M200.8,98.69c-.26,5-3.8,8.76-9.21,9.38a9.08,9.08,0,0,1-9.94-8.6c-.2-5,2.84-9.29,8.12-9.51S201.1,92.79,200.8,98.69Z"/><path class="cls-11" d="M189.75,97.55c-1.1,2.23-1.24,4.42-2.34,4.33s-1.84-2.16-1.65-4.63,1.24-4.42,2.34-4.34C191.09,93.14,190.94,95.13,189.75,97.55Z"/><path class="cls-9" d="M146.5,109.35a8.76,8.76,0,0,1-6.84,4.25,7.83,7.83,0,0,1-8.58-7.44c-.18-4.29,2.44-8,7-8.21a12,12,0,0,1,2.07.11c-4.32-3.56-9-1.68-12,.38a5.37,5.37,0,0,0-2,6.41c7.66,19.06,17.42,10.83,20.24,7.84a2.09,2.09,0,0,0,.49-2C146.77,110.22,146.63,109.79,146.5,109.35Z"/><path class="cls-10" d="M138.09,98c-4.57.19-7.19,3.92-7,8.21a7.83,7.83,0,0,0,8.58,7.44,8.76,8.76,0,0,0,6.84-4.25c-1.81-5.88-4-9.37-6.34-11.29A12,12,0,0,0,138.09,98Z"/><path class="cls-11" d="M137.07,104.44c-.94,1.93-1.06,3.82-2,3.74s-1.59-1.86-1.43-4,1.07-3.82,2-3.75C138.23,100.63,138.1,102.35,137.07,104.44Z"/><path class="cls-4" d="M234.15,100.61s.06-14.66-7.81-5.18A8.14,8.14,0,0,0,224.93,98l-3,8c0,.14.09.27.2.18,1.43-1.21,6.25-4.6,7.43,3.15,0,0-1.42-7.73-8.6-1-.1.1-.26,0-.21-.16.76-2.36,3.93-11.9,5.8-13.75C228.69,92.34,234.06,87.05,234.15,100.61Z"/><path class="cls-12" d="M161.78,76.6s.77,6,2.69,7.08c1.11.62,10.07-2.64,15.78-4.34a35.92,35.92,0,0,1,16.61-1c6,.9,10,2.47,12.56,4.7,4.76,4.14-2.73-7.08-12.43-9.37-9-2.11-28.89.87-31.85,1a.4.4,0,0,0-.38.4c0,1.19,0,3.79.81,4.65.94,1-1.93-.06-1.78-5.06,0,0-1.6-.4-1.95-.06S161.81,75.6,161.78,76.6Z"/><path class="cls-12" d="M143.54,79.12s.29,4.78-.71,5.94c-.57.66-4.88-.51-8.57-1.61a14.06,14.06,0,0,0-10.07.55c-3.51,1.37-4.33,2.88-6,4.87-1.41,1.7-1.94-4.6,3.25-9,4.79-4.09,20-2.26,20-2.26s.53,2.8.12,3.84,1.35.72.47-4c0,0,.9-.51,1.17-.22S143.36,78.19,143.54,79.12Z"/><path class="cls-1" d="M138.42,34s16.85,15.72,59.73,20.87c19.88,2.39,24.83,33,24.83,33l7.36-49.55L201,26.93s-36.21-12.87-47.68-6.35S138.42,34,138.42,34Z"/><path class="cls-7" d="M213.54,126.4c-1.23,6.19,2.21,12.09,7.68,13.18,4.22.83,8.41-1.46,10.67-5.39a10.16,10.16,0,0,1-2.32-.2c-5.8-1.21-9.56-7.22-8.39-13.43a11.87,11.87,0,0,1,1.21-3.45C218.17,117.83,214.51,121.46,213.54,126.4Z"/><path class="cls-8" d="M221.22,139.58c-5.47-1.09-8.91-7-7.68-13.18,1-4.94,4.63-8.57,8.85-9.29a11.29,11.29,0,0,1,.72-1.16c-5.41-.15-10.43,4.15-11.65,10.32-1.35,6.79,2.43,13.26,8.42,14.45,4.85,1,9.66-1.84,12-6.53h0C229.63,138.12,225.44,140.41,221.22,139.58Z"/><path class="cls-6" d="M161.57,133.89s-.8-1.3,2.26-.76c4.08.72,4.38,1.82,2.78,1.77s-2.45-.62-2.44-1c0-.52.08-.34.08-.34S161,133,161.57,133.89Z"/><path class="cls-4" d="M169.53,135.88c-.31.22,7.67.4,2.43-5.39C172,130.49,175.16,135.36,169.53,135.88Z"/><path class="cls-13" d="M151.65,147.39c.84.83,2.86,1.84,3.27,2.92,1.14,3,8.62,3.8,12.89,3.69,9.59-.23,13.63-9.33,13.63-9.33l-11.63-.29-16,3Z"/><path class="cls-9" d="M156,145.69a17.73,17.73,0,0,0,2.27,1.54c1.39.8,3.48,1,6.39.8a31.8,31.8,0,0,0,10.37-2.8c2.05-1,2.63-.2,2.63-.2l-12.77-2-9.23,2Z"/><path class="cls-14" d="M150.74,147.41s5.72.48,6.27,0c1.07-1,8.47-3,20.27-1.46,1.69.22,5.37-1,5.2-2,0-.08.09-.05,0,0-2.29,1.28-7.43-.54-11.91-1.22-3.92-.59-11-1.37-15.42,2.58C153,147.22,151,147.1,150.74,147.41Z"/></g></g><path class="cls-15" d="M165.76,476.82c4.4-12.46,49.86-48.53,62.47-58.36-1.72-5.08-3.43-10.46-4.91-15.48-68.7,45.41-105.94-6.84-111-14.68-2.32,5.25-4.61,10.68-6.74,16,11.09,5.09,48.19,64.92,55,72.81a2.46,2.46,0,0,0,1.88.85h1.79A1.64,1.64,0,0,0,165.76,476.82Z"/><path class="cls-16" d="M105.52,764c-1.08,12.2-2.74,21.23-5.23,24.55C88.67,804,43.91,824.92,35.46,826S13.66,828.83,20,835s28.52,8.27,35.92,7.24,34.86-7.24,45.42-1,20.88.49,23.25-4.13c3.16-6.21-6.34-30-4.23-38.26.8-3.15,5.6-16.21,11.28-32.54a3.54,3.54,0,0,0-1.12.46C120.08,773.34,109.4,766.84,105.52,764Z"/><path class="cls-16" d="M173.54,778c0,3.3-.08,5.88-.17,7.56-.94,18.16-13.6,34.38-16.74,42.46s-11.57,19.24-6.23,22.23,9.59.94,18.12,3.9,31.93-1.23,31.91-4.25-15.14-33.17-9.9-45.3c1.52-3.52,4.52-11.53,8-21.63C192.76,785.88,183.83,781.53,173.54,778Z"/><path class="cls-17" d="M169.46,187s11,32,51,1c0,0,35.82,14.41,45.15,19.08,4,2,9.52,40.68,7,45-7,12-32.15,17.92-32.35,30-.44,26-15.8,95.94-21.8,102.94s-100,14.52-97-18c0,0,16-17.61,9-69l-9.27-18.18,8.18-14.51S120,253.45,106,250.45c-3,0,9.43-38.81,12.65-40.42C128.61,205,156.61,188,169.46,187Z"/><path class="cls-5" d="M138.46,225s-9,42-17,50,6,25,11,26c0,0-4.92-8.29-8.63-16.18a9.36,9.36,0,0,1,.47-8.72A109,109,0,0,0,138.46,225Z"/><path class="cls-5" d="M187.46,297s16.73,18.75,37-1C224.46,296,204.54,309.62,187.46,297Z"/><path class="cls-5" d="M233.46,232s5.36,34.15,5.68,43.08-1.39,21.77-1.39,21.77S234.46,244,233.46,232Z"/><path class="cls-5" d="M172.17,183.87s-1.14,1.86-6.42,3S174.46,201,183.46,203s28-3,34-7c4.16-2.77,5.55-5.5,5.77-7.25s-4.38.11-6.77-2.75C216.46,186,180.46,210,172.17,183.87Z"/></g><g id="sko2"><g id="sko2-2" data-name="sko2"><path class="cls-18" d="M43.37,817.79a25.75,25.75,0,0,0,4.4-.38c2.35.57,4.12,1,4.12,1,8.84-4.28,41.38-7.53,41.38-7.53l-7.36-2.22-1-.12,1.92-1.34L130,831.17l.55,7.24a6.75,6.75,0,0,1-3.7,6.57l-3.41,1.71s-14.61-1.12-52.92,4.88-58.18-8.41-58.18-8.41C10.56,814.29,38.5,817.41,43.37,817.79Z"/><path d="M85.34,812.54c-9.74,1-25.12,3-31.52,5.67a3.94,3.94,0,0,1-1.93.23c-1.07-.21-2.59-.66-4.12-1,9.59-1.33,30-5.73,33.46-6.49a2.63,2.63,0,0,0,.92-.4l2.8-1.95,1,.12h0C88.21,809.56,87.8,812.28,85.34,812.54Z"/><path d="M109.62,818.42a4.67,4.67,0,0,0-2.28-.33C101,818.75,71.2,821.9,65,823.4s-8.77,22.12-8.83,23.11,51.83-6.94,60.35-6.29a70.07,70.07,0,0,0,9.48.11A4.67,4.67,0,0,0,130.4,836l.43-5.39a4.81,4.81,0,0,0-3-4.83Z"/></g><path class="cls-19" d="M66.89,813.63c.91-.78,4.76,1,8.59,4s6.2,6.07,5.28,6.84"/><path class="cls-19" d="M75.54,812.3c.91-.77,4.76,1,8.59,4s6.2,6.07,5.28,6.84"/><path class="cls-19" d="M58.18,815.93c.91-.77,4.76,1,8.59,4S73,826,72.05,826.81"/></g><path class="cls-18" d="M198.59,818.33l-.67-.2c.1.3.19.62.29.94C198.44,818.6,198.59,818.33,198.59,818.33Z"/><path class="cls-18" d="M153.11,815.39s.18.35.43,1l.66-2Z"/><path class="cls-18" d="M201.33,835.64c-.31.17-.82-.08-1.57-.89-5.86-6.27-14.79-2.19-17.15-5.72-1.8-2.71-.34-10.3,2.9-14.7l-23.9-7.3-2.87,2.82a3.88,3.88,0,0,1,.87,1.18c2.5,4.8,5.4,17.6,3,17-4-1-15.25,7.07-15.25,7.07l.1-.31c-2.51,3.85-4,9.54-1.85,20.24,0,0,33,6.8,58-.58C203.61,854.45,205.89,843.75,201.33,835.64Z"/><path d="M147.46,834.79a23.74,23.74,0,0,1,3.15-3.76"/><path d="M162.61,828c2.4.6-.5-12.2-3-17a3.88,3.88,0,0,0-.87-1.18l-4.54,4.46-1.59.72c1,2.4,3.73,10.28-2,16a23.74,23.74,0,0,0-3.15,3.76l-.1.31S158.61,827,162.61,828Z"/><path d="M182.61,829c2.36,3.53,11.29-.55,17.15,5.72.75.81,1.26,1.06,1.57.89a16.3,16.3,0,0,0-2.72-3.61c-4.12-4.12-1.46-10.75-.4-13-.1-.32-.19-.64-.29-.94l-12.41-3.8C182.27,818.73,180.81,826.32,182.61,829Z"/><path class="cls-19" d="M161.33,823.68c.08-1,5.59-1.85,12.31-1.84s12.09.86,12,1.89-6.08.22-12.8.2S161.25,824.71,161.33,823.68Z"/><path class="cls-19" d="M160.33,818.68c.08-1,5.59-1.85,12.31-1.84s12.09.86,12,1.89-6.08.22-12.8.2S160.25,819.71,160.33,818.68Z"/><path class="cls-2" d="M121.61,367s3.36,42.71,94.68,12.35c0,0,1.17,23.31,16.75,67s-8.93,158.51-8.93,158.51,4.5,37.16-.5,48.16,7,78-14,108c0,0,0,22,1,27s-7,29-10,33-27-16-50-4c0,0,2-10,6-14s-4-1-7-8,17.5-16.5,14.5-32.5-10.5-58.5-9.5-66.5,9-62,9-62,2.7-110.17-.9-126.83-3.6-30.67-2.6-34.67S146.61,606,137.61,619s3,28,3,28,3,9.62,0,19,2.5,104.5-6.5,109.5,2,7,3,11-12,10-12,15,6,30,2,31-82,0-76-17c0,0,16-8,20-11s-15-12-12-23,19-100,16-119-5.5-51.5-1.5-67.5c2.68-10.72,5-133.12,23-180C114.82,367.72,121.61,367,121.61,367Z"/><path class="cls-20" d="M121.61,367s7.36,41.71,98.68,11.35c0,0,1.17,23.31,16.75,67s-8.93,158.51-8.93,158.51,4.5,37.16-.5,48.16,11,81-10,111c0,0-1,24,0,29s-7,25-10,29-33-17-53-2c0,0,2-13,6-17s-4-1-7-8,17.5-16.5,14.5-32.5-10.5-58.5-9.5-66.5,9-62,9-62,2.7-110.17-.9-126.83-8.1-15.17-7.1-19.17-9,118-18,131,3,28,3,28,3,9.62,0,19,2.5,104.5-6.5,109.5,2,7,3,11-12,10-12,15,6,30,2,31-82,0-76-17c0,0,16-8,20-11s-15-12-12-23,19-100,16-119-5.5-51.5-1.5-67.5c2.68-10.72,5-133.12,23-180C118.82,366.72,121.61,367,121.61,367Z"/><path class="cls-2" d="M222.61,441c-38,1-38.28-36-38.28-36S190.9,436,222.61,441Z"/><path class="cls-2" d="M102.61,424c33,3,27-30,27-30S134.33,419,102.61,424Z"/><path class="cls-2" d="M152.37,403c0,2.76.66,5-1,5s-3-2.24-3-5,1.35-5,3-5S152.37,400.27,152.37,403Z"/><path class="cls-2" d="M153.61,454.47s6.86,2.78,4.82-31.65c-.45-7.44.59-16.78-1.09-28l2-.21s.1,13.76,1.09,28C161.59,439.73,163.2,457.18,153.61,454.47Z"/><path class="cls-2" d="M141.33,465.68s14.26,17.06,21.6,15.2S154.12,491,141.33,465.68Z"/><path class="cls-2" d="M162.8,679.78S161.61,656,173.61,642c0,0,8-7,12-8a45.37,45.37,0,0,0,8-3s-19,10-24,25A233.41,233.41,0,0,0,162.8,679.78Z"/><path class="cls-2" d="M158.61,799S171,807.55,183.33,809,163.61,800,158.61,799Z"/><path class="cls-2" d="M116.61,789s13.41-10.88,20.16-14C145.61,771,128.11,770.66,116.61,789Z"/></g><path class="cls-21" d="M158,189.29S111.61,212,105.61,218s-43,102-46,114-12,26-4,37,2.79,27.59,16,32c6,2-3,10,9,17l-41,280s40,27,57,29,74-532,76-543S158,189.29,158,189.29Z"/><path class="cls-21" d="M226.45,189.48S268.61,205,272.61,208s49,173,12,191c0,0-6,17-17,22s34,291,34,291-90.81,31.12-106,28,16.8-559.95,16.8-559.95Z"/><path class="cls-22" d="M211.61,178s18.34.37,19.44,11.06,23.17,61.63,27.56,69.94c0,0-22.07,26.25-22.07,28.62s11,15.44,11,15.44L201.61,368S211.83,195,211.61,178Z"/><path class="cls-22" d="M174.57,179.44c3.42-8.28-18.51,4.91-18.94,11.91S126,242.93,114.61,250c0,0,12.12,19.28,17.81,28.74l-14.81,13s34.18,60.3,34.18,74.49S170.43,189.46,174.57,179.44Z"/><path class="cls-22" d="M259.61,296s4.4,121.4,4.7,132.7S266.61,327,259.61,296Z"/><path class="cls-22" d="M105.2,274.18S84.71,402,82.69,413.87,105.86,308,105.2,274.18Z"/><path class="cls-22" d="M58.61,374s2.31-20.52,15-27C73.61,347,62.65,358.91,58.61,374Z"/><path class="cls-22" d="M265.61,384a22.21,22.21,0,0,1,18.45,12.7S275.05,386.57,265.61,384Z"/><path class="cls-22" d="M73.61,402s-2-12,16-20C89.61,382,80.61,388,73.61,402Z"/></g></g></svg>
