<svg xmlns="http://www.w3.org/2000/svg" viewBox="0 0 280 100"><defs><style>.cls-1{fill:#13202f;}.cls-2{fill:#f28627;}.cls-3{fill:#fff;}</style></defs><title>pil_knap</title><g id="spilside"><rect class="cls-1" x="11" y="8" width="260" height="84" rx="37.55"/><path class="cls-2" d="M53.83,66.54l68.34-3.33L191,59.88c7.61,0,10,.43,10-7.18V50.39c0-7.61-.16-9.39-7.77-9.39l-72.17-1.11L53.83,36.56A13.87,13.87,0,0,0,40,50.39V52.7A13.88,13.88,0,0,0,53.83,66.54Z"/><path class="cls-2" d="M244.18,37.34,208.62,17.55a13.28,13.28,0,0,0-19.73,11.61V68.72a13.28,13.28,0,0,0,19.73,11.6l35.56-19.78A13.28,13.28,0,0,0,244.18,37.34Z"/><path class="cls-3" d="M52.83,62l68.34-3.33L190,55.34c7.61,0,10,.43,10-7.17V45.86c0-7.61-.16-9.4-7.77-9.4l-72.17-1.11L52.83,32A13.88,13.88,0,0,0,39,45.86v2.31A13.88,13.88,0,0,0,52.83,62Z"/><path class="cls-3" d="M241,35.55,207.45,16.16a12.77,12.77,0,0,0-19.16,11.06V66a12.77,12.77,0,0,0,19.16,11.06L241,57.66A12.77,12.77,0,0,0,241,35.55Z"/></g></svg>
