<svg xmlns="http://www.w3.org/2000/svg" viewBox="0 0 1920 1080"><defs><style>.cls-1{fill:#253f5d;}.cls-2{fill:#13202f;}.cls-3{fill:none;}.cls-4{fill:#333;}.cls-5{fill:#1a1a1a;}.cls-6{fill:#d9b299;}.cls-7{fill:#fff;}.cls-8{fill:#754c24;}.cls-9{fill:#58391b;}.cls-10{fill:#c69c6d;}.cls-11{fill:#a67c60;}.cls-12{fill:#211106;}.cls-13{fill:#f7f6f5;}.cls-14{fill:#dbdbda;}.cls-15{fill:#a67c52;}</style></defs><title>pop_up</title><g id="spilside"><rect class="cls-1" x="-0.21" y="-1.24" width="1920" height="1080"/><rect class="cls-2" x="676.91" y="498" width="1086.8" height="351.89" rx="36.16"/><polygon class="cls-2" points="678 777.05 678.14 678.38 553.18 773.69 678 777.05"/><path class="cls-3" d="M138.29,578l.58,1.34C138.68,578.87,138.48,578.43,138.29,578Z"/><path class="cls-3" d="M140.11,582l0,0c-.21-.4-.41-.8-.61-1.22Z"/><path class="cls-3" d="M379.7,800.79c11.49-10.17,21.17-22.26,24.93-30.37C399.82,777.71,390.82,790.27,379.7,800.79Z"/><path class="cls-4" d="M311.77,986.11a95.26,95.26,0,0,1-3.53-12.43c1.23,4.29,2.4,8.42,3.53,12.43,10.08,28.28,30.71,49.06,27.58,93.89h43.46c3.68-5.92,6.68-11.76,7.88-18.62C391.52,976,439,904.93,439,904.93c-24.2,41-43.71,130.88-46.91,170.56q-.8,2.33-1.74,4.51H517.16c-6.14-63.13-18.35-99.2,4.19-126.12-23.34,36,.52,82.65-1.13,126.12h23.15c7-32-19.64-76.84-13.81-103.25C536.11,947.08,561.09,879,498.44,825c-34.3-38.23-55.57-36.44-76.94-22.5a20.56,20.56,0,0,0,2.58,4.62l2.51-.79c46.65-14.08-23.18,75.48-43.71,87.81-38.2,28.73-48.83-5.28-29.5-23.32.41-.38,4.24-4.3,7.09-7.14a73.18,73.18,0,0,0-4.37-12.43c-26.61,16.9-37.41,19.1-55.55,41.74C274.43,924,290,990.63,285.8,1017.57c-1.63,19.51-6.13,40-10.91,62.43h55.79C330,1056.73,323.93,1029.41,311.77,986.11Z"/><path class="cls-5" d="M311.77,986.11c-1.13-4-2.3-8.14-3.53-12.43A95.26,95.26,0,0,0,311.77,986.11Z"/><path class="cls-5" d="M311.77,986.11c12.16,43.3,18.23,70.62,18.91,93.89h8.67C342.48,1035.17,321.85,1014.39,311.77,986.11Z"/><path class="cls-5" d="M521.35,953.88c-22.54,26.92-10.33,63-4.19,126.12h3.06C521.87,1036.53,498,989.93,521.35,953.88Z"/><path class="cls-5" d="M439,904.93s-47.43,71-48.26,156.45c-1.2,6.86-4.2,12.7-7.88,18.62h7.49q.94-2.19,1.74-4.51C395.24,1035.81,414.75,945.92,439,904.93Z"/><path class="cls-6" d="M404.63,770.42a21.63,21.63,0,0,0,1.32-3.54c-9.1-22.44-13.59-46-15.57-59.39,11.89,12.74,23.48,11.72,39.46-5.35,14.82-15.83,15.38-66.73-10.84-79-20.05-9.35-32.84,15.62-37.75,27.89.47-1.48.88-3,1.25-4.44-.75,1.53-1.18,2.49-1.18,2.49,3.27-18.64-57-94.89-70.12-111.23-15,6.88-32.66,14.77-46.8,20.75,0,0-31.91-11-43.59-35.52,0,0-2.33,49,13.47,50.44,0,0-16.08,11-30.42,19.23-.78.45-1.58.87-2.39,1.26l-25.65,12.5s-23.88-1.44-35.69-24.58l0,0c3.86,8.31,13.2,26.69,20.95,28.71,0,0-12,13-18.6,12.57-5.68-.34-10.37-7.25-11.17-10.82-.14,3.54-.1,11.36,4.67,14.49,2.9,1.9-2,5-7.29,7.59,1.7,10.7,5.94,18.81,9.51,24.87.66-5.08.92-5.55,3.84-10.68,3.21-5.62,17.49-7.87,19.08-8.58s23-4.1,23.8-2.36,2.32,9.4,2.32,9.4c1.59-.72-.73-10.12-.73-10.12,2.38,1,4.69,10.43,4.69,10.43.81-2.46-1.51-11.86-1.51-11.86a25,25,0,0,1,3.86,17.07c-3.18,1.43-34.93,7.36-42.88,10.94-5.14,2.31-4.67,8.21-4.13,12.28,7.78,13.52,27.76,36.88,27.76,36.88-.78,10.13,1.07,44.2,8.28,54.06,14.13,19.33,25.2,35,35.21,47.79a80.89,80.89,0,0,0,29.87,24c25.18,11.53,39,1.73,39,1.73,24.77-14.34,43-29.51,56.51-44.32,4.92,3.76,6.73,12,6.64,22.28a37.54,37.54,0,0,0,4.55-1.17c8.41-3.18,17.33-9.34,25.37-16.44C390.82,790.27,399.82,777.71,404.63,770.42ZM282.19,565.78c-9.55-2.39-28.67,2.39-28.67,2.39C267.86,556.22,291.75,568.17,282.19,565.78ZM213.6,703.52a44,44,0,0,0,2.47-14.85,18.18,18.18,0,0,1-2.36,6.33,17.57,17.57,0,0,1-2.4,3.79c1-.1,1.48.25,1,1.23-7.77,6.66-26.76,16.49-32.14,11.18a27.69,27.69,0,0,0,6.4-2.09c-6.34-.86-12.51-8.19-13.74-16.44-1.68,1.3-4,2.72-4.85,1.73-1.47-1.65,4-18.42,16.86-26.94s24.42,1.28,24.42,1.28a1.92,1.92,0,0,1,.33.57,16.93,16.93,0,0,1,2.4,2.39,53.93,53.93,0,0,0-16.82-19.57l-.85-.57s.31.19.85.57c18.88,12.71,31.91,28.3,18.52,59.33-12.94,30,12,39.14,14.39,39.93l.18.06-.18-.06C210.85,746,202.4,736.27,213.6,703.52Zm32.3,29.86c13.56-1.9,15.7,1,10.83,3.3s-8.47,1.19-8.69-.39l-.22-1.57s-10.39-.15-6.12,5.67C241.7,740.39,232.34,735.28,245.9,733.38Zm7.73,59.24c-5.14-14.28-14.5-19.16-7.67-21.62s25-1.21,30.09,13.07-10.94,25.75-17.76,28.21S258.77,806.9,253.63,792.62ZM264.4,711c22.18,16,2.3,31.28,2.3,31.28C281,728.53,264.4,711,264.4,711Zm1.79,108.23c1.43-4.64,9.91-7.1,13.91-8a1.65,1.65,0,0,1,2,1.77C280.71,825.88,264.4,825,266.19,819.23Zm50.52-163c-8.22,11.64-41.51,24.5-50.53,13.28a38.58,38.58,0,0,0,7.15-1.39c-1.36-.24-2.14-.44-2.14-.44-15.86-11.28-17.59-23.93-12.81-34.07-1,.91-2,1.88-3,2.94a.92.92,0,0,1-1.54-.93c2.34-7.44,11.24-24.22,43.79-24.06,29.24.13,21.32,3.95,9.8,6.82,7,3.84,11.29,10.14,10.78,17.9.59,7.77-2.13,14.27-6.74,18-.65,1-1.34,1.87-2,2.71C312.88,656.2,315.49,655.84,316.71,656.28Zm-2.61-67.82c-17.62-5.17-37.77-5.06-47.28.12-9.7,5.28-38.71,39.14-38.71,39.14-11.42-7.16-16.55-19.6-14.57-17,2.5,3.3,17,11.94,12.76,7.81-3.32-3.26-9.8-16.34-7.19-11.77,1.9,3.35,6.33,6.82,8.77,8.66-2.49-3.3-5.27-12-5.27-12s12.41-20,40.71-31.22S331.72,593.64,314.1,588.46Z"/><path class="cls-5" d="M429.67,811a3.45,3.45,0,0,1,2.37,4.65c-7.18,17.58-38.1,55.44-63.88,78.08a5.37,5.37,0,0,1-8.91-4.35c.43-6.69,1.48-12.26,1.95-15.58a25.55,25.55,0,0,0-.73-10.11c-2.85,2.84-6.68,6.76-7.09,7.14-19.33,18-8.7,52,29.5,23.32,20.53-12.33,90.36-101.89,43.71-87.81l-2.51.79A9.81,9.81,0,0,0,429.67,811Z"/><path class="cls-7" d="M361.2,873.83c-.47,3.32-1.52,8.89-1.95,15.58a5.37,5.37,0,0,0,8.91,4.35c25.78-22.64,56.7-60.5,63.88-78.08a3.45,3.45,0,0,0-2.37-4.65,9.81,9.81,0,0,1-5.59-3.87,20.56,20.56,0,0,1-2.58-4.62c-5.8-13.82-4.49-39.24-11.73-40.06a3.33,3.33,0,0,0-3.52,3,9.51,9.51,0,0,1-.3,1.44,21.63,21.63,0,0,1-1.32,3.54c-3.76,8.11-13.44,20.2-24.93,30.37-8,7.1-17,13.26-25.37,16.44l-.06,0c-6.35,2.28-9,2-9.36.73a3.09,3.09,0,0,0-4.21-1.85c-2.28,1-3.75,2.43-2.79,4.67a160.81,160.81,0,0,1,18.19,30.49,73.18,73.18,0,0,1,4.37,12.43A25.55,25.55,0,0,1,361.2,873.83Z"/><path class="cls-8" d="M335.7,502.1s12.27,18,7.4,20.7c-2.53,1.43-15.7,7.67-31.9,15.09,13.13,16.34,73.39,92.59,70.12,111.23,0,0,.43-1,1.18-2.49,3-6.11,11.11-21.53,17.8-23.2,5.3-1.33-11.16-68.54-27.36-97.83a96.74,96.74,0,0,0-11.37-16.53c-4.77,3.34-9.93,6.84-12.87,8.5C348.7,517.57,344.12,505.64,335.7,502.1Z"/><path class="cls-9" d="M150.65,663.67c7.95-3.58,39.7-9.51,42.88-10.94a25,25,0,0,0-3.86-17.07s2.32,9.4,1.51,11.86c0,0-2.31-9.41-4.69-10.43,0,0,2.32,9.4.73,10.12,0,0-1.53-7.66-2.32-9.4s-22.21,1.64-23.8,2.36-15.87,3-19.08,8.58c-2.92,5.13-3.18,5.6-3.84,10.68-.06.49-.13,1-.2,1.59-.83,6.64,7,19.82,8.6,19.1.56-.25.24-1.94-.06-4.17C146,671.88,145.51,666,150.65,663.67Z"/><path class="cls-10" d="M228.09,751.39l.18.06Z"/><path class="cls-10" d="M195.18,652.13c-.54-.38-.85-.57-.85-.57Z"/><path class="cls-10" d="M213.7,711.46c13.39-31,.36-46.62-18.52-59.33A53.93,53.93,0,0,1,212,671.7a19.85,19.85,0,0,1,4.39,11.22,23,23,0,0,1-.32,5.75,44,44,0,0,1-2.47,14.85c-11.2,32.75-2.75,42.49,14.49,47.87C225.7,750.6,200.76,741.47,213.7,711.46Z"/><path class="cls-10" d="M264.4,711s16.59,17.53,2.3,31.28C266.7,742.28,286.58,727.05,264.4,711Z"/><path class="cls-11" d="M247.82,734.72l.22,1.57c.22,1.58,3.83,2.67,8.69.39s2.73-5.2-10.83-3.3-4.2,7-4.2,7C237.43,734.57,247.82,734.72,247.82,734.72Z"/><path class="cls-9" d="M136,627c-4.77-3.13-4.81-11-4.67-14.49.8,3.57,5.49,10.48,11.17,10.82,6.64.4,18.6-12.57,18.6-12.57-7.75-2-17.09-20.4-20.95-28.71l-.59-1.27c.2.42.4.82.61,1.22,11.81,23.14,35.69,24.58,35.69,24.58l25.65-12.5c.81-.39,1.61-.81,2.39-1.26,14.34-8.19,30.42-19.23,30.42-19.23-15.8-1.45-13.47-50.44-13.47-50.44,11.68,24.5,43.59,35.52,43.59,35.52,14.14-6,31.77-13.87,46.8-20.75,16.2-7.42,29.37-13.66,31.9-15.09,4.87-2.74-7.4-20.7-7.4-20.7,8.42,3.54,13,15.47,13,15.47,2.94-1.66,8.1-5.16,12.87-8.5,5.78-4,11-7.85,11-7.85,10.57-17.14-11.81-60.93-91.41-61.62-70.4-.61-104.39,28.28-111.31,35-3.24-8.4-7.45-19.73-8.33-24-1.47-7.13,4.73-20.31,4.73-20.31-6.86-.82-14.15,21.51-14.69,26.09-.34,2.86,8.41,13.13,15,20.44-22.83,9.31-43.3-8.88-75.86,70C57.25,627.85,119,638.62,119,638.62s5-1.79,9.68-4.06C134,632,138.86,628.87,136,627Zm2.91-47.66-.58-1.34C138.48,578.43,138.68,578.87,138.87,579.31Z"/><path class="cls-9" d="M263.32,572.27c-28.3,11.25-40.71,31.22-40.71,31.22s2.78,8.65,5.27,12c-2.44-1.84-6.87-5.31-8.77-8.66-2.61-4.57,3.87,8.51,7.19,11.77,4.21,4.13-10.26-4.51-12.76-7.81-2-2.62,3.15,9.82,14.57,17,0,0,29-33.86,38.71-39.14,9.51-5.18,29.66-5.29,47.28-.12S291.62,561,263.32,572.27Z"/><path class="cls-12" d="M285.52,614.5c8.43-.74,16.11.76,21.91,3.93,11.52-2.87,19.44-6.69-9.8-6.82-32.55-.16-41.45,16.62-43.79,24.06a.92.92,0,0,0,1.54.93c1-1.06,2-2,3-2.94C263.3,623.21,275.11,615.41,285.52,614.5Z"/><path d="M273.33,668.17a38.58,38.58,0,0,1-7.15,1.39c9,11.22,42.31-1.64,50.53-13.28-1.22-.44-3.83-.08-7.28.75C297.74,671,279.52,669.24,273.33,668.17Z"/><path d="M189.87,709a8.69,8.69,0,0,1-3.29.16,27.69,27.69,0,0,1-6.4,2.09c5.38,5.31,24.37-4.52,32.14-11.18.47-1,0-1.33-1-1.23C205.66,705.57,195.72,707.49,189.87,709Z"/><path class="cls-13" d="M304.53,657.47c-8.34,1.41-16-8.09-16.87-19.27s3.5-20.94,11.93-21.48,17.74,8.35,18.62,19.53v.08c.51-7.76-3.76-14.06-10.78-17.9-5.8-3.17-13.48-4.67-21.91-3.93-10.41.91-22.22,8.71-27.14,19.16-4.78,10.14-3,22.79,12.81,34.07,0,0,.78.2,2.14.44,6.19,1.07,24.41,2.8,36.1-11.14.7-.84,1.39-1.75,2-2.71A14.93,14.93,0,0,1,304.53,657.47Z"/><path class="cls-12" d="M299.59,616.72c-8.43.54-12.8,10.3-11.93,21.48s8.53,20.68,16.87,19.27a14.93,14.93,0,0,0,6.94-3.15c4.61-3.72,7.33-10.22,6.74-18v-.08C317.33,625.07,308,616.19,299.59,616.72Zm3.11,14.85c-1.6,3.45-1.68,6.79-3.45,6.72s-3.09-3.19-3-7,1.68-6.8,3.45-6.73C304.54,624.78,304.43,627.82,302.7,631.57Z"/><path class="cls-14" d="M299.74,624.59c-1.77-.07-3.31,2.94-3.45,6.73s1.2,6.91,3,7,1.85-3.27,3.45-6.72C304.43,627.82,304.54,624.78,299.74,624.59Z"/><path class="cls-13" d="M205.75,700.78c-6.43,1.23-12.26-6.69-12.88-16.06-.57-8.75,2.37-16.47,8-17.87-7.63-1.51-17.62.12-25.83,13.78a17.9,17.9,0,0,0-2.25,12c1.23,8.25,7.4,15.58,13.74,16.44a8.69,8.69,0,0,0,3.29-.16c5.85-1.46,15.79-3.38,21.44-10.16a17.57,17.57,0,0,0,2.4-3.79A12.08,12.08,0,0,1,205.75,700.78Z"/><path class="cls-12" d="M216.39,682.92A19.85,19.85,0,0,0,212,671.7a16.93,16.93,0,0,0-2.4-2.39,1.92,1.92,0,0,0-.33-.57s-11.57-9.8-24.42-1.28S166.52,692.75,168,694.4c.89,1,3.17-.43,4.85-1.73a17.9,17.9,0,0,1,2.25-12c8.21-13.66,18.2-15.29,25.83-13.78-5.68,1.4-8.62,9.12-8,17.87.62,9.37,6.45,17.29,12.88,16.06a12.08,12.08,0,0,0,8-5.78,18.18,18.18,0,0,0,2.36-6.33A23,23,0,0,0,216.39,682.92Zm-11.91-3.84c-1.25,2.9-1.33,5.7-2.69,5.65s-2.36-2.66-2.24-5.83,1.33-5.71,2.69-5.66C205.93,673.37,205.84,675.93,204.48,679.08Z"/><path class="cls-14" d="M202.24,673.24c-1.36,0-2.57,2.49-2.69,5.66s.88,5.79,2.24,5.83,1.44-2.75,2.69-5.65C205.84,675.93,205.93,673.37,202.24,673.24Z"/><path class="cls-15" d="M276.05,784.07C270.91,769.79,252.79,768.54,246,771s2.53,7.34,7.67,21.62-2.17,22.12,4.66,19.66S281.19,798.35,276.05,784.07Z"/><path class="cls-11" d="M280.1,811.22c-4,.91-12.48,3.37-13.91,8-1.79,5.8,14.52,6.65,15.91-6.24A1.65,1.65,0,0,0,280.1,811.22Z"/><path class="cls-15" d="M282.19,565.78c9.56,2.39-14.33-9.56-28.67,2.39C253.52,568.17,272.64,563.39,282.19,565.78Z"/></g></svg>
