<svg xmlns="http://www.w3.org/2000/svg" viewBox="0 0 420 300"><defs><style>.cls-1{fill:#13202f;}.cls-2{fill:#f28627;}.cls-3{fill:#fff;}</style></defs><title>ps_logo</title><g id="velkommen"><g id="ps_logo" data-name="ps logo"><rect class="cls-1" x="9" y="10.5" width="393.06" height="125.93" rx="13.01"/><polygon class="cls-2" points="96.77 259.67 97.16 295.01 141.92 260.45 96.77 259.67"/><rect class="cls-2" x="64.33" y="136.43" width="335.82" height="125.93" rx="13.4"/><polygon class="cls-1" points="39.53 133.74 39.92 169.08 84.68 134.52 39.53 133.74"/><path class="cls-3" d="M90.84,78q-5.94,5-16.94,5H59.84v24.28h-14V39.67h29q10,0,16,5.23t6,16.17Q96.77,73,90.84,78ZM80.06,53.65c-1.78-1.5-4.29-2.25-7.51-2.25H59.84V71.29H72.55c3.22,0,5.73-.81,7.51-2.43s2.69-4.18,2.69-7.7S81.85,55.14,80.06,53.65Z"/><path class="cls-3" d="M151.37,41.41a16.83,16.83,0,0,1,6.32,4.72,21.27,21.27,0,0,1,3.4,5.68,19.06,19.06,0,0,1,1.25,7.11,20.24,20.24,0,0,1-2.43,9.46,13.55,13.55,0,0,1-8,6.57,12.67,12.67,0,0,1,6.62,5.34q2,3.46,2,10.56v4.54a34.07,34.07,0,0,0,.37,6.28,5.63,5.63,0,0,0,2.61,3.85v1.69H147.86c-.43-1.49-.74-2.7-.92-3.62a33.77,33.77,0,0,1-.59-5.82l-.1-6.27c-.05-4.31-.8-7.18-2.23-8.62s-4.11-2.15-8-2.15H122.2v26.48H108.41V39.67h32.3Q147.64,39.8,151.37,41.41Zm-29.17,10V69.55h15.19a16.16,16.16,0,0,0,6.78-1.1c2.67-1.29,4-3.82,4-7.61q0-6.14-3.87-8.25a14.06,14.06,0,0,0-6.53-1.19Z"/><path class="cls-3" d="M188.73,107.21h-14V39.67h14Z"/><path class="cls-3" d="M241.45,39.67h14.66l-23,67.54H219.75L196.91,39.67H212L226.65,91Z"/><path class="cls-3" d="M276.91,39.67h16l23.9,67.54H301.47L297,93.33H272.14l-4.57,13.88H252.8Zm-.93,42h17.3l-8.53-26.58Z"/><path class="cls-3" d="M367.53,39.67v12H347.32v55.58H333.11V51.63h-20.3v-12Z"/><path class="cls-3" d="M117.31,212.79a13.77,13.77,0,0,0,2.57,6.92q3.51,4.17,12,4.17a25.67,25.67,0,0,0,8.28-1.1q6-2.1,6-7.83a5.77,5.77,0,0,0-2.95-5.18,31.94,31.94,0,0,0-9.38-3.16L126.58,205q-10.78-2.37-14.81-5.17-6.84-4.68-6.83-14.62a19.44,19.44,0,0,1,6.68-15.08q6.67-6,19.62-6,10.8,0,18.44,5.66t8,16.43H144.12a9.67,9.67,0,0,0-5.45-8.66,18.69,18.69,0,0,0-8.41-1.7,16.08,16.08,0,0,0-8.93,2.2A7,7,0,0,0,118,184.2a5.79,5.79,0,0,0,3.29,5.41q2.11,1.19,9,2.79l11.85,2.8q7.8,1.83,11.68,4.9,6,4.77,6,13.79a19.39,19.39,0,0,1-7.15,15.38q-7.16,6.1-20.22,6.11-13.34,0-21-6t-7.64-16.57Z"/><path class="cls-3" d="M169.5,166.1h14.8l26.81,47.1V166.1h13.15v67.54H210.15l-27.5-47.92v47.92H169.5Z"/><path class="cls-3" d="M256.81,166.1h16l23.9,67.54H281.37l-4.45-13.88H252l-4.57,13.88H232.7Zm-.93,42h17.3l-8.53-26.58Z"/><path class="cls-3" d="M305.5,166.1h13.88v27.83l26.1-27.83h18.23L336,193.88l29.13,39.76H347l-20.81-29.48-6.8,6.89v22.59H305.5Z"/></g></g></svg>
