<svg xmlns="http://www.w3.org/2000/svg" viewBox="0 0 1920 1080"><defs><style>.cls-1{fill:#253f5d;}.cls-13,.cls-2{fill:#1c2f46;}.cls-2{stroke:#13202f;stroke-miterlimit:10;stroke-width:2.05px;}.cls-3{fill:#1f2531;}.cls-17,.cls-4{fill:#a5a8ad;}.cls-4{opacity:0.12;}.cls-5{fill:#82868c;}.cls-6{fill:#585e66;}.cls-7{fill:#2e3640;}.cls-8{fill:#32415e;}.cls-9{fill:#43567e;}.cls-10{fill:#192a3e;}.cls-11{fill:#264f7f;}.cls-12{fill:#1f4168;}.cls-14{fill:#517196;}.cls-15{fill:#132840;}.cls-16{fill:#fff;}.cls-17{opacity:0.16;}.cls-18{fill:none;}.cls-19{fill:#333;}.cls-20{fill:#1a1a1a;}.cls-21{fill:#d9b299;}.cls-22{fill:#754c24;}.cls-23{fill:#58391b;}.cls-24{fill:#c69c6d;}.cls-25{fill:#a67c60;}.cls-26{fill:#211106;}.cls-27{fill:#f7f6f5;}.cls-28{fill:#dbdbda;}.cls-29{fill:#a67c52;}</style></defs><title>scene</title><g id="spilside"><rect class="cls-1" x="0.68" y="1" width="1920" height="1080"/><line class="cls-2" x1="501.46" y1="430.58" x2="10" y2="781"/><line class="cls-2" x1="508.98" y1="429.21" x2="1950" y2="709"/><line class="cls-2" x1="502.06" y1="9.5" x2="504.19" y2="423.06"/><path class="cls-3" d="M387.37,414.23s-21.72-34.11-21.72-40.41v-10c0-3.15,8.45-1.58,8.45-1.58s3-24.66,4.22-29.91S385,309.27,385,309.27s3.62,22.57,10.26,34.11,6,26.77,21.11,29.39c0,0,19.3.52,13.27-24.14a22.26,22.26,0,0,0-.91-7.61c-1.21-3.67-22.92-64.54-23.52-70.84s-9.05-10-9.05-10,23.52-3.68,7.24-23.09-16.89-50.9-16.89-50.9l-16.28-26.77-4.23-11S337,120.1,329.16,123.24s-7.23,3.15-10.85,3.15-35-3.15-51.27,27.29c0,0-4.22,55.63-15.68,74.52s4.82,40.93,25.93,40.4l-12.66,9.45-3,60.35,7.24,2.62s-6,56.15,2.41,70.85c0,0-.9,74.68,19,113.62,0,0,0,5-2.48,17.3s6.63,30.28,6.63,30.28.83,51.91,8.28,65.61-3.31,23.08,0,27.4,0,22.35-5.8,28.12-.82,17.3,20.72,10.82c0,0,14.92-5,16.57-11.54,0,0-4.14,11.54,37.29,5.77,0,0,17.41-8.65-6.63-10.1,0,0-2.48-13-9.11-18s.83-14.42.83-14.42,2.48-8.65-4.15-10.1,24.86-62,26.52-75-3.31-23.07-2.48-40.37S400.79,450.77,387.37,414.23Z"/><path class="cls-4" d="M405.43,315.32l-87.84-60.57S388,194.91,432.78,220.87l-4.15,94.45Z"/><path class="cls-5" d="M420.8,321s13.61-28.85,8.28-32.45-28.41,2.06-29.6,4.63-.59,23.7.6,29.88S420.8,321,420.8,321Z"/><path class="cls-6" d="M419.82,319.06s11.55-24.45,7-27.51-24.09,1.75-25.1,3.93-.5,20.09.51,25.33S419.82,319.06,419.82,319.06Z"/><path class="cls-7" d="M411.6,297.61l-5.93,1.74c-.82.17-1.54-.84-1.73-1.56h0a1.35,1.35,0,0,1,1.15-1.61l5.51-1.65c.83-.17,1.55.84,1.74,1.56l.1.36A1,1,0,0,1,411.6,297.61Z"/><path class="cls-3" d="M429.4,348.14s1.23-31.09,3.08-36.46,1.23-13.4,1.23-13.4-10.48-7-13.56-5.9-11.7,4.83-11.7,5.9.92,4,8.93,1.88l8.63,5.36s-11.09-1.07-12.94,0-13.56,8-15.41,13.94S402,327,402,327s.61,3.76,5.54,2.68a15.7,15.7,0,0,0,8-4.82,8.34,8.34,0,0,1,1.23,4.82c0,3.22-2.46,10.73,1.85,12.33C418.61,342,423.85,347.34,429.4,348.14Z"/><path class="cls-3" d="M564.29,256.14s-13.64-18.73-12.92-52.83-.72-48.81-33-58.18-56,18.06-56,18.06-5,26.08.72,34.77c0,0-7.9,18,2.87,26.75s-2.15,36.77-12.2,30.09c0,0,9.33,6,15.79,6.68,0,0-9.33,14-18.66,30.76l-6.46-1.33s-3.59,4-3.59,6.68a23.56,23.56,0,0,1-.72,5.35s-2.87-2-4.31,0-5,9.36-1.43,12c0,0-12.92,12.7-11.48,30.09,0,0-2.16,6,5,6a95.49,95.49,0,0,0,16.51-2s0,8,2.87,8.7,7.18,1.33,7.18,1.33l.71,12.71h0c-.18,2.22-2.58,34.45,6,43.62,0,0-32.4,57.74-33.83,83.1a82.83,82.83,0,0,1-14.7,42.5s7.47,45.64,14.88,57.67S415.79,640,415.79,640l.27.24c-5.25,3.67-11.32,7.28-16.51,8.69a20,20,0,0,1-2,.45c-12.2,2-13,19.63-13,19.63,10.86,6.21,22.62,6.6,30.81,5.66-2.15,3.07-3.24,7.27-2.38,13,0,0,18.6,9.89,52.51,3s54.94-7.51,54.94-7.51l2.95-1.51a5.06,5.06,0,0,0,2.94-5.26l-.3-1.8v0l.08-4.17a3.27,3.27,0,0,0-.68-2,4.13,4.13,0,0,0,1-.77s-3.33-.94-3.34-7.92,4.37-38,5.83-43.75,2.13-52.63-2.33-65.93-8.28-86.21-3.87-100.17c2.21-5.71,14-5.72,14.69-24.74s-8.59-32.43-10.07-35.6C526,386.75,522,378,521.18,373.18l.05,0-.09-.15c-.1-.59-.19-1.1-.27-1.52,0-.2-.27-.37-.64-.51-1.72-4.14-4.58-13.34.28-19.88,6.46-8.69,30.14-35.44,31.58-46.14S555,274.86,555,274.86l-10.05-9.36Z"/><path class="cls-8" d="M497.18,232.4s-2.87-7.36-6.46-7.36-10.05,1.34-10.05,4.68c0,2.68,15.79,4.68,16.51,4.68S497.18,232.4,497.18,232.4Z"/><path class="cls-9" d="M480.67,229.72s6.46-2,8.62-1.33,7.89,4.68,7.89,6S487.85,242.43,480.67,229.72Z"/><path class="cls-9" d="M334.57,184l.77,2.19a.94.94,0,0,0,1.19.59c2.31-.83,6.85-2,9.53-3.77,1.34-.89,4.53-4.18,9.58-4.74s11,.28,2.57-2.49c-6.12-2-12.29,1-15.23,2.85a37.77,37.77,0,0,1-4.25,2.29,20.72,20.72,0,0,0-4,2.25A.76.76,0,0,0,334.57,184Z"/><path class="cls-9" d="M313.74,179.07l-1,1.84a1,1,0,0,1-1.31.36c-2.35-1-8.71-5.94-11.31-6.52a56,56,0,0,0-11.82-1c-5.39.09-12.89-.85-3.76-2.17,6.61-1,13-1.8,16.59-1,2.25.5,6.88,3.2,8.36,4s3.24,2.93,4.1,3.7A.6.6,0,0,1,313.74,179.07Z"/><g id="vindue"><polygon class="cls-10" points="1742.48 490.34 1311.06 425.05 1274 448.87 1274 464.75 1727.48 545.92 1724.83 523.86 1742.48 490.34"/><path class="cls-10" d="M1311.05,425.05c2.65-46.76-9.7-327.31-9.7-327.31L1791,158.61l-48.52,331.73Z"/><polygon class="cls-11" points="1326.93 133.91 1336.64 391.53 1729.24 466.52 1745.12 188.61 1326.93 133.91"/><polygon class="cls-10" points="1730.13 547.68 1753.06 500.93 1745.12 492.1 1727.48 525.63 1730.13 547.68"/><polygon class="cls-12" points="1499.39 164.62 1515.39 434.26 1526 438.86 1523.39 158 1499.39 164.62"/><polygon class="cls-10" points="1495 147 1511 432 1521.61 436.86 1519 140 1495 147"/><polygon class="cls-12" points="1331.71 265.26 1736 338.93 1735.68 388 1329.67 281 1331.71 265.26"/><polygon class="cls-10" points="1325.15 258.26 1749.33 331.93 1749 381 1323 274 1325.15 258.26"/></g><polygon class="cls-10" points="607.45 449.05 596.85 453.85 823.57 497.36 831.07 491.44 607.45 449.05"/><g id="Dør"><polygon class="cls-10" points="616.18 451.1 614.3 86.61 841.43 72.94 822.18 489.39 829.7 490.76 850.21 66.1 606.77 77.72 609.9 448.36 616.18 451.1"/><polygon class="cls-13" points="616.18 451.1 824.91 490.08 841.43 72.94 614.3 86.61 616.18 451.1"/><polygon class="cls-11" points="682.82 263.04 631.39 257.76 636.34 111.92 684.73 113.3 682.82 263.04"/><polygon class="cls-14" points="678.91 257.57 632.75 252.56 637.2 113.97 680.62 115.29 678.91 257.57"/><ellipse class="cls-11" cx="642.56" cy="285.39" rx="7.26" ry="9.86" transform="translate(277.03 885.99) rotate(-82.62)"/><path class="cls-11" d="M672.42,287.66s0,8.89,8.2,6.84,6.84-13,0-13-15,4.1-23.25,3.42-13-4.11-15.73-1.37,3.42,7.52,6.84,7.52S669,284.93,672.42,287.66Z"/></g><g id="ur"><path class="cls-10" d="M161.09,175.73C155.31,152,136,143.49,112.88,149.11S77.36,190.29,83.13,214s27.56,26.65,50.65,21S166.86,199.47,161.09,175.73Z"/><path class="cls-11" d="M154.47,178.84c-4.73-19.42-20.56-26.38-39.45-21.79S86,190.75,90.67,210.18s22.56,21.81,41.46,17.21S159.19,198.26,154.47,178.84Z"/><circle class="cls-15" cx="123.47" cy="193.51" r="1.37"/><path class="cls-10" d="M122.79,190.78h0c-.75,0-1.37-1.3-1.37-2.06l.69-26c0-.75-.07-3.42.68-3.42h0c.75,0,.68.61.68,1.37l.69,28C124.16,190.09,123.54,190.78,122.79,190.78Z"/><path class="cls-10" d="M141.09,208.18,126.64,199c-.47-.3-1.42-1.63-1.11-2.11h0c.3-.48,1.74.07,2.21.37l14.2,9.89c.47.3,2.35,1.57,2.05,2.05h0C143.69,209.72,141.57,208.48,141.09,208.18Z"/></g><path class="cls-3" d="M946.86,208.75,923.08,213l19.6,30,17,293.93s-14.37,32.66-27.43,48.33-19.6,67.93-19.6,67.93-5.22-2.61-7.84,2.62-6.53,18.28-3.92,18.28,9.15-1.3,9.15,6.54-9.15,50.94-11.76,54.86-3.92,2.62-3.92,22.21,9.15,23.52,9.15,23.52L927,783l28.77-3.09L928.31,756.4l-10.45-22.2s2.61-23.52,6.19-39.42,39.53-83.38,47.37-92.53,23.51-56.17,28.74-67.93,20.14-68.48,20.14-68.48-1.85,64.57.76,76.32,0,45.72,0,52.26-1.31,18.29,1.31,31.35.84,28.18.84,28.18l-6.07.56,1.31,7.84c-1.31,13.06,10.45,10.45,10.45,10.45L1038,712l3.92,27.43-6.35,6.4s1.13,11.89-2.19,16,0,13.86,0,13.86l9.85.28h53.56c7.84,0,3.92-14.37-2.61-20.9s-10.46,0-20.91-3.92-5.22-9.15-9.14-17-7.84-1.31-10.45-7.84,1.57-44.7,1.57-44.7,12.8-1,16.72-2.33,2.61-18.29,1.3-22.21-6.53,2.61-4.89-3.17-2.19-35-2.19-35l-15.12-58.51,35.27-135.86,15.67-229.92-23.25,1s-11.75,3.92-23.51,2.62-13.07-5.23-15.68-9.15-1.3-18.29,1.31-19.59S1054,147.35,1054,147.35c14.37-9.14,0-13.06,2.61-13.06s1.31-6.54,0-10.45,2.62-7.84,1.31-7.84-3.92-3.92-3.92-3.92c-1.3-7.84-19.59-28.74-23.51-31.35s-5.23-7.84-6.53-11.76-14.37,0-17,0-18.29,15.67-17,23.51-11.76,27.44-15.68,30.05,0,7.84,1.31,10.45-1.31,6.53,0,9.14,3.92,0,3.92,0c-9.15,13.07,7.84,15.68,7.84,15.68,3.92,7.84,18.29,14.37,18.29,17s0,18.29-9.15,20.9S946.86,208.75,946.86,208.75Z"/><path class="cls-1" d="M1099.38,181.8l1.52-15.15s-10.61-13.64-10.61-15.15-15.15,1.51-16.66-18.18c0,0-1.52-9.09,7.57-7.58,0,0-15.15-27.26-1.51-42.41s24.24-28.79,33.33-28.79c0,0-6.06-4.54-6.06-9.09s9.09,6.06,13.63,6.06c0,0,0-9.09,3-12.12s1.52,12.12,1.52,12.12,0-9.09,13.63-15.15c0,0-1.51,18.18,3,18.18s16.67,0,16.67,3-12.12,4.55-12.12,4.55,21.21,25.75,22.72,31.81-3,28.78-3,28.78,12.12-6.06,9.09,7.58S1161.5,147,1160,147s-7.57,12.12-7.57,12.12l1.51,24.24s9.09,0,16.67,13.64c0,0,13.63,1.51,19.69,18.18,0,0,24.24,16.66,27.27,24.24s3,36.35,4.54,39.38,3,34.85,4.55,37.88,4.54,25.75,3,30.3-21.21,9.09-42.42-1.52c0,0-3,13.64,0,16.67s6.06,13.63,0,25.75,0,43.93,0,43.93,3,24.24,0,28.79-7.58,98.47-10.61,113.62-6.05,51.51-6.05,51.51l-3,107.56s7.57,4.54,7.57,12.12-6.06,6.06-7.57,10.6,3,9.09,3,9.09,9.08,4.55,10.6,7.58,15.15-7.58,16.66,9.09c0,0,3,4.54,1.52,7.57s-42.42,6.06-45.45,3-12.12-4.54-9.09-12.12,5.3-12.88,5.3-12.88-9.09-9.09-7.57-15.15,1.51-22.72,1.51-31.81-9.09-57.57-6.06-81.81-10.6-118.16-9.09-137.86,1.52-36.36,1.52-45.45-16.67,1.52-19.7-4.54-33.32,137.86-42.41,147,6.06,57.57-34.85,133.32c0,0-9.09,13.63-4.54,19.69s-4.55,15.15-4.55,15.15-4.54,3,0,4.54,3,7.58-3,10.61,7.58,12.12-16.66,13.63-54.54-1.51-36.36-16.66c0,0,12.12-4.55,18.18-1.52s12.12-15.15,12.12-15.15l-4.55-16.66s1.52-15.15,10.61-15.15,24.24-150,24.24-150,10.6-140.89,22.72-165.13l3-10.6s-12.12-1.52-10.6-9.09,7.57-13.64,6.06-19.7,7.57-27.27,7.57-27.27l1.52-15.15s-16.67,13.64-31.82,9.09-16.66-12.12-15.15-21.21-4.54-15.14,4.55-24.23c0,0,3-13.64,1.51-18.18s3-15.15,4.55-22.73,9.09-28.78,9.09-28.78,4.54-7.58,27.27-13.64c0,0,1.51-7.57,15.15-12.12C1074.39,200.73,1074.39,187.1,1099.38,181.8Z"/><path class="cls-1" d="M1135.74,162.1l-.51.11a5.65,5.65,0,0,1,0,2.09c0,.2-.1.37-.14.54C1136.9,163.07,1137.39,161.69,1135.74,162.1Z"/><path class="cls-1" d="M1113,165.13a4.79,4.79,0,0,1-1.47-4c-2.76-.32-4.59-.56-4.59-.56a23.14,23.14,0,0,0,4.68,6.25C1112,165.16,1113,165.13,1113,165.13Z"/><path class="cls-1" d="M1135.23,162.21c-4.76.89-17-.3-23.68-1.06a4.79,4.79,0,0,0,1.47,4s-1,0-1.38,1.71c8.59,7.9,19.38,2,23.45-2,0-.17.09-.34.14-.54A5.65,5.65,0,0,0,1135.23,162.21Z"/><path class="cls-3" d="M1103.3,181.8l1.52-15.15s-10.61-13.64-10.61-15.15-15.15,1.51-16.66-18.18c0,0-1.52-9.09,7.57-7.58,0,0-15.15-27.26-1.51-42.41s24.24-28.79,33.33-28.79c0,0-6.06-4.54-6.06-9.09s9.09,6.06,13.63,6.06c0,0,0-9.09,3-12.12s1.52,12.12,1.52,12.12,0-9.09,13.63-15.15c0,0-1.51,18.18,3,18.18s16.66,0,16.66,3-12.11,4.55-12.11,4.55,21.2,25.75,22.72,31.81-3,28.78-3,28.78,12.12-6.06,9.09,7.58S1165.41,147,1163.9,147s-7.58,12.12-7.58,12.12l1.52,24.24s9.09,0,16.66,13.64c0,0,13.64,1.51,19.7,18.18,0,0,24.24,16.66,27.27,24.24s3,36.35,4.54,39.38,3,34.85,4.55,37.88,4.54,25.75,3,30.3-21.21,9.09-42.42-1.52c0,0-3,13.64,0,16.67s6.06,13.63,0,25.75,0,43.93,0,43.93,3,24.24,0,28.79-7.58,98.47-10.61,113.62-6.06,51.51-6.06,51.51l-3,107.56s7.58,4.54,7.58,12.12-6.06,6.06-7.58,10.6,3,9.09,3,9.09,9.09,4.55,10.61,7.58,15.15-7.58,16.66,9.09c0,0,3,4.54,1.52,7.57s-42.42,6.06-45.45,3-12.12-4.54-9.09-12.12,5.3-12.88,5.3-12.88-9.09-9.09-7.57-15.15,1.51-22.72,1.51-31.81-9.09-57.57-6.06-81.81-10.6-118.16-9.09-137.86,1.52-36.36,1.52-45.45-16.67,1.52-19.7-4.54-33.32,137.86-42.41,147,6.06,57.57-34.85,133.32c0,0-9.09,13.63-4.54,19.69s-4.55,15.15-4.55,15.15-4.54,3,0,4.54,3,7.58-3,10.61,7.58,12.12-16.66,13.63-54.54-1.51-36.36-16.66c0,0,12.12-4.55,18.18-1.52s12.12-15.15,12.12-15.15L998,744.6s1.52-15.15,10.61-15.15,24.24-150,24.24-150,10.6-140.89,22.72-165.13l3-10.6s-12.12-1.52-10.6-9.09,7.57-13.64,6.06-19.7,7.57-27.27,7.57-27.27l1.52-15.15s-16.67,13.64-31.82,9.09-16.66-12.12-15.15-21.21-4.54-15.14,4.55-24.23c0,0,3-13.64,1.51-18.18s3-15.15,4.55-22.73,9.09-28.78,9.09-28.78,4.54-7.58,27.27-13.64c0,0,1.51-7.57,15.15-12.12C1078.31,200.73,1078.31,187.1,1103.3,181.8Z"/><path class="cls-9" d="M1139.66,162.1l-.51.11a5.65,5.65,0,0,1,0,2.09c-.05.2-.1.37-.14.54C1140.82,163.07,1141.31,161.69,1139.66,162.1Z"/><path class="cls-9" d="M1116.94,165.13a4.79,4.79,0,0,1-1.47-4c-2.76-.32-4.59-.56-4.59-.56a22.94,22.94,0,0,0,4.68,6.25C1115.92,165.16,1116.94,165.13,1116.94,165.13Z"/><path class="cls-16" d="M1139.15,162.21c-4.77.89-17-.3-23.68-1.06a4.79,4.79,0,0,0,1.47,4s-1,0-1.38,1.71c8.59,7.9,19.38,2,23.45-2,0-.17.09-.34.14-.54A5.65,5.65,0,0,0,1139.15,162.21Z"/><path class="cls-1" d="M843.91,271.35l-14.22,11.06-19,42.66-12.64,25.27s3.16,36.34-1.58,50.56,12.64,15.8,14.22,25.28-1.58,26.86-3.16,39.5-7.9,6.32-7.9,20.54,0,20.54,1.58,25.28,7.9,15.8,14.22,15.8-1.58-15.8,3.16-7.9,7.9,7.9,7.9,1.58-14.22-15.8-7.9-14.22,11.06,9.48,12.64,6.32-4.74-11.06-9.48-14.22-1.58-3.16-1.58-3.16l1.58-15.8s7.9-4.74,6.32-19,3.16-36.34,11.06-44.24,6.32-30,6.32-30c-1.58,17.38,17.38,28.44,17.38,28.44S866,440.4,866,448.3s-14.22,49-14.22,49L847.07,502s3.16,12.64,0,20.54S836,562.05,836,562.05l4.74,14.22a12.55,12.55,0,0,1-11.06,6.32c-7.9,0-1.58,34.76-7.9,39.5s6.32,9.48,6.32,9.48S825,637.89,817.05,649s-4.74,66.35-4.74,66.35-3.16,0-9.48,4.74,3.16,7.9,3.16,7.9,0,9.48-1.58,14.22-3.16,12.64-11.06,12.64-7.9,3.16-11.06,9.48-1.58,12.64,1.58,15.8,22.12-3.16,30-3.16,17.38-3.16,19-6.32,0-9.48-1.58-15.8-1.58-23.7-1.58-23.7c9.48-6.32-1.58-11.06-1.58-11.06-1.58-7.9,11.06-36.33,11.06-36.33,22.12-28.44,20.54-42.66,20.54-42.66,4.74,0,0-15.8,7.9-15.8s3.16-15.8,3.16-15.8c15.8-7.9,9.48-26.86,9.48-26.86,14.22-9.48,50.56-116.91,47.4-86.89s14.22,82.15,14.22,86.89-12.64,14.22-12.64,23.7,4.74,7.9,4.74,14.22l-7.9,14.22s-3.16,15.8-4.74,26.86,11.06,37.92,12.64,45.82-1.58,26.85-6.32,28.43-4.74,14.22-6.32,25.28-1.58,7.9-3.16,14.22,11.06,7.9,17.38,6.32,17.38,6.32,31.59,11.06,33.18-3.16,33.18-3.16c12.64-15.8,1.58-23.7-4.74-23.7s-19,3.16-19,3.16-20.54-7.9-14.22-19-9.47-14.22-9.47-14.22c-4.74-23.7,9.47-85.31,14.21-88.47s-1.58-19,6.32-26.86a21.29,21.29,0,0,0,6.32-17.38s-11.06-9.48-4.74-19,12.64-58.45,20.54-88.47-9.48-69.52-6.32-66.36,17.38,30,14.22,37.92,0,26.86,0,26.86c-7.9,6.32-11.06,14.22-9.48,17.38s17.38-15.8,14.22-9.48-11.85,8.69-11.85,13.43,19,15.79,20.54,14.22,3.16-23.7,3.16-19,1.58,15.8,1.58,20.53,7.9,3.16,7.9-3.15-1.58-44.24-1.58-50.56-9.48-19-9.48-19l-4.74-63.2s15.8-15.8,3.16-23.7-7.9-4.74-3.16-23.69-15.8-55.3-17.38-63.2-23.7-6.32-12.64-22.12S972.67,250,972.67,245.28s-11.06-1.58-11.06-7.9-26.85-14.22-20.53-15.8,7.9-14.22,12.63-12.64,7.9,0,7.9,0c19-3.16,15.8-22.12,9.48-22.12s-7.9-1.58-3.16-4.74,11.06-33.17,15.8-37.91-4.74-12.64-11.06-19,9.48-12.64,3.16-14.22-7.9,0-7.9,0c-3.16-22.12-14.22-9.48-17.37-9.48S949,90.45,947.4,95.19s-3.16,6.32-17.38,9.48-6.32-11.06-12.64-9.48-6.32,17.38-6.32,11.06-12.64-20.54-9.48-9.48-3.16,9.48-12.64,14.22-14.22-1.58-14.22-1.58c9.48,6.32,6.32,22.12,6.32,22.12-9.48,0-14.22-15.8-12.64-6.32s9.48,17.38,9.48,17.38c-1.58,12.64,7.9,30,7.9,30-11.06-3.15-19,4.74-11.06,17.38s19,9.48,19,9.48l-3.16,17.38c-26.86-6.32-22.12,15.8-22.12,15.8s-17.38-1.58-20.54,0,1.58,31.6,1.58,31.6Z"/><path class="cls-3" d="M841.3,270,827.08,281.1l-19,42.66L795.48,349s3.16,36.34-1.58,50.56,12.64,15.79,14.22,25.27-1.58,26.86-3.16,39.5-7.9,6.32-7.9,20.54,0,20.54,1.58,25.28,7.9,15.8,14.22,15.8-1.58-15.8,3.16-7.9,7.9,7.9,7.9,1.58-14.22-15.8-7.9-14.22,11.06,9.48,12.64,6.32-4.74-11.06-9.48-14.22-1.58-3.16-1.58-3.16l1.58-15.8s7.9-4.74,6.32-19,3.16-36.34,11.06-44.24,6.32-30,6.32-30c-1.58,17.38,17.38,28.44,17.38,28.44s3.16,25.27,3.16,33.17-14.22,49-14.22,49l-4.74,4.74s3.16,12.64,0,20.54-11.06,39.5-11.06,39.5L838.14,575a12.55,12.55,0,0,1-11.06,6.32c-7.9,0-1.58,34.75-7.9,39.49s6.32,9.48,6.32,9.48-3.16,6.32-11.06,17.38S809.7,714,809.7,714s-3.16,0-9.48,4.74,3.16,7.9,3.16,7.9,0,9.48-1.58,14.22-3.16,12.64-11.06,12.64-7.9,3.16-11.06,9.48-1.58,12.63,1.58,15.79,22.12-3.16,30-3.16,17.38-3.15,19-6.31,0-9.48-1.58-15.8-1.58-23.7-1.58-23.7c9.48-6.32-1.58-11.06-1.58-11.06-1.58-7.9,11.06-36.34,11.06-36.34,22.12-28.44,20.54-42.66,20.54-42.66,4.74,0,0-15.8,7.9-15.8s3.16-15.8,3.16-15.8c15.8-7.9,9.48-26.85,9.48-26.85,14.22-9.48,50.55-116.92,47.39-86.9s14.22,82.16,14.22,86.9S926.61,595.5,926.61,605s4.74,7.9,4.74,14.22l-7.9,14.22s-3.16,15.8-4.74,26.86,11.06,37.92,12.64,45.82S929.77,733,925,734.54s-4.74,14.22-6.32,25.28-1.58,7.9-3.16,14.22,11.06,7.89,17.38,6.31,17.38,6.32,31.6,11.06,33.18-3.16,33.18-3.16c12.64-15.79,1.58-23.69-4.74-23.69s-19,3.16-19,3.16-20.54-7.9-14.22-19-9.48-14.22-9.48-14.22c-4.74-23.7,9.48-85.32,14.22-88.48s-1.58-19,6.32-26.86a21.29,21.29,0,0,0,6.32-17.38s-11.06-9.47-4.74-19,12.64-58.46,20.54-88.48-9.48-69.52-6.32-66.36,17.38,30,14.22,37.92,0,26.86,0,26.86c-7.9,6.32-11.06,14.22-9.48,17.38s17.38-15.8,14.22-9.48-11.85,8.69-11.85,13.43,19,15.8,20.54,14.22,3.16-23.7,3.16-19,1.58,15.8,1.58,20.54,7.9,3.16,7.9-3.16-1.58-44.24-1.58-50.56-9.48-19-9.48-19l-4.74-63.19s15.8-15.8,3.16-23.7-7.9-4.74-3.16-23.7-15.8-55.3-17.38-63.2-23.7-6.32-12.64-22.12S970.06,248.71,970.06,244,959,242.39,959,236.07s-26.86-14.21-20.54-15.79,7.9-14.22,12.64-12.64,7.9,0,7.9,0c19-3.16,15.8-22.12,9.48-22.12s-7.9-1.58-3.16-4.74,11.06-33.18,15.8-37.92-4.74-12.64-11.06-19,9.48-12.64,3.16-14.22-7.9,0-7.9,0c-3.16-22.12-14.22-9.48-17.38-9.48s-1.58-11.06-3.16-6.32-3.16,6.32-17.38,9.48-6.32-11.06-12.64-9.48-6.32,17.38-6.32,11.06S895.81,84.4,899,95.46s-3.16,9.48-12.64,14.22-14.22-1.58-14.22-1.58c9.48,6.32,6.32,22.12,6.32,22.12-9.48,0-14.22-15.8-12.64-6.32s9.48,17.38,9.48,17.38c-1.58,12.64,7.9,30,7.9,30-11.06-3.16-19,4.74-11.06,17.38s19,9.48,19,9.48l-3.16,17.38c-26.86-6.32-22.12,15.8-22.12,15.8s-17.38-1.58-20.54,0,1.58,31.59,1.58,31.59Z"/><path class="cls-17" d="M1113.17,288.06,1077,211s73.39-33.55,110,3l-51.4,80Z"/><path class="cls-5" d="M1132.94,315.72a3.65,3.65,0,0,0,3-2.84c2.37-9,9.91-39,5.91-42.59-4.71-4.26-25.12-1.82-26.17,1.22s-.52,32.23.52,39.53C1117,316.71,1128,316.22,1132.94,315.72Z"/><path class="cls-6" d="M1131.84,313.3a3.61,3.61,0,0,0,3.27-2.9c2.12-8.46,8.08-33.54,4.77-36.54-4-3.61-21.31-2.19-22.19.38s-.45,28,.44,34.18C1118.79,313,1127.43,313.4,1131.84,313.3Z"/><path class="cls-7" d="M1126.18,277.49l-5.49.73c-.75,0-1.16-1.3-1.17-2.17h0a1.49,1.49,0,0,1,1.34-1.61l5.12-.73c.75,0,1.15,1.31,1.16,2.18v.44A1.07,1.07,0,0,1,1126.18,277.49Z"/><path class="cls-3" d="M1109,284s1.44-7.25,8.22-6.94,16.78,1.41,11.78,4.73-9.68,1.91-12.34,2.06-2.23,8.64-2.23,8.64,8.57,1.46,12.57,4.77,8,7.74,5,8.85l-3,1.11s1-2.22-13,2.21-23.34,17-23.34,17l.34-38Z"/><path class="cls-3" d="M1147.66,286.35s-1.44-8-8.22-7.62-16.78,1.55-11.78,5.19,9.68,2.1,12.34,2.27,2.23,9.5,2.23,9.5-8.57,1.6-12.57,5.25-8,8.51-5,9.72l3,1.22s-1-2.43,13,2.43S1164,333,1164,333l-.34-41.78Z"/><path class="cls-18" d="M143.81,586.5l0,0c-.21-.4-.42-.81-.62-1.23Z"/><path class="cls-18" d="M142,582.45s.2.49.58,1.34C142.38,583.35,142.18,582.91,142,582.45Z"/><path class="cls-18" d="M383.4,805.27c11.5-10.17,21.18-22.27,24.94-30.37C403.52,782.19,394.52,794.75,383.4,805.27Z"/><path class="cls-19" d="M315.48,990.59A92.24,92.24,0,0,1,312,978.16c1.23,4.29,2.4,8.42,3.53,12.43,9.73,27.32,29.32,47.64,27.82,89.41h45.85a45.18,45.18,0,0,0,5.24-14.14c.84-85.43,48.27-156.46,48.27-156.46-24.21,41-43.71,130.89-46.92,170.57v0H520.41c-6.25-60.37-17.35-95.36,4.64-121.64-22.54,34.82-1.06,79.47-1,121.64h23.82c3.87-31.62-20.11-73.58-14.55-98.78,6.55-29.66,31.52-97.71-31.12-151.7-34.3-38.23-55.57-36.44-76.95-22.5a21.62,21.62,0,0,0,2.58,4.62c1.07-.35,2-.62,2.52-.79,46.64-14.08-23.18,75.47-43.71,87.8-38.21,28.74-48.84-5.27-29.5-23.31.41-.38,4.23-4.3,7.09-7.14a74.06,74.06,0,0,0-4.37-12.43c-26.61,16.9-37.41,19.1-55.56,41.74-26.11,30.92-10.52,97.6-14.74,124.53-1.52,18.21-5.54,37.3-9.95,58H334.2C332.91,1057.68,326.86,1031.14,315.48,990.59Z"/><path class="cls-20" d="M315.48,990.59c11.38,40.55,17.43,67.09,18.72,89.41h9.1C344.8,1038.23,325.21,1017.91,315.48,990.59Z"/><path class="cls-20" d="M315.48,990.59c-1.13-4-2.3-8.14-3.53-12.43A92.24,92.24,0,0,0,315.48,990.59Z"/><path class="cls-20" d="M442.66,909.4s-47.43,71-48.27,156.46a45.18,45.18,0,0,1-5.24,14.14h6.58v0C399,1040.29,418.45,950.4,442.66,909.4Z"/><path class="cls-20" d="M525.05,958.36c-22,26.28-10.89,61.27-4.64,121.64H524C524,1037.83,502.51,993.18,525.05,958.36Z"/><path class="cls-21" d="M408.34,774.9a22.59,22.59,0,0,0,1.32-3.54c-9.11-22.45-13.59-46.05-15.58-59.39,11.89,12.73,23.48,11.72,39.47-5.35,14.81-15.83,15.37-66.73-10.85-79-20-9.35-32.83,15.62-37.74,27.89.46-1.49.88-3,1.24-4.44-.74,1.53-1.17,2.49-1.17,2.49,3.27-18.64-57-94.89-70.12-111.24-15,6.89-32.67,14.78-46.81,20.76,0,0-31.9-11-43.59-35.52,0,0-2.33,49,13.48,50.44,0,0-16.09,11-30.42,19.23-.79.45-1.58.87-2.39,1.26L179.53,611s-23.88-1.44-35.69-24.58l0,0c3.87,8.3,13.2,26.69,20.95,28.71,0,0-11.95,13-18.6,12.57-5.67-.34-10.37-7.26-11.17-10.82-.14,3.54-.09,11.36,4.68,14.48,2.89,1.9-2,5-7.29,7.6,1.7,10.7,5.94,18.81,9.51,24.87.66-5.08.91-5.55,3.84-10.68,3.21-5.62,17.49-7.87,19.08-8.59s23-4.09,23.8-2.35,2.32,9.4,2.32,9.4c1.59-.72-.73-10.12-.73-10.12,2.37,1,4.69,10.42,4.69,10.42.81-2.45-1.51-11.85-1.51-11.85a25,25,0,0,1,3.86,17.06c-3.18,1.44-34.93,7.37-42.88,10.95-5.14,2.31-4.67,8.21-4.13,12.28C158,694,178,717.31,178,717.31c-.79,10.13,1.07,44.2,8.27,54.05,14.13,19.34,25.2,35,35.21,47.8a81,81,0,0,0,29.87,24c25.19,11.52,39,1.73,39,1.73,24.78-14.34,43-29.51,56.52-44.32,4.91,3.76,6.72,12,6.63,22.28a39.12,39.12,0,0,0,4.56-1.17c8.41-3.18,23.92-.6,32-7.71C401.12,803.48,403.52,782.19,408.34,774.9ZM285.9,570.26c-9.56-2.39-28.67,2.39-28.67,2.39C271.56,560.7,295.46,572.65,285.9,570.26ZM217.3,708a43.86,43.86,0,0,0,2.48-14.85,18.38,18.38,0,0,1-2.36,6.33,17.23,17.23,0,0,1-2.41,3.79c1.05-.1,1.48.25,1,1.23-7.78,6.66-26.77,16.48-32.15,11.18a28,28,0,0,0,6.41-2.1c-6.35-.85-12.51-8.18-13.74-16.43-1.68,1.3-4,2.72-4.85,1.73-1.47-1.65,4-18.42,16.85-26.94S213,673.21,213,673.21a2.14,2.14,0,0,1,.33.58,16.87,16.87,0,0,1,2.39,2.39,53.93,53.93,0,0,0-16.82-19.57L198,656s.31.19.84.57c18.88,12.71,31.92,28.3,18.53,59.33-12.94,30,12,39.13,14.39,39.93l.18.06-.18-.06C214.56,750.49,206.11,740.75,217.3,708Zm32.31,29.86c13.56-1.9,15.69,1,10.83,3.3s-8.48,1.18-8.7-.39l-.22-1.57s-10.39-.15-6.12,5.67C245.4,744.87,236.05,739.76,249.61,737.86Zm7.73,59.24c-5.15-14.28-14.5-19.16-7.67-21.62s24.94-1.21,30.08,13.07S268.82,814.3,262,816.76,262.48,811.37,257.34,797.1Zm10.76-81.62c22.19,16,2.3,31.28,2.3,31.28C284.7,733,268.1,715.48,268.1,715.48Zm1.8,108.23c1.43-4.64,9.91-7.1,13.91-8a1.66,1.66,0,0,1,2,1.78C284.42,830.36,268.1,829.51,269.9,823.71Zm50.51-163c-8.22,11.63-41.5,24.5-50.53,13.27a38.49,38.49,0,0,0,7.16-1.38c-1.36-.24-2.14-.45-2.14-.45-15.86-11.27-17.59-23.92-12.81-34.07-1,.91-2,1.89-3,3a.92.92,0,0,1-1.54-.93c2.34-7.44,11.24-24.22,43.79-24.07,29.24.14,21.32,4,9.79,6.83,7,3.84,11.3,10.13,10.79,17.9.59,7.77-2.14,14.27-6.74,18-.66,1-1.34,1.87-2.05,2.71C316.58,660.67,319.2,660.32,320.41,660.76Zm-2.6-67.82c-17.62-5.18-37.77-5.06-47.28.11-9.7,5.28-38.72,39.15-38.72,39.15-11.42-7.17-16.54-19.6-14.57-17,2.51,3.31,17,11.95,12.77,7.82-3.33-3.26-9.81-16.35-7.2-11.77,1.91,3.35,6.34,6.82,8.77,8.65-2.49-3.29-5.26-11.94-5.26-11.94s12.41-20,40.71-31.22S335.42,598.12,317.81,592.94Z"/><path class="cls-20" d="M433.37,815.51a3.45,3.45,0,0,1,2.38,4.65c-7.18,17.58-38.11,55.44-63.88,78.08a5.37,5.37,0,0,1-8.91-4.35c.43-6.69,1.47-12.26,1.94-15.58a25.51,25.51,0,0,0-.72-10.11c-2.86,2.84-6.68,6.76-7.09,7.14-19.34,18-8.71,52,29.5,23.31,20.53-12.33,90.35-101.88,43.71-87.8-.56.17-1.45.44-2.52.79A9.88,9.88,0,0,0,433.37,815.51Z"/><path class="cls-16" d="M364.9,878.31c-.47,3.32-1.51,8.89-1.94,15.58a5.37,5.37,0,0,0,8.91,4.35c25.77-22.64,56.7-60.5,63.88-78.08a3.45,3.45,0,0,0-2.38-4.65,9.88,9.88,0,0,1-5.59-3.87A21.62,21.62,0,0,1,425.2,807c-5.79-13.82-4.49-39.24-11.73-40.06a3.31,3.31,0,0,0-3.51,3,13.28,13.28,0,0,1-.3,1.44,22.59,22.59,0,0,1-1.32,3.54c-3.76,8.1-13.44,20.2-24.94,30.37-8,7.1-16.95,13.26-25.36,16.44l-.07,0c-6.34,2.28-9,2-9.35.73a3.1,3.1,0,0,0-4.22-1.85c-2.27,1-3.75,2.43-2.78,4.67a161.86,161.86,0,0,1,18.19,30.49,74.06,74.06,0,0,1,4.37,12.43A25.51,25.51,0,0,1,364.9,878.31Z"/><path class="cls-22" d="M339.4,506.58s12.27,17.95,7.4,20.7c-2.53,1.43-15.7,7.67-31.89,15.08C328,558.71,388.3,635,385,653.6c0,0,.43-1,1.17-2.49,3-6.11,11.11-21.54,17.81-23.21,5.3-1.32-11.17-68.54-27.36-97.82a96.52,96.52,0,0,0-11.37-16.53c-4.77,3.34-9.93,6.84-12.87,8.49C352.41,522,347.82,510.12,339.4,506.58Z"/><path class="cls-23" d="M154.36,668.15c7.95-3.58,39.7-9.51,42.88-10.95a25,25,0,0,0-3.86-17.06s2.32,9.4,1.51,11.85c0,0-2.32-9.4-4.69-10.42,0,0,2.32,9.4.73,10.12,0,0-1.54-7.67-2.32-9.4s-22.21,1.64-23.8,2.35-15.87,3-19.08,8.59c-2.93,5.13-3.18,5.6-3.84,10.68-.06.49-.13,1-.2,1.59-.84,6.64,7,19.82,8.6,19.1.56-.25.24-1.94-.06-4.17C149.69,676.36,149.22,670.46,154.36,668.15Z"/><path class="cls-24" d="M217.41,715.94c13.39-31,.35-46.62-18.53-59.33a53.93,53.93,0,0,1,16.82,19.57,19.8,19.8,0,0,1,4.4,11.22,23.49,23.49,0,0,1-.32,5.75A43.86,43.86,0,0,1,217.3,708c-11.19,32.75-2.74,42.49,14.5,47.87C229.41,755.07,204.47,746,217.41,715.94Z"/><path class="cls-24" d="M198.88,656.61c-.53-.38-.84-.57-.84-.57Z"/><path class="cls-24" d="M231.8,755.87l.18.06Z"/><path class="cls-24" d="M268.1,715.48s16.6,17.53,2.3,31.28C270.4,746.76,290.29,731.53,268.1,715.48Z"/><path class="cls-25" d="M251.52,739.2l.22,1.57c.22,1.57,3.83,2.67,8.7.39s2.73-5.2-10.83-3.3-4.21,7-4.21,7C241.13,739.05,251.52,739.2,251.52,739.2Z"/><path class="cls-23" d="M139.67,631.44c-4.77-3.12-4.82-10.94-4.68-14.48.8,3.56,5.5,10.48,11.17,10.82,6.65.39,18.6-12.57,18.6-12.57-7.75-2-17.08-20.41-20.95-28.71l-.59-1.28c.2.42.41.83.62,1.23C155.65,609.59,179.53,611,179.53,611l25.65-12.5c.81-.39,1.6-.81,2.39-1.26C221.9,589.08,238,578,238,578c-15.81-1.45-13.48-50.44-13.48-50.44,11.69,24.5,43.59,35.52,43.59,35.52,14.14-6,31.78-13.87,46.81-20.76,16.19-7.41,29.36-13.65,31.89-15.08,4.87-2.75-7.4-20.7-7.4-20.7,8.42,3.54,13,15.46,13,15.46,2.94-1.65,8.1-5.15,12.87-8.49,5.78-4,11-7.85,11-7.85,10.57-17.14-11.81-60.94-91.41-61.63-70.4-.61-104.39,28.28-111.32,35-3.23-8.4-7.44-19.73-8.32-24-1.48-7.13,4.72-20.31,4.72-20.31-6.86-.82-14.14,21.51-14.68,26.08-.34,2.86,8.4,13.14,15,20.44-22.83,9.32-43.3-8.87-75.86,70-33.47,81.08,28.27,91.84,28.27,91.84s5-1.79,9.69-4.05C137.65,636.49,142.56,633.34,139.67,631.44Zm2.91-47.65c-.38-.85-.58-1.34-.58-1.34C142.18,582.91,142.38,583.35,142.58,583.79Z"/><path class="cls-23" d="M267,576.75C238.73,588,226.32,608,226.32,608s2.77,8.65,5.26,11.94c-2.43-1.83-6.86-5.3-8.77-8.65-2.61-4.58,3.87,8.51,7.2,11.77,4.21,4.13-10.26-4.51-12.77-7.82-2-2.61,3.15,9.82,14.57,17,0,0,29-33.87,38.72-39.15,9.51-5.17,29.66-5.29,47.28-.11S295.32,565.5,267,576.75Z"/><path class="cls-26" d="M289.22,619c8.43-.74,16.11.76,21.91,3.93,11.53-2.87,19.45-6.69-9.79-6.83-32.55-.15-41.45,16.63-43.79,24.07a.92.92,0,0,0,1.54.93c1-1.06,2-2,3-3C267,627.69,278.82,619.89,289.22,619Z"/><path d="M277,672.65a38.49,38.49,0,0,1-7.16,1.38c9,11.23,42.31-1.64,50.53-13.27-1.21-.44-3.83-.09-7.28.75C301.45,675.45,283.22,673.72,277,672.65Z"/><path d="M193.57,713.43a8.63,8.63,0,0,1-3.28.15,28,28,0,0,1-6.41,2.1c5.38,5.3,24.37-4.52,32.15-11.18.46-1,0-1.33-1-1.23C209.37,710.05,199.42,712,193.57,713.43Z"/><path class="cls-27" d="M308.24,662c-8.34,1.41-16-8.09-16.87-19.27s3.49-20.94,11.93-21.48,17.74,8.35,18.62,19.53v.08c.51-7.77-3.76-14.06-10.79-17.9-5.8-3.17-13.48-4.67-21.91-3.93-10.4.91-22.22,8.71-27.13,19.15-4.78,10.15-3,22.8,12.81,34.07,0,0,.78.21,2.14.45,6.18,1.07,24.41,2.8,36.09-11.14.71-.84,1.39-1.75,2.05-2.71A15,15,0,0,1,308.24,662Z"/><path class="cls-26" d="M303.3,621.2c-8.44.54-12.81,10.3-11.93,21.48s8.53,20.68,16.87,19.27a15,15,0,0,0,6.94-3.15c4.6-3.72,7.33-10.22,6.74-18v-.08C321,629.55,311.73,620.66,303.3,621.2ZM306.4,636c-1.6,3.46-1.67,6.8-3.44,6.73s-3.09-3.19-3-7,1.68-6.79,3.44-6.72C308.25,629.25,308.14,632.3,306.4,636Z"/><path class="cls-28" d="M303.44,629.07c-1.76-.07-3.31,2.94-3.44,6.72s1.19,6.91,3,7,1.84-3.27,3.44-6.73C308.14,632.3,308.25,629.25,303.44,629.07Z"/><path class="cls-27" d="M209.46,705.26c-6.43,1.23-12.26-6.69-12.88-16.06-.58-8.75,2.37-16.48,8-17.87-7.62-1.51-17.61.12-25.82,13.78a17.9,17.9,0,0,0-2.25,12c1.23,8.25,7.39,15.58,13.74,16.43a8.63,8.63,0,0,0,3.28-.15c5.85-1.46,15.8-3.38,21.44-10.16a17.23,17.23,0,0,0,2.41-3.79A12.13,12.13,0,0,1,209.46,705.26Z"/><path class="cls-26" d="M220.1,687.4a19.8,19.8,0,0,0-4.4-11.22,16.87,16.87,0,0,0-2.39-2.39,2.14,2.14,0,0,0-.33-.58s-11.58-9.79-24.43-1.27-18.32,25.29-16.85,26.94c.89,1,3.17-.43,4.85-1.73a17.9,17.9,0,0,1,2.25-12c8.21-13.66,18.2-15.29,25.82-13.78-5.67,1.39-8.62,9.12-8,17.87.62,9.37,6.45,17.29,12.88,16.06a12.13,12.13,0,0,0,8-5.78,18.38,18.38,0,0,0,2.36-6.33A23.49,23.49,0,0,0,220.1,687.4Zm-11.91-3.85c-1.26,2.91-1.33,5.71-2.69,5.66s-2.36-2.66-2.24-5.83,1.32-5.71,2.68-5.66C209.64,677.85,209.54,680.4,208.19,683.55Z"/><path class="cls-28" d="M205.94,677.72c-1.36-.05-2.56,2.48-2.68,5.66s.88,5.78,2.24,5.83,1.43-2.75,2.69-5.66C209.54,680.4,209.64,677.85,205.94,677.72Z"/><path class="cls-29" d="M279.75,788.55c-5.14-14.28-23.25-15.53-30.08-13.07s2.52,7.34,7.67,21.62-2.18,22.12,4.65,19.66S284.9,802.83,279.75,788.55Z"/><path class="cls-25" d="M283.81,815.69c-4,.92-12.48,3.38-13.91,8-1.8,5.8,14.52,6.65,15.91-6.24A1.66,1.66,0,0,0,283.81,815.69Z"/><path class="cls-29" d="M285.9,570.26c9.56,2.39-14.34-9.56-28.67,2.39C257.23,572.65,276.34,567.87,285.9,570.26Z"/></g><g id="spilskærm"><path class="cls-3" d="M1767.63,205.58s2.56-24.93,2.56-30.86c0,0-25.6-13.06-23-26.11s-7.68,0-3.84,8.3c0,0-11.52-8.3,9-24.92s20.48-23.74,34.56-23.74,15.36-14.24,33.29-10.68,28.16,0,28.16,0-9,10.68-14.08,11.87,17.92-3.56,39.68,24.92c0,0,6.4,17.81-3.84,22.55s-17.92,1.19-17.92,9.5,5.12,11.87,7.68,14.24a7.12,7.12,0,0,1,2.56,4.75s-3.84,4.75-9,4.75-2.56,9.49-2.56,9.49l-3.84,1.19s3.84,1.19,2.56,3.56-1.28,0-1.28,2.37,6.4,13.06-3.84,14.25-28.16-8.31-28.16-8.31-5.13,11.87-3.85,14.24,29.45,7.12,34.57,20.18l-14.08,15.43s17.92,16.61,25.6,51,11.52,42.73,16.64,49.85,26.88,7.12,19.2,51S1870,463.13,1870,463.13l-1.28,23.73-5.12,1.19s17.92,57,12.8,110.38c0,0-5.12,4.75-10.24,5.93,0,0,2.56,57-16.64,91.39,0,0-6.4,23.74-2.56,34.42s-9,21.36-9,21.36-10.24,116.32-6.4,130.56c0,0,20.48-9.5,16.64,16.61s43.52,23.74,43.52,23.74,7.68,8.31,3.84,19-26.88,13.06-37.12,14.24-26.88,10.69-26.88,10.69-30.73,5.93-38.41-4.75-3.84-30.86-3.84-30.86S1730.51,964,1710,943.81c0,0,1.28-21.37-1.28-38S1719,883.28,1719,883.28s-9-86.65-9-91.39-9-38,9-68.84,23-74.77,23-91.39-1.28-22.55-1.28-22.55l-14.08-1.19s12.8-93.76,16.64-99.69a24.11,24.11,0,0,0,3.84-11.87l-10.24,1.18,1.28-13.05s-17.92,4.75-16.64-34.42c0,0-26.88-4.75-23-38s21.76-148.36,21.76-148.36,32-24.92,33.28-33.23,5.12-26.11,5.12-26.11Z"/></g></svg>
