<svg xmlns="http://www.w3.org/2000/svg" viewBox="0 0 1920 1080"><defs><style>.cls-1{fill:#253f5d;}.cls-2,.cls-3{fill:#a5a8ad;}.cls-2{opacity:0.35;}.cls-3{opacity:0.5;}.cls-4{fill:#13202f;}</style></defs><title>spilside</title><g id="spilskærm"><rect class="cls-1" y="0.97" width="1919.01" height="1079.01"/><path d="M1918.51,1.46v1078H.49V1.46h1918m1-1H-.5v1080h1920V.47Z"/><path class="cls-2" d="M1515,1H1341.81c-69.62,342-198.36,968.49-207.56,971.69-12.65,4.39,235.14,171.93,583.6,42.42C1738.58,957.82,1600,356.72,1515,1Zm-86.33,1043.19c-146.34-7.76-274.17-46.33-272.45-78.58s133.24-28.7,279.58-20.94,274.35,14.58,272.62,46.83S1575,1052,1428.62,1044.19Z"/><path class="cls-2" d="M1435.75,944.67c-146.34-7.76-277.85-11.31-279.58,20.94s126.11,70.82,272.45,78.58,278-20.44,279.75-52.69S1582.09,952.44,1435.75,944.67Z"/><path class="cls-3" d="M1435.75,944.67c-146.34-7.76-277.85-11.31-279.58,20.94s126.11,70.82,272.45,78.58,278-20.44,279.75-52.69S1582.09,952.44,1435.75,944.67Z"/><rect class="cls-4" x="68.9" y="65" width="896.7" height="290.34" rx="29.84"/></g></svg>
