<svg xmlns="http://www.w3.org/2000/svg" viewBox="0 0 200 200"><defs><style>.cls-1{fill:#13202f;}.cls-2{fill:#f28627;}.cls-3{fill:#fff;}</style></defs><title>spiligen_knap</title><g id="Game_over" data-name="Game over"><circle class="cls-1" cx="100.5" cy="99" r="94.99"/><path class="cls-2" d="M126.26,33.12,85,24.18A13.79,13.79,0,0,0,68.83,41.66L80.76,81a13.79,13.79,0,0,0,23.11,5.59l29.38-30.38A13.79,13.79,0,0,0,126.26,33.12Z"/><path class="cls-2" d="M96.43,66.11s-55.07,2.48-40.91,44.73c6,17.94,26.33,34.42,44.42,37.24,28.74,4.47,58.43-15.16,49.53-48.84a16.24,16.24,0,0,1-.64-4.61c.29-9.77,10.48-6.27,12.55,1.83,2,7.92,17.32,85.25-71.22,71.29C59.34,162.89,38.05,133,36.79,101.86c-1.11-27.25,13.51-54.93,64.79-59Z"/><path class="cls-3" d="M91.21,62.91S36.14,65.39,50.3,107.64c6,17.94,26.33,34.42,44.42,37.24,28.74,4.47,58.43-15.16,49.52-48.84a16.24,16.24,0,0,1-.63-4.61c.28-9.77,10.48-6.27,12.55,1.83,2,7.92,17.32,85.25-71.23,71.29-30.81-4.86-52.1-34.72-53.37-65.89-1.1-27.25,13.52-54.93,64.8-59Z"/><path class="cls-3" d="M122.59,32.29,83.36,23.14a13.26,13.26,0,0,0-15.7,16.77L79.35,78.45a13.26,13.26,0,0,0,22.37,5.22l27.53-29.39A13.27,13.27,0,0,0,122.59,32.29Z"/></g></svg>
