<svg xmlns="http://www.w3.org/2000/svg" viewBox="0 0 1920 1080"><defs><style>.cls-1{fill:#253f5d;}.cls-2{fill:#192a3e;}.cls-3{fill:#ccc;}.cls-21,.cls-22,.cls-25,.cls-28,.cls-34,.cls-4,.cls-5{fill:#d9b299;}.cls-21,.cls-22,.cls-25,.cls-28,.cls-4,.cls-5{stroke:#c69c6d;}.cls-18,.cls-20,.cls-21,.cls-22,.cls-25,.cls-28,.cls-31,.cls-4,.cls-5{stroke-miterlimit:10;}.cls-4{stroke-width:1.09px;}.cls-5{stroke-width:1.03px;}.cls-6{fill:#754c24;}.cls-7{fill:#58391b;}.cls-8{fill:#c69c6d;}.cls-9{fill:#a67c60;}.cls-10{fill:#a67c52;}.cls-11{fill:#211106;}.cls-12,.cls-20{fill:#fff;}.cls-13{fill:#dbdbda;}.cls-14{fill:#3b462b;}.cls-15{fill:#dddadc;}.cls-16{fill:#a3b0ba;}.cls-17{fill:#586940;}.cls-18,.cls-26{fill:#333;}.cls-18{stroke:#1a1a1a;stroke-width:1.33px;}.cls-19{fill:#1a1a1a;}.cls-20{stroke:#e6e6e6;stroke-width:0.66px;}.cls-21{stroke-width:0.78px;}.cls-22{stroke-width:0.86px;}.cls-23{fill:#2d3c60;}.cls-24{fill:#425d8e;}.cls-25{stroke-width:0.78px;}.cls-27{fill:#70583d;}.cls-28,.cls-31{stroke-width:0.65px;}.cls-29{fill:#957551;}.cls-30{fill:#a38573;}.cls-31{stroke:#000;}.cls-32{fill:#e1c1ad;}.cls-33{fill:#a78b55;}.cls-35{fill:#904747;}.cls-36{fill:#cc7f7f;}.cls-37{fill:#f28627;}.cls-38{fill:#13202f;}.cls-39{fill:#f2f2f2;}</style></defs><title>Startside</title><g id="Baggrund"><rect class="cls-1" width="1920" height="1080"/></g><g id="indhold_startside" data-name="indhold startside"><g id="emil"><ellipse class="cls-2" cx="1649" cy="967" rx="183" ry="75"/><path class="cls-3" d="M1598.33,284.76l-2.06,3.31a.78.78,0,0,1-1.38-.13l-1.37-3.43a.93.93,0,0,1,0-.29V282.3a.57.57,0,0,1,.82-.51l3.73,1.87A.76.76,0,0,1,1598.33,284.76Z"/><g id="emilshoved"><path class="cls-4" d="M1594,285.07c-1.77-6.74-1.76-12.3,1.5-15,12.47-10.3,2-31.74,2-31.74l-19.82-12.27-24.75-6.62s3.57,22.27.37,44.32C1559.13,269.27,1578.25,286.06,1594,285.07Z"/><path class="cls-4" d="M1554.53,221.56s20.5,49.26,70.25,67.94c12.22,6,64.55-46.16,51.49-100.07,0,0,5.34-16,9.56-19.44s-10.42-69.27-36.12-85.65-78.45-28.41-108.88,0-18.93,70.45-18.93,70.45,7.66,28,21.1,37.25c0,0-37.44-10.46-15.17,28.93C1534.88,233.79,1554.4,231.91,1554.53,221.56Z"/><path id="indre_øre" data-name="indre øre" class="cls-5" d="M1528.32,206.13s1.35-20.54,18.56,1.2c0,0-11.64,8.27,2.61,10.62"/><path class="cls-6" d="M1556.8,129.46s-13.59,54.45-8.84,64.06c0,0-9.92-2.87-14.27-2.69-2.76.11-25.32-47.43-21.63-63.92s20-18.22,20-18.22Z"/><path class="cls-7" d="M1628.21,139.05l16.56-1.7a27.89,27.89,0,0,0,9.82-26.53s3,19.48-1.21,24c0,0,9.91,2.87,13.09.56s2.91-8.83,1.78-9.87,4.56,5.26,2.57,9.7c-1.62,3.57,12,.6,12,.6s27.29-25-14.24-56-45.18-13.42-60.36-11.72c0,0-30-14-69.22,11.5s-36.88,55.08-26.36,60.53c0,0,12.51,1,16.86.83,0,0-1.39-7.57,1.69-12,0,0-.56,13.09,2.7,13s33.83,1.9,52.22-1c0,0,12.43-15.74,10.69-32,0,0,16.23,24.38,8.84,30.13,0,0,11.37.57,21,.23C1627.16,139.15,1627.68,139.11,1628.21,139.05Z"/><path class="cls-7" d="M1607.22,70.27S1618.78,60,1618.7,57.83s-2.7-13-6-12.83c0,0,2.44,6.44,1.49,9.74S1607.22,70.27,1607.22,70.27Z"/><path class="cls-7" d="M1651.17,159.57s-1.35-5.72-.28-6.91c0,0,1.35,5.71,2.46,5.67a50.48,50.48,0,0,1-1.34-5.72c0-1.15,13.17-5.14,14.29-5.19s9.93-2.7,13.36-.54,3.44,2.17,5.81,5.54,1.62,12.62.51,12.66-1.44-8-7-7.79-25.43,5.64-27.66,5.73a14.5,14.5,0,0,1-2.65-10.27s1.35,5.71,2.51,6.82"/><path class="cls-7" d="M1619.26,166.14s-20.36-5.17-25.83-6-18,.18-25.35,5.92,5.82-17.66,21.08-17.18a129.55,129.55,0,0,1,28.48,4.29s.27,6.52-.78,7.65,2.49-3.43,3-6.65c.43-2.74-.35,4.91-1.34,7.13-1.27,2.81,4-4.08,4.65-6.18C1623.64,153.44,1623.39,160.53,1619.26,166.14Z"/><g id="næse"><path class="cls-8" d="M1649.69,164.91s-15.42,22.4-3.9,38.27,8.53,22.52.06,28.31c0,0,13.78-9.27,1.21-24S1641.39,175.05,1649.69,164.91Z"/><path class="cls-8" d="M1623.59,232.93s-13.27-4.91-4-17.26C1619.62,215.67,1613.58,227.89,1623.59,232.93Z"/><path class="cls-9" d="M1636.76,227.75s4.2-4.31-3.43-3.08-8.31,3.15-5.3,3.58,4.77-.77,4.63-1.66l-.14-.88S1638.1,223.9,1636.76,227.75Z"/></g><g id="mund"><path class="cls-10" d="M1613.47,252s10,3.76,17.47,1.28,14.09-1.66,18.57,1.43-4.74-9.61-18.7-4.69c-9.7,2.57-16.29.85-16.29.85S1612.34,251,1613.47,252Z"/><path class="cls-8" d="M1609.22,252.37s-.6-4.35,2.49-5.15S1604.4,247.17,1609.22,252.37Z"/><path class="cls-9" d="M1632.79,258.86a.78.78,0,0,0,.5,1.18c1.92.44,6.11,1.12,7.7-.59C1643,257.3,1636.06,253.55,1632.79,258.86Z"/></g><g id="øje"><path class="cls-11" d="M1648.74,181.83s6.2-11.12,21.39-9.58,2.31,3.18-2,3.35C1665,175.73,1656.09,175,1648.74,181.83Z"/><path d="M1651.44,194.78s6.7,4.09,10,4,8.66-1.44,10.79-2.62,0-1.08-5.48-.86S1651.44,194.78,1651.44,194.78Z"/><path class="cls-12" d="M1651.92,179.52s-7.17,11.18.61,15.22,15.35,2.65,20.57-3,3.73-15.39-2.88-17.3S1655.05,176.13,1651.92,179.52Z"/><path class="cls-11" d="M1670.52,183.16c.8,5.34-2.81,9.88-8.24,11.13-5.27,1.21-10.33-2.89-11.13-8.23s1.77-10.35,7.11-11.15S1669.72,177.81,1670.52,183.16Z"/><path class="cls-13" d="M1657.55,184.19c-.9,2.55-.78,4.94-2,5s-2.26-2.1-2.37-4.8.78-4.93,2-5C1658.44,179.26,1658.53,181.43,1657.55,184.19Z"/></g><path class="cls-11" d="M1582.65,179.22s-4.74.29-4.78-.84,9.62-6,19.52-5.32,14.69,10.74,14.69,10.74,0,1.13-1.13,0-8.91-4.18-8.91-4.18Z"/><path class="cls-11" d="M1584.12,192.86s-5.71-.9-4.53.19,8.3,4.92,11.59,6.33c4.13,1.76,12.84.83,14.71-.6s-4.53.19-8-.81a37.5,37.5,0,0,0-6.83-.86Z"/><path class="cls-12" d="M1609.21,194a5,5,0,0,0,1.71-4.48c-.91-6.76-3.59-11.16-8.45-12.79-2.92-1-6.88-1.3-12.25-1.08-4.53.18-8.42,3.06-9.32,4.68a4.73,4.73,0,0,0-.6,1.93,14.89,14.89,0,0,0,8.25,14.78C1597.24,201.7,1605,197.46,1609.21,194Z"/><path class="cls-11" d="M1606.53,183.92c.32,5.61-3.2,10.32-9.22,11.68a10.27,10.27,0,0,1-12.23-8.47c-.84-5.57,2.05-10.8,8-11.69S1606.15,177.24,1606.53,183.92Z"/><path class="cls-13" d="M1591.74,185.21c-1,2.64-.85,5.12-2.1,5.16s-2.34-2.21-2.43-5,.85-5.13,2.1-5.16C1592.71,180.08,1592.78,182.34,1591.74,185.21Z"/></g><path class="cls-4" d="M1725.76,562.59l8,31.91s1.33,9.31-6.65,27.92-14.62-22.6-14.62-22.6l-6.65-16,9.31-23.94Z"/><polygon class="cls-14" points="1613.41 934.21 1619.58 926.52 1618.73 918.26 1604.1 908.95 1597.46 922.25 1613.41 934.21"/><g id="sko"><path class="cls-15" d="M1657.29,956.82a31.51,31.51,0,0,1-3.52-.91,4.12,4.12,0,0,1-.83-.11c-4.35-1-10.28-.31-11.61-.31s-43.87-33.24-43.87-33.24v-.44c-11.5,8.18-37.41,28.17-42.55,45.64,0,0,49.19,33.24,53.18,35.9,3.5,2.34,39.89,14.63,71.8-6.64C1679.89,996.71,1678.56,960.81,1657.29,956.82Z"/><path d="M1641.33,955.49c1.33,0,7.26-.7,11.61.31a4.12,4.12,0,0,0,.83.11C1632.56,949.18,1603,918,1603,918s-2.14,1.39-5.51,3.79v.44S1640,955.49,1641.33,955.49Z"/><path d="M1560.92,959.33s44.51,34.72,61.8,37.38A13.84,13.84,0,0,0,1628,998c2.66,0,1.33-34.56-1.33-37.22s-39.89-33.24-39.89-33.24Z"/><path class="cls-16" d="M1614.56,929.89c-.74-1.27-5.72.23-11.12,3.35s-9.19,6.68-8.46,8,5-2.53,10.45-5.65S1615.29,931.16,1614.56,929.89Z"/><path class="cls-16" d="M1621.2,936.54c-.73-1.27-5.71.23-11.11,3.35s-9.19,6.68-8.46,8,5-2.53,10.45-5.65S1621.94,937.81,1621.2,936.54Z"/><path class="cls-16" d="M1629.18,941.86c-.73-1.27-5.71.23-11.12,3.35s-9.19,6.68-8.45,7.95,5-2.53,10.45-5.65S1629.92,943.13,1629.18,941.86Z"/></g><g id="sko2"><g id="sko2-2" data-name="sko2"><path class="cls-15" d="M1713.13,907.62a23.55,23.55,0,0,1-4.76-1c-2.59.52-4.55,1-4.55,1-9.3-6.65-44.45-14.34-44.45-14.34l8.17-2.22,1-.06-2-2-39.89,18.61-10.5,24.81,7.84,5.77s16,0,57.17,12,63.82-5.32,63.82-5.32C1749,906.29,1718.45,907.62,1713.13,907.62Z"/><path d="M1667.88,896.29c10.52,2.36,27.09,6.56,33.86,10.83a3.63,3.63,0,0,0,2.08.5c1.18-.17,2.86-.61,4.55-1-10.33-2.77-32.15-10.76-35.9-12.14a2.75,2.75,0,0,1-1-.63l-2.9-2.9-1,.06h0A2.73,2.73,0,0,0,1667.88,896.29Z"/><path d="M1642.3,901.2s39.49,8.78,46.9,11.74c6.65,2.66,8,30.58,8,31.91s-55.85-14.62-65.15-14.62-14.71-1.82-14.71-1.82l9.39-20.79Z"/></g><path class="cls-16" d="M1687.86,899.63c-.94-1.13-5.25.9-9.62,4.54s-7.17,7.5-6.23,8.63"/><path class="cls-16" d="M1678.55,897c-.94-1.13-5.25.91-9.62,4.54s-7.16,7.5-6.22,8.63"/><path class="cls-16" d="M1697.17,903.62c-.94-1.13-5.25.9-9.63,4.54s-7.16,7.5-6.22,8.63"/></g><g id="bukser"><path class="cls-14" d="M1709.55,551.33,1584,556.56a1.13,1.13,0,0,0-1.08,1.21c1.12,14,11.54,150.55-2.8,189.64-15.12,41.21-17.87,78.44-22,111.68s-8.25,42.55-15.13,49.2,11,12,11,16-6.88,38.56-2.75,43.88,62.83-84.26,64.6-38.52a1.13,1.13,0,0,0,2.07.58c6.63-10.41,28.55-41.1,53.42-35.41a1.13,1.13,0,0,0,1.34-.78c.47-1.57.71-4.94-3.18-9.64-4.86-5.87-2.21-13.81-1.52-15.59a1,1,0,0,1,.48-.55l12.86-7.46a1.15,1.15,0,0,0,.56-1V843.56a1.08,1.08,0,0,1,.27-.73c4.57-5.28,65-78,47.86-209.71a.5.5,0,0,0,0-.12l-19.3-80.81A1.14,1.14,0,0,0,1709.55,551.33Z"/><path class="cls-17" d="M1709.83,550,1585,555.25a.74.74,0,0,0-.72.81c1,11.69,12.61,150.54-1.4,190-14.63,41.21-17.28,78.44-21.27,111.68s-8,42.55-14.63,49.2,10.64,12,10.64,15.95-6.65,38.56-2.66,43.88,60.54-87.86,61.18-39.19a.75.75,0,0,0,1.37.43c5.79-8.8,28.78-40.76,53.86-34.52a.76.76,0,0,0,.89-.48c.51-1.36,1.13-4.9-3-10-4.81-6-2-14.21-1.42-15.71a.75.75,0,0,1,.31-.37l12.71-7.63a.74.74,0,0,0,.37-.65V842.09a.74.74,0,0,1,.17-.48c3.62-4.29,63.12-77.06,46.37-209.85,0,0,0,0,0-.06l-17.15-81.11A.75.75,0,0,0,1709.83,550Z"/><path class="cls-14" d="M1617.32,928.41s2.74-10.15,2.74-12.81-16-22.6-21.27-31.91-30.59,27.92-30.59,27.92,5.32-22.6,21.28-33.24,23.93,8,23.93,8-9.31-8-13.29-5.32c0,0,8,14.63,9.3,16s12-9.31,12-16,0-37.23,12-57.17,23.93-46.54,23.93-62.49c0-13.44,5.66-75,7.44-94.06a38.76,38.76,0,0,1,2.13-9.51c2-5.54,4.78-16.12,1.06-25.4-6-14.92-5.31-12-5.31-12s2.66,1.33,6.64,6.65c3.28,4.36,16.4-7.39,21-11.75a.16.16,0,0,1,.24.22c-2.51,3.2-9.29,12.54-13.26,15.52-4.76,3.56-8,38.55-9.31,45.2-1.22,6.1-5.8,78.3-6.54,90.12l-.58,3.2c-2.28,7.54-12.28,40.2-18.14,54.27-6.65,15.95-17.28,29.25-17.28,45.2s-2.66,22.61-12,30.58c0,0,6.65,12,8,14.63S1621.23,922.6,1617.32,928.41Z"/><path class="cls-14" d="M1638.67,593.84s-10.63,22.6-39.88,8C1598.79,601.81,1621.39,611.12,1638.67,593.84Z"/><path class="cls-14" d="M1624.07,876.27a3.92,3.92,0,0,1,2-2.79c6.71-3.58,31-18.22,37.84-45.63,7.9-31.61,1.45,35.93-34.85,54a3.88,3.88,0,0,0-1.67,1.54c-1.65,2.83-6,10.85-6,16.24,0,6.65,45.21-37.22,47.86-38.55a36.68,36.68,0,0,1,8-2.66c.61,0,2.13-.3,2.66,0,1.79,1-2.66,1.33-6.65,2.66-1.66.55-40.39,33.52-50.52,46.53-1.18,1.51-2.31,2.24-4,1.33-3.31-1.78-5.4-8-1.69-13.26C1621.4,889.54,1623.39,880.25,1624.07,876.27Z"/></g><g id="overkrop"><path class="cls-18" d="M1712.47,567.91s10.63-4,14.62-1.33,14.63-8,8-19.94-17.61-16.82-16.45-24-22.77,6.09-22.77,6.09a88.8,88.8,0,0,0,9.3,31.91C1712.47,574.56,1709.81,567.91,1712.47,567.91Z"/><path class="cls-12" d="M1595.26,537.06c-6.24.6-10.2,2.7-11.1,8.91-.46,3.14-3.13,10.46-2.66,13.3,1.33,8,62.49,23.93,73.13,33.24s53.13,17.69,58.5-25.26c5.32-42.55-30.58-38.56-30.58-38.56Z"/><g id="sweater"><path class="cls-18" d="M1516.35,302.66c22.38-34.93,37.77-20.67,71.53-6.38,31.38,15.76,37.32,11.05,53.4,24,17.46,13.36,15.86,49.19,21,62.64,7,23.8,23.71,49,31.62,85.25,19.15,43.3-23.79,47.07,4,54.51,6.57,1.77,3.71,7,8,10.64,0,0-37.9,32.58-121.66,12.63,0,0-9.31-9.31-8-21.27,0-4-29.25,0-29.25-20s-2-44.54-15.29-59.16,0-45.21-6.65-59.83S1487.76,336.56,1516.35,302.66Z"/><path class="cls-19" d="M1638.67,362.49c-6.15,63.27-2.29,67.08,25.27,110.35C1609,405.86,1638.16,391.07,1638.67,362.49Z"/><path class="cls-19" d="M1560.23,339.88s33.24,31.91,42.54,75.79c5.32,13.3,23.94,16,26.6,47.87.62-13.93-6.26-21.12,8.51-11.75,6.16,3.34,13.54,18.06,20,19.48,14.61,4,11.4,2.52,24.67,9.55,21.28,18.62-9.37,18.32,2.32,39.3a1.21,1.21,0,0,1,0,1.28c-1.09,1.57-4.12,4.68-5.86,7.79-12.56,19.62-20.46,4.8-34.38-2.65-9.19-2.61-24.86-2.35-35.22-10.1-40.2-11-31.17-18.63-58.41-53.71-33.62-23.08-7.21-66.48-30.62-89.61,15.31,11.83,12.07,32,15.5,65.95,1.69,8.85,14.73,17.65,20.88,24.81,19.59,30.16,18.42,50.66,66.66,50.85,0,0-8,4-10.63,2.66,46.58,10.26,17.41-2.06,48.53,16.62,13.29,8,15.11-11.62,16-13.3,1.33-2.66-.77-18.93,8-25.26a52.9,52.9,0,0,0-.25-6.6c-6.2-20.62-29.35-3.39-43.76-31.45-5.36-5.94-9.51-6.29-9.84-6.49,0,0,1.33,15.95-2.66,18.61.5-29.3-16.83-32.48-25.2-46.46C1597.64,403,1577.68,358.61,1560.23,339.88Z"/></g><g id="hånd"><path class="cls-4" d="M1691.19,494.78s-16,17.29-5.32,25.26c4,2.66,8-1.32,14.63,4s22.6,10.64,19.94-10.63,14.63-30.58,1.33-41.22-12-17.29-30.58-18.62c0,0,4,18.62,6.65,21.28,0,0,8-1.33,5.32,1.33S1691.19,488.13,1691.19,494.78Z"/><path class="cls-8" d="M1688.93,498s3.59-3.24,11.57-3.24-6.65-1.33-9.31,0Z"/><path class="cls-8" d="M1699.63,480.7s5.82-6.26,8.73-6.26c2.42,0-1.23-1.71-4.61-1.31A7.7,7.7,0,0,1,1696,469c-.43-.91-1.07-2.85-1.48-4.09C1692.81,459.74,1699.31,482.69,1699.63,480.7Z"/></g></g><g id="krave"><path class="cls-19" d="M1556.24,290.69c-1.38-.88-7.49-1.23-9.12-1.31-29.44-1.35,24.77,40.85,38.63,45,26.66,11.2,27.87-10.32,13.86-18-.46-.25-7-4.26-7.47-4.42C1582.82,309,1564.34,295.87,1556.24,290.69Z"/><path class="cls-20" d="M1595.46,319.28c-3.29-7.3,1.65-24.91,5.81-34.55.24-1.46-.83-2.06-2.32-2.33a1.87,1.87,0,0,0-2.2,1.71c0,.78-1.54,1.35-5.6,1-15-1.69-35.62-16.22-38.15-22.7a2,2,0,0,0-2.5-1.22c-5.44,2.05,4.15,27-4.49,31.42a2.09,2.09,0,0,0-.71,3.08c6.82,9.25,30.56,26.88,49,36.35a3.26,3.26,0,0,0,4.59-3.87C1597.67,324.27,1596.23,321.15,1595.46,319.28Z"/></g></g><g id="Julie"><ellipse class="cls-2" cx="261" cy="967" rx="183" ry="75"/><g id="sko-2" data-name="sko"><path class="cls-15" d="M163.1,932.92a27,27,0,0,0,3.09-.74,3.08,3.08,0,0,0,.73-.08c3.82-.82,9-.25,10.19-.25S215.64,905,215.64,905v-.36c10.1,6.62,32.85,22.79,37.36,36.93,0,0-43.2,26.88-46.7,29-3.07,1.89-35,11.83-63-5.37C143.26,965.19,144.42,936.15,163.1,932.92Z"/><path d="M177.11,931.85c-1.16,0-6.37-.57-10.19.25a3.08,3.08,0,0,1-.73.08c18.62-5.43,44.61-30.64,44.61-30.64s1.88,1.12,4.84,3.06V905S178.28,931.85,177.11,931.85Z"/><path d="M247.72,935S208.64,963,193.46,965.19a13,13,0,0,1-4.67,1.07c-2.34,0-1.17-28,1.17-30.11s35-26.89,35-26.89Z"/><path class="cls-16" d="M200.63,911.14c.64-1,5,.19,9.76,2.71s8.07,5.41,7.42,6.44-4.43-2-9.17-4.58S200,912.17,200.63,911.14Z"/><path class="cls-16" d="M194.79,916.52c.64-1,5,.18,9.76,2.71s8.07,5.4,7.43,6.43-4.43-2-9.18-4.57S194.14,917.55,194.79,916.52Z"/><path class="cls-16" d="M181,926c.64-1,5,.19,9.76,2.71s8.07,5.41,7.42,6.43-4.43-2-9.17-4.57S180.35,927.06,181,926Z"/></g><g id="sko2-3" data-name="sko2"><g id="sko2-4" data-name="sko2"><path class="cls-15" d="M227,960.92a39.44,39.44,0,0,0,6-.89c3.26.48,5.72.89,5.72.89,11.73-6.25,56-13.49,56-13.49l-10.29-2.09-1.32-.05,2.51-1.87,61.23,26.05,1.39,9.08a8.45,8.45,0,0,1-4.49,8.65l-4.52,2.48s-20.1,0-72,11.26-80.43-5-80.43-5C181.77,959.67,220.3,960.92,227,960.92Z"/><path d="M284,950.26c-13.25,2.23-34.14,6.17-42.67,10.19a6,6,0,0,1-2.63.47c-1.48-.16-3.6-.58-5.72-.89,13-2.61,40.51-10.12,45.24-11.42a3.7,3.7,0,0,0,1.23-.59l3.66-2.73,1.32.05h0C287.69,946.22,287.38,949.7,284,950.26Z"/><path d="M317.81,955.34a7,7,0,0,0-3.15-.19c-8.6,1.44-49.16,8.29-57.5,10.77s-10.05,28.76-10.05,30,70.37-13.75,82.1-13.75a103.69,103.69,0,0,0,13-.77,6.18,6.18,0,0,0,5.6-5.86l.12-6.84a6.08,6.08,0,0,0-4.53-5.81Z"/></g><path class="cls-16" d="M258.85,953.41c1.19-1.07,6.61.85,12.13,4.27s9,7.05,7.84,8.11"/><path class="cls-16" d="M270.58,950.91c1.18-1.07,6.61.84,12.13,4.26s9,7.06,7.84,8.12"/><path class="cls-16" d="M247.12,957.16c1.19-1.06,6.62.85,12.13,4.27s9,7.05,7.84,8.11"/></g><path class="cls-21" d="M259.88,481.16s10.63-28.94,1.58-34.59-35.07-1.14-54.3-12.45-24.89-19.23-24.89-19.23-22.63,1.13-14.71,9.05S209.65,480.68,259.88,481.16Z"/><path class="cls-22" d="M184.28,409.12s-5.41-18.95-5.47-21.49-16.2-3.43-22.43-4.56,12.31,11.45,12.31,11.45,3.74-2.16,3.39-1.13a12,12,0,0,0,0,6.79Z"/><path d="M135.31,369.07s-1.13-2.27,2.27-9.06c0,0,40.73,47.52,56.56,56.57,0,0-4.52,7.92-10.18,6.79S138.71,374.72,135.31,369.07Z"/><path class="cls-21" d="M159.64,385.47c-9.37-2-45.91-1.93-18.11,11.31-10.26,4.9-.74,13,6.79,12.45-7.33,5.91,6,13.07,6.77,13.83-.09,1.31-.11,6.64,5.52,8.54,6,1.37,27.45-11.38,19.39-15.58,10.26-13.36-10.64-5.82-12.44-6.79,22.91-6.16,8.18-10.2-11-12.78C174.87,394.43,173.21,390,159.64,385.47Z"/><path class="cls-23" d="M326.68,281.3s-27.27,16.4-31.94,24.29-23.37,44-45.56,56.39c0,0-10.51,16.92,11.68,30.45,0,0,1.17,30.46-10.51,47.37s-18.69,23.69-1.17,36.09,78.26,2.26,84.1,1.13-2.33-10.15,0-20.3,14-50.75,38.55-60.9c0,0-4.67,4.51,5.84,11.28,7,4.51,38.88-15.48,47.9-25.94,1-1.14,1.21-4.14,1.27-5.61.38-9.22,1-44.35-10.62-54.17-9.34-7.9-11.68-7.9-16.35-15.79S380.5,271.26,377,269,330.58,278.43,326.68,281.3Z"/><path class="cls-24" d="M326.9,281.34S300.5,297.79,296,305.71s-22.63,44.12-44.12,56.57c0,0-10.19,17,11.31,30.54,0,0,1.13,30.55-10.18,47.52s-18.11,23.76-1.13,36.21,75.8,2.26,81.46,1.13-2.27-10.18,0-20.37,13.57-50.91,37.33-61.09c0,0-4.52,4.52,5.66,11.31,6.79,4.53,37.65-15.52,46.38-26,.95-1.14,1.18-4.15,1.24-5.63.37-9.24,1-44.48-10.29-54.33-9.05-7.92-11.31-7.92-15.84-15.84S380.39,271.26,377,269,330.69,278.46,326.9,281.34Z"/><path class="cls-23" d="M326.9,281.34s-24.14,10.79-12.83,16.45,53.18,2.26,63.36-11.32c3.21-4.27,4.55-7.88,4.88-10.83a7.48,7.48,0,0,0-9.39-8L352.55,273Z"/><path class="cls-25" d="M322.32,238.31c11.68,15.05,12.08,35.55-1.06,46.28s28,11,42.48,1.16c8.5-5.78,8.91-21.52,7.83-26.66a81.4,81.4,0,0,1-1.79-13.74l-8.08-39.78L355.09,183,331,198.51S316.26,230.51,322.32,238.31Z"/><path class="cls-23" d="M296,395.09s7.92,26,35.07,9.05C331,404.14,311.81,413.19,296,395.09Z"/><path class="cls-23" d="M371.77,404.14s-6.79-9.05-4.52-17-3.4-27.16-4.53-30.55c0,0,11.32,19.23,9,31.68S371.77,404.14,371.77,404.14Z"/><path class="cls-19" d="M253,477.56s-7.52,56.28,6.79,71.91c0,0-54.1,96.92-56.48,138.61s-23.85,69.83-23.85,69.83,11.92,75,23.85,94.83-19.08,67.75-19.08,67.75,28.62,27.09,42.93,28.14L220,959.05s22.66,19.8,29.81,21.88,53.67,2.09,65.59-2.08,31-7.3,34.58-11.46c0,0-5.36-1.57-5.36-13s7.15-62.53,9.54-71.91,3.57-86.5-3.58-108.39-13.12-141.74-6-164.67c3.57-9.38,20.27-9.38,21.46-40.64s-17.89-52.11-20.27-57.32-10.73-24-11.93-30.23S256,484.33,253,477.56Z"/><path class="cls-26" d="M251.85,476.51s-4.53,56.28,9,71.92c0,0-49.78,94.83-52,136.52s-22.62,69.83-22.62,69.83,11.31,75,22.62,94.84-18.1,67.74-18.1,67.74,27.15,27.1,40.73,28.14l-6.79,10.42s21.5,19.8,28.29,21.89,50.91,2.08,62.22-2.09,29.42-7.29,32.81-11.46c0,0-5.09-1.56-5.09-13s6.79-62.53,9.05-71.91,3.4-86.5-3.39-108.39-12.45-141.73-5.66-164.66c3.4-9.38,19.24-9.38,20.37-40.65s-17-52.11-19.24-57.32-10.18-24-11.31-30.22S254.67,483.29,251.85,476.51Z"/><path class="cls-19" d="M263.16,493.52c0,3.12.74,5.65-1.13,5.65s-3.4-2.53-3.4-5.65,1.52-5.66,3.4-5.66S263.16,490.39,263.16,493.52Z"/><path class="cls-19" d="M258.63,524.07s14.71,5.65,11.32-37.34h2.26S277.87,528.59,258.63,524.07Z"/><path class="cls-19" d="M334.44,529.67l12.44,38.56,14.22,6.54a1.15,1.15,0,0,0,1.66-.94l1.09-22.28c0-2.17-1.51-7.3-2.25-9.36l-6.8-18.78S341.23,530.71,334.44,529.67Z"/><path class="cls-19" d="M255.24,528.62s3.39,24,14.71,32.31c0,0-15.84,39.61-12.45,86.5-1.13,17.72-5.65,35.44-3.39,45.86s10.18,21.89,6.79,35.43S247.32,759,247.32,765.2s17,33.35,17,33.35l-30.55,91.71s-3.39,9.38,21.5,33.35a17,17,0,0,1-5.66-3.12c-2.26-2.09-24.89,35.43-24.89,35.43s23.76-33.35,24.89-33.35,9,5.21,13.58,4.17c0,0-24.89-22.93-24.89-32.31s29.41-88.58,30.55-92.75-17-29.18-17-35.44,18.1-35.43,17-41.68-10.19-22.93-10.19-36.48,4.53-55.24,4.53-61.49,0-41.69,9-61.49C274.47,558.85,257.5,541.13,255.24,528.62Z"/><path class="cls-19" d="M268.82,795.42l-3.1-5.44,7.62-16.44S268.82,789.17,268.82,795.42Z"/><path class="cls-23" d="M420.71,377.36c-1.83-3.4-16.51-4.61-27.89,1.52s-18.56,20.35-16.73,23.74,14.39-1.76,25.77-7.9S422.54,380.75,420.71,377.36Z"/><path class="cls-21" d="M423.25,457.88c-2.48-7.85-4.53-26-5.66-47.52-.85-16.27,2.41-30.47-2.26-32.81-6.79-3.39-17,2.26-17,2.26L382,390.56s-3.39,49.78,3.4,67.88c0,0-36.21,20.37-48.65,26s-38.47,14.7-38.47,35.07,21.5,14.71,21.5,14.71-.57-10.75.56-14.14,31.78-19.25,38.47-20.37,45.61-12.62,49.78-14.71C408.54,485,430,479.38,423.25,457.88Z"/><path class="cls-19" d="M290.31,493.52s-6.79,41.86,36.21,40.73C326.52,534.25,282.39,546.69,290.31,493.52Z"/><path class="cls-23" d="M378.18,398.82c4.47-6.51,16.26-19.4,40.48-21.44a.52.52,0,0,0,.09-1c-8.89-2.12-34.76-5.7-41.87,21.85A.73.73,0,0,0,378.18,398.82Z"/><path class="cls-27" d="M261,195s-31.44,13.85-32.79-24.12c0,0-3.2,28.21,9.89,27.06,0,0-26.17,4.28-14.87-47.49,3.26-18.34,22.24-36.1,23.73-36.8a43.06,43.06,0,0,1,10.46-2.89l-3.76,53.09Z"/><path class="cls-28" d="M267.89,107.44s-40.68,10.08-16.9,69.47c6.54,14.07,15.89,21.23,2,36.14-6.61,6.48,2.38,10.89,8.92,10.95l2,.68s3.36,4.22-.86,7.58,9.36,7.16,10.28,7-2.27,4-.19,5.62,4.4,5,7,3.73,3.49,5.14,3.49,5.14-.86,7.59,9.72,9.91,39.76-24,48.14-38.15c7.18-12.16,21.53-34.61,21.53-34.61l3.69-56.5-.54-39.15-45.75-7Z"/><path class="cls-29" d="M253.17,167.26c7.2-5.78,6.73-5.75,18.17-11.66,10.23-5.29,25.48,2.65,18.93,2.07s-15.38,3-18.8,5.26-15.9,11.7-15.9,11.7c-4.31-1.59-6-5.82-5.24-5.11,1,.9,6,3.36,4.44,2.3A27.83,27.83,0,0,1,251,169.1,10.15,10.15,0,0,1,253.17,167.26Z"/><path class="cls-8" d="M269.1,222.85c-.26.23,7.1-.28,1.78-5.17C270.88,217.68,274.25,221.9,269.1,222.85Z"/><path class="cls-9" d="M259.77,221.11s-1.21-1.29,2.39-1.38c4.8-.12,5.4,1.05,3.57,1.37s-2.93-.15-3-.55c-.11-.58,0-.4,0-.4S259,220.25,259.77,221.11Z"/><path class="cls-30" d="M258.6,174.5A24.32,24.32,0,0,1,279.05,177C289.67,183.43,263.37,182.26,258.6,174.5Z"/><path class="cls-31" d="M269.7,191.23s1.16,1.71-2.39,3.11c0,0,3.49,5.14,20-11.06L274,188.78Z"/><path class="cls-32" d="M264.63,174.16s0,14,5.07,17.07,16-5.87,17.61-7.95S272.88,173.06,264.63,174.16Z"/><ellipse class="cls-33" cx="347.81" cy="196.57" rx="15.01" ry="17" transform="translate(-26.18 56.05) rotate(-8.88)"/><ellipse class="cls-34" cx="349.22" cy="195.98" rx="13.69" ry="15.5" transform="translate(-26.07 56.26) rotate(-8.88)"/><path class="cls-27" d="M246.88,114.44s17.24,31.31,58.09,29.61c16.61.79,39.41,25.48,45.22,49a41.51,41.51,0,0,1-.75,22c-2.71,8.92-7.72,26.11-6.27,26.61,1.95.67,21.89,10.16,46.48-1.52s8.7-60.91,8.7-60.91,13.19,43.06,11.3,49.85c0,0,20.73-5.56,24.58-11.68s-5.07-17.06-5.07-17.06L440.05,212s11.62-10.88,10.89-16.39-24.33-42.51-30.63-68.74-25.92-40.44-37-46.43S343.7,63.27,329,65.23,299,85.1,284.56,88.88,246.88,114.44,246.88,114.44Z"/><path class="cls-27" d="M249.5,119.44s7.52,29.12,49.66,30.05,51.64,41.93,51.64,41.93S337.07,153.78,300.56,153,244.36,143.21,249.5,119.44Z"/><path class="cls-27" d="M351.86,194.76S353,217,324.8,229.92c0,0,7.48,10.4,13.48,9.6s13.81-33.75,13.81-33.75Z"/><path class="cls-35" d="M273,240a4.23,4.23,0,0,0,.1,5.59c2.48,2.87,3.55,3.72,5.44,3.47s7.29-9.37,7.29-9.37l-8.72-1.37L274,239Z"/><path class="cls-36" d="M263,232.26s-5.12,3.61,10.33,7.41c0,0,.78-1.08,3.66-.49s7.94,0,9.89.64a28.78,28.78,0,0,0-5.82-1.67c-1.88-.11-7.72-1.9-8.77-2.73S264.34,231.6,263,232.26Z"/><path class="cls-8" d="M287,235.9s3.54,3,3.43,4.83S291.57,236.16,287,235.9Z"/></g><g id="logo"><polygon class="cls-37" points="1456 773.17 1455.09 855.5 1350.8 775 1456 773.17"/><polygon class="cls-38" points="517.1 412.01 518.01 494.35 622.3 413.84 517.1 412.01"/><rect class="cls-38" x="479" y="126.59" width="915.72" height="293.65" rx="30.32"/><rect class="cls-37" x="579" y="496.59" width="915.72" height="282.41" rx="29.74"/><path class="cls-12" d="M547,192.75h34.47l62.47,109.73V192.75h30.64V350.11H641.65L577.59,238.46V350.11H547Z"/><path class="cls-12" d="M802.07,192.65a73.69,73.69,0,0,1,23.76,13.58l17.45-19.06,9.11,8.68-18,19.92q6,7.36,10.92,20.51,4.81,13.66,4.81,34.92,0,36.94-21,60.33-20.72,23-54.44,23a87.69,87.69,0,0,1-26-4,68.71,68.71,0,0,1-24.61-14L705.38,356.2l-9.08-8.55,19.44-20.27a83.85,83.85,0,0,1-10.89-21q-5.55-15.17-5.56-35.13,0-36.93,23.28-63.41Q742.66,188,774.68,188A82.25,82.25,0,0,1,802.07,192.65Zm-8.33,27.42q-7.68-4.26-19.1-4.26-22.83,0-32.76,15.1T732,271.18a89.76,89.76,0,0,0,1.92,19.21,93.62,93.62,0,0,0,3.82,12.69l67.56-74.39A34.31,34.31,0,0,0,793.74,220.07ZM759,323.69a43,43,0,0,0,15.69,2.94q22.86,0,32.84-17.23a75,75,0,0,0,10-38.31,105.39,105.39,0,0,0-.87-13.7,68.94,68.94,0,0,0-4.56-17.55l-67,73.85A36.24,36.24,0,0,0,759,323.69Z"/><path class="cls-12" d="M981.24,241.86q-3.74-16.12-18.25-22.53a45,45,0,0,0-18-3.52q-19,0-31.22,14.33t-12.23,43.1q0,29,13.24,41t30.11,12q16.54,0,27.11-9.5t13-24.88H948.57V265.67h65.55v84.44H992.34L989,330.47Q979.54,341.63,972,346.2q-13,8-32,8-31.29,0-51.25-21.66Q867.86,310.75,867.86,273q0-38.19,21-61.24t55.62-23q30,0,48.2,15.21t20.87,38Z"/><path class="cls-12" d="M1161.87,220.62H1078.6V254H1155v27.33H1078.6v40.46h87.12v28.29H1046.47V192.75h115.4Z"/><path class="cls-12" d="M1190.81,192.75h34.47l62.46,109.73V192.75h30.64V350.11h-32.87l-64.06-111.65V350.11h-30.64Z"/><path class="cls-12" d="M628.12,557.84h34.47l62.47,109.72V557.84H755.7V715.2H722.82L658.76,603.55V715.2H628.12Z"/><path class="cls-12" d="M902.92,585.7H819.64v33.42h76.44v27.33H819.64v40.46h87.12V715.2H787.51V557.84H902.92Z"/><path class="cls-12" d="M1046.72,557.84V585.7H999.64V715.2h-33.1V585.7H919.25V557.84Z"/><path class="cls-12" d="M1180.27,557.84V585.7h-47.08V715.2H1100.1V585.7h-47.3V557.84Z"/><path class="cls-12" d="M1315.85,585.7h-83.27v33.42H1309v27.33h-76.44v40.46h87.12V715.2H1200.45V557.84h115.4Z"/><path class="cls-12" d="M1459.66,557.84V585.7h-47.08V715.2h-33.1V585.7h-47.29V557.84Z"/><rect class="cls-39" x="1076" y="386" width="219" height="137" rx="25.1"/><path class="cls-37" d="M1160.57,488.72c-29.5-4,2.31-32.75-8.53-12.19a5.08,5.08,0,0,0,2.75,7.15c14.09,5.49,27.77-35.48,18.62-51-25.23-42.83-79.55,14.8-34.26,11,.68,4.77-12.26,11.1-19.8,5.15-22.42-23.41,31.36-48,56.22-25.48,25.78,20.21,3.33,63.43-13.41,65.42A6.53,6.53,0,0,1,1160.57,488.72Zm-5.88-49.61c-16.21,53.82-12.15,63.74-30.51,58.75,6.1-13.46,23.49-72.13,37.54-72.81C1162.82,427.42,1155.55,432.64,1154.69,439.11Z"/><path class="cls-37" d="M1245.6,493.37c-2.71,1.84-7.57,4.24-11.52,3.12-6.39-1.71-7.65-9.2-7-14.24.18-.65,0-.95-.21-1a1.54,1.54,0,0,0-1,.76c-.73,1-10.08,15.63-24.58,12.71-9.8-2-16.33-12-14.92-24.7.69-6.27,3.33-13.21,8.39-20.22,11.74-16.52,34.32-28.09,49.31-26.74a22,22,0,0,1,5.5,1.25c7.21,2.74,8.84,7.89,8.36,12.2a14,14,0,0,1-2,5.78c-1,1.51-2,1.8-2.56,1.47a1.89,1.89,0,0,1-.13-2.66,11.06,11.06,0,0,0,1.91-5c.3-2.71-.59-6-5.15-8.22a18.06,18.06,0,0,0-6.28-1.7c-12-1.08-27.75,8.27-37.09,24.82-5.69,9.88-9.34,19.29-10.15,26.68s1.21,12.69,6.77,14.32c9.5,2.85,21.13-9.81,24.92-19.58l12.83-33c.27-.54.59-1.55,1.64-1.64l6-.5c.73,0,2.42-.16,1.82,1.49s-4,10.79-8.19,24c-2.87,9-6,19.22-6.64,25.21-.3,2.72-.09,4.62.9,5.09,2.58,1.18,5.92-.69,8.34-2.74a21.94,21.94,0,0,0,4.79-5.52,2.38,2.38,0,0,1,1.88-1c.72.07,1.19.58.53,1.85A25.63,25.63,0,0,1,1245.6,493.37Zm-2.8-74.51c-3.59-1-5.39-4.76-4.1-8.53s5.15-6,8.74-5,5.35,4.86,4.06,8.63A7.36,7.36,0,0,1,1242.8,418.86Zm3.53-10.33a3.8,3.8,0,0,0-4.56,2.66,3.32,3.32,0,0,0,2.13,4.44c1.88.52,4.1-.08,4.78-2.06S1248.21,409.06,1246.33,408.53Z"/></g></g></svg>
