<svg xmlns="http://www.w3.org/2000/svg" viewBox="0 0 1920 1080"><defs><style>.cls-1{fill:#253f5d;}.cls-2{fill:#f7b67d;}.cls-3{fill:#f28627;}.cls-4{fill:#fff;}</style></defs><title>infoskærm</title><g id="velkommen"><rect class="cls-1" width="1920" height="1080"/><rect class="cls-2" x="372.08" y="80.17" width="1162.91" height="864.83" rx="65.35"/><polygon class="cls-2" points="474 933.17 474.92 1015.5 579.2 935 474 933.17"/><rect class="cls-3" x="417.26" y="113.43" width="1066.74" height="669.57" rx="49.42"/><g id="sexogsamfundlogo"><path class="cls-1" d="M19,17.08h94V204.92H19Zm.46,22.58a17.17,17.17,0,0,0,1.82,9.39c2.41,5.16,6.51,8.38,11.75,10.42a24,24,0,0,0,16.83.2c3.92-1.35,7.49-4.05,10.83-6.64,4.07-3.17,7.6-7.05,11.62-10.28,4.17-3.36,8.58-6.43,13-9.4,2.44-1.62,5.07-2.83,8.3-1.55a8,8,0,0,1,5.1,5.64,6.71,6.71,0,0,1-1.61,6.43c-2.29,2.56-5.19,3.28-8.43,3.37a5.71,5.71,0,0,0-2.94.63c-4,2.82-4.07,5.54-2.14,9.55a5.84,5.84,0,0,0,5.6,3.21c1.4,0,2.81-.53,4.22-.56,4.07-.08,7.48-1.89,10.63-4.16,7.59-5.48,10-14.87,7.19-23.43-3.18-9.79-10.94-14.16-20.15-14.55a21.72,21.72,0,0,0-4.83.64,16.28,16.28,0,0,0-4,1c-7.78,3.82-14.57,9.07-21.06,14.74-4.27,3.72-8.51,7.46-12.91,11a10,10,0,0,1-10.95,1.28c-2.45-1.13-4.38-2.91-4.72-6C32,34.8,36.78,31.14,42,30.83c3.51-.21,6.59-1,7.76-4.91,1.11-3.73-1.05-7.76-4.63-8.32A22.63,22.63,0,0,0,33,19.14C25.66,22.19,18.76,29.41,19.46,39.66Zm63.72,103.5c1.07-.62,1.61-1,2.19-1.27l13.27-6.22c3-1.43,6-2.89,9.12-4.25s5-5.91,3.7-8.86c-2-4.6-6.25-5.32-10.43-3.25-6.2,3.08-12.33,6.32-18.55,9.36-7.09,3.46-14.26,6.76-21.37,10.19S47,145.78,39.91,149.25c-4.9,2.4-9.79,4.84-14.72,7.2-3.07,1.46-5,3.43-4.85,7.22.14,5.16,5.19,7.53,9.58,5.55s8.39-4.1,12.59-6.14c6.8-3.3,13.62-6.56,20.41-9.89,2.24-1.1,4.29-2.58,7-1.26,6.72,3.25,13.51,6.36,20.24,9.59,4.12,2,8.08,4.34,12.31,6a8.67,8.67,0,0,0,5.92-.1c2.36-.94,3.64-3.11,3.59-6s-1.14-4.86-3.43-6c-5.77-2.91-11.67-5.54-17.5-8.33C88.57,145.94,86.11,144.64,83.18,143.16ZM52.86,69.76H26.77a6.32,6.32,0,0,0-6.72,6.66c0,9.32,0,18.64,0,28a6.66,6.66,0,1,0,13.32-.11c0-6.35.06-12.71,0-19.07,0-1.72.54-2.17,2.22-2.16q17.2.1,34.41,0c1.6,0,2.17.41,2.12,2.06-.1,3.58,0,7.16,0,10.74,0,5.06,3.1,7.82,8.13,7.23a5.64,5.64,0,0,0,5-5c.19-4.25.17-8.51.19-12.77,0-3.27.08-6.55-.09-9.81a6.09,6.09,0,0,0-6.18-5.68ZM98.51,89.44c0,5.24,0,10.49,0,15.73a5.12,5.12,0,0,0,3.14,4.7c4,1.73,7.88,0,9.14-2.82a11.55,11.55,0,0,0,1-4.37c.1-6.11.14-12.22,0-18.32-.09-3.88.51-7.76-.88-11.65a6.66,6.66,0,0,0-7.22-4.58,5.88,5.88,0,0,0-5.17,5.58C98.49,79,98.51,84.19,98.51,89.44ZM26.77,116.71l-.19.45c-2.67-.15-4.84.8-5.77,3.36a11.31,11.31,0,0,0-.34,4.54,5.46,5.46,0,0,0,3.2,4.64c6,2.93,12,5.81,17.92,8.85a6.64,6.64,0,0,0,8.66-2.35c2.09-3.44.58-8-2-9.32-4.91-2.54-9.9-4.92-14.89-7.3C31.23,118.54,29,117.66,26.77,116.71ZM96,195.63l-.59.1c-1.54-4-3.14-8-4.57-12.07-.46-1.28-1.11-1.84-2.37-1.66s-1.43,1.27-1.43,2.37c0,5.86,0,11.72,0,17.58a12.58,12.58,0,0,0,.14,1.39c2.18.28,2.68-.11,2.67-2.18,0-3.39-.09-6.78-.12-10.17a3.69,3.69,0,0,1,.37-1c.32.23.47.28.51.37,1.34,3.74,2.64,7.5,4,11.23.47,1.27,1.23,2.32,2.86,1.93,1.44-.35,1.36-1.5,1.36-2.62,0-4.75,0-9.5,0-14.25v-4.34c-2.25-.48-2.81-.07-2.86,1.95,0,1.54,0,3.09,0,4.63Zm-43-5.44-.51-.21c-.78-2.13-1.6-4.25-2.31-6.4A2,2,0,0,0,47.75,182c-1.28.23-1.52,1.27-1.52,2.36q0,8.7,0,17.39c0,.88,0,1.81,1.3,1.77s1.11-1.06,1.12-1.89c0-3.51,0-7,0-10.54,0-.7.08-1.4.12-2.09l.53-.09c.28.68.57,1.36.84,2,.45,1.11.82,2.25,1.34,3.32.63,1.31,1.6,1.2,2.46.26a7,7,0,0,0,1.3-2.06c.46-1.07.75-2.21,1.11-3.32a3.09,3.09,0,0,1,.54,1.91c0,3.64,0,7.28,0,10.91,0,1,.27,1.52,1.32,1.55s1.55-.39,1.54-1.52c0-5.92,0-11.84-.07-17.75a3,3,0,0,0-1.4-2.18c-1.21-.55-2.28.22-2.84,1.38-.4.85-.56,1.83-.88,2.73C54.05,187.53,53.52,188.86,53,190.19ZM82,182.05c0,.78-.13,1.51-.13,2.23,0,4.57,0,9.13,0,13.69,0,2.08-1.49,3.89-3.08,3.88S76,200.38,76,198.11c0-4.75,0-9.5-.06-14.24,0-.64-.82-1.26-1.26-1.88a9.55,9.55,0,0,0-1.44,1.77,3.86,3.86,0,0,0-.08,1.64c0,4.26,0,8.51,0,12.77a9.6,9.6,0,0,0,.57,3c.79,2.28,3.62,3.54,6.73,2.92a4.45,4.45,0,0,0,3.62-4.67c-.06-5.11,0-10.23,0-15.35,0-.65-.08-1.3-.13-2Zm19.83,21.46c2.68,0,5,.06,7.22,0a3.24,3.24,0,0,0,3.29-3.45c-.08-4.91-.24-9.82-.38-14.73,0-1.24-.43-2.4-1.8-2.61-2.77-.43-5.56-.7-8.33-1Zm-70.54-1.33c.29.39.55,1.11,1,1.26.86.29,1.47-.11,1.6-1.18a19.3,19.3,0,0,1,.77-3.51c.42-1.33.64-2.79,2.72-2.79,1.62,0,2.68.36,3.06,2a29.07,29.07,0,0,1,.79,4.1c.13,1.4.95,1.8,2,1.35.45-.2.8-1.4.67-2-.52-2.6-1.27-5.16-1.89-7.74-.79-3.32-1.49-6.67-2.36-10a2.22,2.22,0,0,0-1.5-1.24c-1.69-.31-2.42.54-2.78,2.5-.49,2.75-1.09,5.48-1.73,8.19C32.88,196,32.09,198.94,31.26,202.18ZM24.8,182.35a3.47,3.47,0,0,0-3.71,1.73,7.14,7.14,0,0,0,.95,7.64c1.55,2,3.28,3.81,4.64,5.89a3.42,3.42,0,0,1-.06,3,2.63,2.63,0,0,1-2.44.88c-.71-.3-1-1.53-1.53-2.33-.42-.64-.91-1.23-1.37-1.85-.49.65-1.43,1.33-1.39,1.95.14,2.65,1.52,4.69,4.26,4.91a6.64,6.64,0,0,0,4.34-1.37c2.24-1.86,1.94-5.27-.16-7.83-1.76-2.16-3.45-4.39-5-6.7a2.67,2.67,0,0,1-.08-2.34c.31-.59,1.59-1.29,1.93-1.09a4.55,4.55,0,0,1,1.9,2.3c.3,1,.61,2,1.59,1.67a2.61,2.61,0,0,0,1.24-2.14A4.93,4.93,0,0,0,24.8,182.35Zm40,8.46a10.85,10.85,0,0,0,2.78-.06c.63-.18,1.12-.84,1.68-1.28-.52-.51-1-1.27-1.56-1.45a13.88,13.88,0,0,0-2.75-.09c-1.7-.11-2.48.59-2.46,2.34,0,3.82,0,7.65,0,11.47,0,.82-.21,1.84,1.19,1.78s1.09-1.07,1.09-1.88C64.82,198.13,64.82,194.62,64.82,190.81Zm2.43-6h0c1,0,2.1,0,3.14,0s1.88-.58,1.73-1.54c-.08-.52-1.12-1.22-1.77-1.27a43.53,43.53,0,0,0-6.46,0c-.65.05-1.25.81-1.88,1.25.64.52,1.21,1.31,1.93,1.49A14,14,0,0,0,67.25,184.85Z"/><path class="cls-4" d="M19.46,39.66c-.7-10.25,6.2-17.47,13.49-20.52a22.63,22.63,0,0,1,12.2-1.54c3.58.56,5.74,4.59,4.63,8.32-1.17,3.95-4.25,4.7-7.76,4.91-5.24.31-10,4-9.39,9.86.34,3,2.27,4.82,4.72,6A10,10,0,0,0,48.3,45.36c4.4-3.55,8.64-7.29,12.91-11,6.49-5.67,13.28-10.92,21.06-14.74a16.28,16.28,0,0,1,4-1,21.72,21.72,0,0,1,4.83-.64c9.21.39,17,4.76,20.15,14.55,2.79,8.56.4,18-7.19,23.43-3.15,2.27-6.56,4.08-10.63,4.16-1.41,0-2.82.57-4.22.56a5.84,5.84,0,0,1-5.6-3.21c-1.93-4-1.84-6.73,2.14-9.55a5.71,5.71,0,0,1,2.94-.63c3.24-.09,6.14-.81,8.43-3.37a6.71,6.71,0,0,0,1.61-6.43,8,8,0,0,0-5.1-5.64c-3.23-1.28-5.86-.07-8.3,1.55-4.46,3-8.87,6-13,9.4C68.29,46,64.76,49.86,60.69,53c-3.34,2.59-6.91,5.29-10.83,6.64A24,24,0,0,1,33,59.47c-5.24-2-9.34-5.26-11.75-10.42A17.17,17.17,0,0,1,19.46,39.66Z"/><path class="cls-4" d="M83.18,143.16c2.93,1.48,5.39,2.78,7.9,4,5.83,2.79,11.73,5.42,17.5,8.33,2.29,1.15,3.38,3.27,3.43,6s-1.23,5-3.59,6a8.67,8.67,0,0,1-5.92.1c-4.23-1.69-8.19-4.05-12.31-6-6.73-3.23-13.52-6.34-20.24-9.59-2.74-1.32-4.79.16-7,1.26-6.79,3.33-13.61,6.59-20.41,9.89-4.2,2-8.34,4.22-12.59,6.14s-9.44-.39-9.58-5.55c-.1-3.79,1.78-5.76,4.85-7.22,4.93-2.36,9.82-4.8,14.72-7.2,7.07-3.47,14.11-7,21.2-10.39s14.28-6.73,21.37-10.19c6.22-3,12.35-6.28,18.55-9.36,4.18-2.07,8.45-1.35,10.43,3.25,1.26,3-.58,7.46-3.7,8.86s-6.09,2.82-9.12,4.25l-13.27,6.22C84.79,142.17,84.25,142.54,83.18,143.16Z"/><path class="cls-4" d="M52.86,69.76H79.12a6.09,6.09,0,0,1,6.18,5.68c.17,3.26.1,6.54.09,9.81,0,4.26,0,8.52-.19,12.77a5.64,5.64,0,0,1-5,5c-5,.59-8.13-2.17-8.13-7.23,0-3.58-.07-7.16,0-10.74C72.12,83.45,71.55,83,70,83q-17.21.1-34.41,0c-1.68,0-2.24.44-2.22,2.16.09,6.36.06,12.72,0,19.07a6.66,6.66,0,1,1-13.32.11c.06-9.32,0-18.64,0-28a6.32,6.32,0,0,1,6.72-6.66Z"/><path class="cls-4" d="M98.51,89.44c0-5.25,0-10.49,0-15.73a5.88,5.88,0,0,1,5.17-5.58,6.66,6.66,0,0,1,7.22,4.58c1.39,3.89.79,7.77.88,11.65.13,6.1.09,12.21,0,18.32a11.55,11.55,0,0,1-1,4.37c-1.26,2.84-5.18,4.55-9.14,2.82a5.12,5.12,0,0,1-3.14-4.7C98.5,99.93,98.51,94.68,98.51,89.44Z"/><path class="cls-4" d="M26.77,116.71c2.21,1,4.46,1.83,6.64,2.87,5,2.38,10,4.76,14.89,7.3,2.53,1.31,4,5.88,2,9.32a6.64,6.64,0,0,1-8.66,2.35c-5.93-3-11.94-5.92-17.92-8.85a5.46,5.46,0,0,1-3.2-4.64,11.31,11.31,0,0,1,.34-4.54c.93-2.56,3.1-3.51,5.77-3.36Z"/><path class="cls-4" d="M96,195.63v-6.77c0-1.54,0-3.09,0-4.63,0-2,.61-2.43,2.86-1.95v4.34c0,4.75,0,9.5,0,14.25,0,1.12.08,2.27-1.36,2.62-1.63.39-2.39-.66-2.86-1.93-1.37-3.73-2.67-7.49-4-11.23,0-.09-.19-.14-.51-.37a3.69,3.69,0,0,0-.37,1c0,3.39.11,6.78.12,10.17,0,2.07-.49,2.46-2.67,2.18a12.58,12.58,0,0,1-.14-1.39c0-5.86,0-11.72,0-17.58,0-1.1.06-2.16,1.43-2.37s1.91.38,2.37,1.66c1.43,4.06,3,8.05,4.57,12.07Z"/><path class="cls-4" d="M53,190.19c.5-1.33,1-2.66,1.51-4,.32-.9.48-1.88.88-2.73.56-1.16,1.63-1.93,2.84-1.38a3,3,0,0,1,1.4,2.18c.11,5.91,0,11.83.07,17.75,0,1.13-.47,1.54-1.54,1.52S56.85,203,56.86,202c0-3.63,0-7.27,0-10.91a3.09,3.09,0,0,0-.54-1.91c-.36,1.11-.65,2.25-1.11,3.32a7,7,0,0,1-1.3,2.06c-.86.94-1.83,1.05-2.46-.26-.52-1.07-.89-2.21-1.34-3.32-.27-.68-.56-1.36-.84-2l-.53.09c0,.69-.12,1.39-.12,2.09,0,3.51,0,7,0,10.54,0,.83.21,1.84-1.12,1.89s-1.3-.89-1.3-1.77q0-8.7,0-17.39c0-1.09.24-2.13,1.52-2.36a2,2,0,0,1,2.45,1.57c.71,2.15,1.53,4.27,2.31,6.4Z"/><path class="cls-4" d="M82,182.05h2c.05.71.12,1.36.13,2,0,5.12,0,10.24,0,15.35a4.45,4.45,0,0,1-3.62,4.67c-3.11.62-5.94-.64-6.73-2.92a9.6,9.6,0,0,1-.57-3c-.06-4.26,0-8.51,0-12.77a3.86,3.86,0,0,1,.08-1.64A9.55,9.55,0,0,1,74.68,182c.44.62,1.24,1.24,1.26,1.88.11,4.74.06,9.49.06,14.24,0,2.27,1.08,3.73,2.75,3.74s3.07-1.8,3.08-3.88c0-4.56,0-9.12,0-13.69C81.84,183.56,81.92,182.83,82,182.05Z"/><path class="cls-4" d="M101.8,203.51V181.68c2.77.33,5.56.6,8.33,1,1.37.21,1.77,1.37,1.8,2.61.14,4.91.3,9.82.38,14.73A3.24,3.24,0,0,1,109,203.5C106.75,203.57,104.48,203.51,101.8,203.51Zm2.3-2.25a18.52,18.52,0,0,1,2.26,0c2.62.38,4-1.27,3.75-3.64-.26-3.24-.31-6.5-.39-9.75-.07-2.58-.78-3.4-3.4-3.67-2.13-.22-2.33,0-2.22,2.1,0,.62,0,1.23,0,1.85Z"/><path class="cls-4" d="M31.26,202.18c.83-3.24,1.62-6.15,2.31-9.09.64-2.71,1.24-5.44,1.73-8.19.36-2,1.09-2.81,2.78-2.5a2.22,2.22,0,0,1,1.5,1.24c.87,3.29,1.57,6.64,2.36,10,.62,2.58,1.37,5.14,1.89,7.74.13.64-.22,1.84-.67,2-1,.45-1.83.05-2-1.35a29.07,29.07,0,0,0-.79-4.1c-.38-1.61-1.44-2-3.06-2-2.08,0-2.3,1.46-2.72,2.79a19.3,19.3,0,0,0-.77,3.51c-.13,1.07-.74,1.47-1.6,1.18C31.81,203.29,31.55,202.57,31.26,202.18Zm7.91-8.55L38,188.12c-.4.22-1,.36-1.08.62-.34,1.74-.57,3.5-.87,5.5Z"/><path class="cls-4" d="M24.8,182.35a4.93,4.93,0,0,1,5.1,4.28,2.61,2.61,0,0,1-1.24,2.14c-1,.29-1.29-.7-1.59-1.67a4.55,4.55,0,0,0-1.9-2.3c-.34-.2-1.62.5-1.93,1.09a2.67,2.67,0,0,0,.08,2.34c1.56,2.31,3.25,4.54,5,6.7,2.1,2.56,2.4,6,.16,7.83a6.64,6.64,0,0,1-4.34,1.37c-2.74-.22-4.12-2.26-4.26-4.91,0-.62.9-1.3,1.39-1.95.46.62.95,1.21,1.37,1.85.52.8.82,2,1.53,2.33a2.63,2.63,0,0,0,2.44-.88,3.42,3.42,0,0,0,.06-3c-1.36-2.08-3.09-3.93-4.64-5.89a7.14,7.14,0,0,1-.95-7.64A3.47,3.47,0,0,1,24.8,182.35Z"/><path class="cls-4" d="M64.82,190.81c0,3.81,0,7.32,0,10.83,0,.81.28,1.82-1.09,1.88s-1.19-1-1.19-1.78c0-3.82,0-7.65,0-11.47,0-1.75.76-2.45,2.46-2.34a13.88,13.88,0,0,1,2.75.09c.61.18,1,.94,1.56,1.45-.56.44-1,1.1-1.68,1.28A10.85,10.85,0,0,1,64.82,190.81Z"/><path class="cls-4" d="M67.25,184.85a14,14,0,0,1-3.31-.07c-.72-.18-1.29-1-1.93-1.49.63-.44,1.23-1.2,1.88-1.25a43.53,43.53,0,0,1,6.46,0c.65.05,1.69.75,1.77,1.27.15,1-.59,1.6-1.73,1.54s-2.09,0-3.14,0Z"/><path class="cls-1" d="M104.1,201.26v-13.1c0-.62,0-1.23,0-1.85-.11-2.12.09-2.32,2.22-2.1,2.62.27,3.33,1.09,3.4,3.67.08,3.25.13,6.51.39,9.75.2,2.37-1.13,4-3.75,3.64A18.52,18.52,0,0,0,104.1,201.26Z"/><path class="cls-1" d="M39.17,193.63l-3.14.61c.3-2,.53-3.76.87-5.5.06-.26.68-.4,1.08-.62Z"/></g></g></svg>
