<svg id="Layer_1" data-name="Layer 1" xmlns="http://www.w3.org/2000/svg" xmlns:xlink="http://www.w3.org/1999/xlink" width="1920" height="1080" viewBox="0 0 1920 1080"><defs><style>.cls-1{fill:#bfbd73;}.cls-1,.cls-10,.cls-7,.cls-8,.cls-9{stroke:#8c6239;}.cls-1,.cls-10,.cls-12,.cls-15,.cls-16,.cls-23,.cls-26,.cls-27,.cls-28,.cls-29,.cls-30,.cls-36,.cls-7,.cls-8,.cls-9{stroke-miterlimit:10;}.cls-1,.cls-10,.cls-26,.cls-27,.cls-7,.cls-8,.cls-9{stroke-width:5px;}.cls-2{fill:#e3dfde;}.cls-3{fill:#824606;}.cls-4{fill:#412303;}.cls-5{fill:#9b6b38;}.cls-6{fill:#f8c693;}.cls-7{fill:#ffab66;}.cls-8{fill:#bf804d;}.cls-10,.cls-12,.cls-26,.cls-36,.cls-9{fill:none;}.cls-10{stroke-linecap:round;}.cls-11{fill:#4f6643;}.cls-12,.cls-23{stroke:#2e3192;}.cls-12{stroke-width:10px;}.cls-13,.cls-15,.cls-16{fill:#f6fff3;}.cls-14{fill:#dbe0da;}.cls-15{stroke:url(#linear-gradient);}.cls-16{stroke:url(#linear-gradient-2);}.cls-17,.cls-29{fill:#fff;}.cls-18{fill:#592a43;}.cls-19{fill:#b8b5b5;}.cls-20{fill:#f5fff7;}.cls-21{fill:#594f43;}.cls-22{fill:#999;}.cls-23,.cls-25{fill:#7546f7;}.cls-23{stroke-width:6px;}.cls-24{fill:#331780;}.cls-26,.cls-27{stroke:#39b54a;}.cls-27{fill:#52aa63;}.cls-28{fill:#ffe9c9;}.cls-28,.cls-29,.cls-30{stroke:#fff;}.cls-30,.cls-31{fill:#ffe3bb;}.cls-32{fill:#ff92cb;}.cls-33{fill:#b25486;}.cls-34{fill:#d17b09;}.cls-35{fill:#bf6e98;}.cls-36{stroke:#ff92cb;}.cls-37{fill:#778d95;}</style><linearGradient id="linear-gradient" x1="1610.96" y1="323.59" x2="1726.69" y2="323.59" gradientUnits="userSpaceOnUse"><stop offset="0" stop-color="#fff"/><stop offset="1"/></linearGradient><linearGradient id="linear-gradient-2" x1="1463.87" y1="323.26" x2="1577.52" y2="323.26" xlink:href="#linear-gradient"/></defs><title>titel</title><rect class="cls-1" x="0.5" y="-0.5" width="1919" height="1080"/><polygon class="cls-2" points="1309 0 286.8 566.64 1 767 1 -1 1 -1 433 0 1309 0"/><polyline class="cls-3" points="1613 867 1559 777 989 777 910 867"/><ellipse class="cls-3" cx="1261.5" cy="871" rx="351.5" ry="100"/><ellipse class="cls-4" cx="1274" cy="780.5" rx="285" ry="65.5"/><path class="cls-5" d="M1528.87,793.34c0,33.88-120.68,44.62-267.87,36.66-148-8-201-8-233-47-21.49-26.19,86.57-51,234-51S1528.87,759.46,1528.87,793.34Z"/><path class="cls-6" d="M1080,793.5c0,15.74,93,14.5,206,28.5s206-12.76,206-28.5S1399.77,765,1286,765,1080,777.76,1080,793.5Z"/><rect class="cls-3" x="1838.28" y="683.55" width="236.72" height="458.45" rx="12"/><path class="cls-3" d="M1804.36,819.8l215.39-124.35a51.78,51.78,0,0,0,18.89-70.51l-13.88-24A51.78,51.78,0,0,0,1954.25,582L1755.42,715.9c-24.58,14.19-49.64,36.38-35.44,61l13.88,24A51.77,51.77,0,0,0,1804.36,819.8Z"/><rect class="cls-7" x="-496.11" y="230.34" width="2519.88" height="372.89" rx="12" transform="translate(-105.45 378) rotate(-26.06)"/><path class="cls-8" d="M1026.55,430.79c16.35,11.32,15.45,28.09-26.26,52.18-22,12.7-53.48,10.83-57-13-2.87-19.67,3.28-41.34,26.26-52.17S1008.5,418.29,1026.55,430.79Z"/><path class="cls-8" d="M1018.1,435.06c12.86,8.91,12.16,22.11-20.67,41.06-17.32,10-42.1,8.53-44.83-10.19-2.26-15.48,2.58-32.54,20.67-41.07S1003.89,425.22,1018.1,435.06Z"/><path class="cls-8" d="M1009,439.6c9.35,6.47,8.84,16.07-15,29.84-12.58,7.27-30.59,6.2-32.57-7.41-1.65-11.25,1.87-23.64,15-29.84S998.65,432.45,1009,439.6Z"/><path class="cls-9" d="M792.26,522.43l9-7.55,15.61-10.67,10.44-1.61,10.21-1.49,9-7.56L857,488.6l8.64-5.18,8.27-2.79,8.49-6.21,6.14-.68,6.39-3,9.14-4.31,9.6-4.52,6.86-3.23,1.76-.84a17.27,17.27,0,0,0,9.25-10.88l.77-2.68,3.82-10.65,9.21-11,8.19-6.07,7.29-5.65,10.8-2.88,5.43-2.56,6.28-.74,5.8.58,5.8.58,7.13,1.06,7.14,1.06,2.35,1.69a11.05,11.05,0,0,0,12.29.42l16-9.9,14.42-4.59,18.09-8.52,7.29-5.65,6.28-.75,7.23-3.41,3.62-1.7"/><path class="cls-9" d="M1167.88,374.13l-15.5,7.3a14.78,14.78,0,0,0-1.51.83L1131,394.72a13.57,13.57,0,0,1-1.5.82l-13.16,6.2c-.36.17-.71.35-1.06.55l-9.19,5.31a14.3,14.3,0,0,0-1.38.91l-2.29,1.69a14.24,14.24,0,0,1-2.43,1.46l-9.68,4.56a29.71,29.71,0,0,0-6.47,4.15l-8.9,7.52-8.67,7.4-7.59,6.48a14,14,0,0,0-2,2l-2,2.61a68.79,68.79,0,0,1-6.22,5c-3.29,2.4-1.92,4.76-3.28,8.87a14.67,14.67,0,0,1-1.65,3.46l-2.81,4.3c-.17.27-.36.53-.55.79l-4,5.35a14.43,14.43,0,0,1-5.36,4.35l-4.75,2.24A14.51,14.51,0,0,0,1024,482l-9,6.25-5,3.32a13.52,13.52,0,0,1-1.78,1l-3.58,1.69a14.06,14.06,0,0,1-1.9.73l-4.8,1.48a14.78,14.78,0,0,0-1.91.74l-5.23,2.47a14.05,14.05,0,0,0-2.06,1.18l-3,2.11a13.55,13.55,0,0,1-2.06,1.18l-1.56.74a14.43,14.43,0,0,1-7.74,1.29l-3.54-.4-7.13-1.06L955,503.2a11.6,11.6,0,0,1-2.84-1c-2.68-1.22-5.94-.56-8.85.77a13.58,13.58,0,0,0-4.11,3l-3.73,3.87a14.35,14.35,0,0,1-6,3.74l-10,3.19a14.15,14.15,0,0,0-1.77.7l-15.8,7.44a14.69,14.69,0,0,0-2.68,1.64l-2.89,2.24a14.28,14.28,0,0,1-7.11,2.91h0a14.63,14.63,0,0,0-4.43,1.28l-5.12,2.41L876,537.12"/><path class="cls-9" d="M249.3,633.52l9-7.55,15.61-10.67,10.44-1.61,10.21-1.49,9-7.56L314,599.69l8.65-5.18,8.26-2.79,8.5-6.21,6.13-.68,6.4-3,9.14-4.31,9.6-4.52,6.85-3.23,1.77-.83c4.5-2.13,10.32-4,11.69-8.83l2.77-3.52,6.38-5.22L412,543.57l6.33-3,7.24-3.41,9.52-5.6,8.15-3.83,3.67-3.94,3.61-1.71,4.47.1,4.48.11,4.41,2.34,3.62-1.71c3.64,2.62,9.59.64,13.4-1.72l15.95-9.9,14.42-4.58,18.09-8.53,7.29-5.65,6.28-.75,7.24-3.41,3.61-1.7"/><path class="cls-8" d="M1252.76,98.89c-1.68,19.81,11.83,29.8,57,13,23.8-8.88,42.39-34.35,26.26-52.17-13.35-14.74-34-23.79-57-13S1254.61,77,1252.76,98.89Z"/><path class="cls-8" d="M1261.43,95.09c-1.32,15.59,9.31,23.45,44.83,10.19,18.73-7,33.37-27,20.67-41.07-10.5-11.6-26.74-18.72-44.83-10.19S1262.89,77.87,1261.43,95.09Z"/><path class="cls-8" d="M1270.74,90.94c-1,11.33,6.77,17,32.58,7.41,13.61-5.08,24.25-19.65,15-29.84-7.64-8.43-19.44-13.61-32.58-7.41S1271.8,78.43,1270.74,90.94Z"/><path class="cls-9" d="M1472.55-23.5,1461-21.38l-18.16,5.24-7.89,7-7.64,6.92L1415.78-.06l-10.51,5-9.5,3.37-7.42,4.6-10.19,2.6-4.43,4.29-6.4,3-9.14,4.31-9.6,4.52-6.85,3.23-1.77.83a17.27,17.27,0,0,1-14.28.21l-2.56-1.11-10.64-3.83-14.32.12-9.9,2.45-9,2-9.1,6.5-5.43,2.55L1260.18,49l-3.25,4.85-3.24,4.84L1250,64.83,1246.25,71l-.2,2.89a11.05,11.05,0,0,1-7.5,9.74l-17.79,6-12.71,8.2L1190,106.38l-9,2-4.57,4.37-7.24,3.41-3.62,1.7"/><path class="cls-9" d="M1119.1,171.84l15.5-7.31a15.69,15.69,0,0,1,1.6-.64l22.26-7.4a12.88,12.88,0,0,0,1.59-.64l13.16-6.2c.36-.17.73-.32,1.1-.46l10-3.72a14.22,14.22,0,0,1,1.57-.48l2.77-.69a14.88,14.88,0,0,0,2.67-1l9.68-4.56a29.3,29.3,0,0,1,7.31-2.35l11.47-2.08,11.23-2,9.82-1.73a14.87,14.87,0,0,1,2.83-.21l3.31.08a70.44,70.44,0,0,0,7.82-1.61c3.94-1,4.9,1.55,8.94,3.12a14.81,14.81,0,0,0,3.72.93l5.1.57c.32,0,.64.06,1,.07l6.69.3a14.5,14.5,0,0,0,6.77-1.36l4.75-2.24a13.82,13.82,0,0,1,2.22-.83l10.56-3,5.79-1.78a14.59,14.59,0,0,0,1.9-.73l3.57-1.69a13.63,13.63,0,0,0,1.79-1l4.19-2.76a14.19,14.19,0,0,1,1.78-1l5.23-2.47a16.15,16.15,0,0,1,2.23-.83l3.56-1a14.48,14.48,0,0,0,2.22-.84l1.57-.73a14.47,14.47,0,0,0,5.92-5.15l1.94-3,3.72-6.18,4.28-7.54a11.57,11.57,0,0,0,1.07-2.8c.76-2.85,3.35-4.94,6.23-6.34a13.46,13.46,0,0,1,4.91-1.27l5.36-.41a14.43,14.43,0,0,0,6.7-2.26l8.85-5.71a15,15,0,0,1,1.67-.92l15.79-7.45a14.37,14.37,0,0,1,3-1l3.56-.8a14.37,14.37,0,0,0,6.77-3.64h0a14.62,14.62,0,0,1,3.81-2.6l5.12-2.42,3.62-1.7"/><path class="cls-8" d="M1707.14,79.43c16.35,11.32,15.46,28.1-26.26,52.18-22,12.7-53.48,10.84-57-13-2.87-19.68,3.29-41.35,26.27-52.18S1689.09,66.94,1707.14,79.43Z"/><path class="cls-8" d="M1698.69,83.7c12.87,8.91,12.16,22.11-20.67,41.07-17.32,10-42.1,8.53-44.83-10.2-2.26-15.48,2.58-32.54,20.67-41.06S1684.48,73.87,1698.69,83.7Z"/><path class="cls-8" d="M1689.57,88.24c9.35,6.48,8.83,16.07-15,29.85-12.59,7.26-30.59,6.19-32.58-7.41-1.64-11.25,1.88-23.65,15-29.84S1679.24,81.1,1689.57,88.24Z"/><path class="cls-9" d="M1472.85,171.07l9-7.55,15.61-10.67,10.44-1.6,10.21-1.5,9-7.55,10.51-5,8.64-5.18,8.27-2.79,8.5-6.21,6.13-.68,6.4-3,9.14-4.3,9.59-4.53,6.86-3.23,1.77-.83a17.31,17.31,0,0,0,9.25-10.89l.76-2.68,3.83-10.64,9.2-11,8.19-6.08,7.29-5.64,10.8-2.88,5.43-2.56,6.28-.75,5.8.58,5.8.58,7.14,1.06,7.13,1.06,2.35,1.7a11.08,11.08,0,0,0,12.3.41l16-9.89,14.42-4.59,18.09-8.53,7.29-5.64,6.28-.75L1773.7,26l3.61-1.71"/><path class="cls-9" d="M1848.47,22.77,1833,30.08a14.69,14.69,0,0,0-1.51.82l-19.87,12.46a14.69,14.69,0,0,1-1.51.82l-13.15,6.2c-.36.17-.72.36-1.06.56l-9.2,5.31a13.59,13.59,0,0,0-1.38.9l-2.29,1.7a14.18,14.18,0,0,1-2.43,1.45l-9.68,4.57a29,29,0,0,0-6.46,4.15l-8.91,7.51-8.67,7.4-7.58,6.48a14.14,14.14,0,0,0-2,2l-2,2.6a67.11,67.11,0,0,1-6.22,5c-3.28,2.4-1.92,4.76-3.28,8.88a14.47,14.47,0,0,1-1.65,3.46l-2.8,4.29c-.18.27-.37.54-.56.8l-4,5.34a14.3,14.3,0,0,1-5.36,4.36l-4.75,2.24a14.91,14.91,0,0,0-2,1.18l-9,6.25-5,3.33a14.76,14.76,0,0,1-1.78,1l-3.57,1.68a14.78,14.78,0,0,1-1.91.74l-4.8,1.48a14.06,14.06,0,0,0-1.9.73l-5.24,2.47a15,15,0,0,0-2,1.19l-3,2.1a15,15,0,0,1-2.05,1.19l-1.57.74a14.42,14.42,0,0,1-7.74,1.28l-3.53-.39-7.14-1.06-8.53-1.5a12.35,12.35,0,0,1-2.84-1c-2.69-1.23-5.94-.56-8.86.77a13.71,13.71,0,0,0-4.11,3l-3.72,3.87a14.46,14.46,0,0,1-6,3.73l-10,3.19a16.68,16.68,0,0,0-1.77.7l-15.8,7.45a14.15,14.15,0,0,0-2.68,1.64l-2.88,2.23a14.42,14.42,0,0,1-7.12,2.92h0a14.33,14.33,0,0,0-4.43,1.27l-5.12,2.42-3.62,1.7"/><path class="cls-8" d="M516.42,569.53c16.35,11.32,15.45,28.1-26.26,52.18-22,12.7-53.48,10.84-57-13-2.87-19.68,3.28-41.35,26.26-52.18S498.37,557,516.42,569.53Z"/><path class="cls-8" d="M508,573.8c12.86,8.91,12.16,22.11-20.67,41.07-17.32,10-42.1,8.53-44.83-10.2-2.26-15.48,2.58-32.54,20.67-41.06S493.76,564,508,573.8Z"/><path class="cls-8" d="M498.84,578.34c9.35,6.48,8.84,16.07-15,29.85-12.58,7.26-30.59,6.19-32.57-7.41-1.65-11.26,1.87-23.65,15-29.85S488.52,571.2,498.84,578.34Z"/><path class="cls-9" d="M282.13,661.17l9-7.55L306.71,643l10.44-1.61,10.21-1.49,9-7.55,10.51-5,8.64-5.18,8.27-2.79,8.49-6.21,6.14-.68,6.39-3,9.14-4.31,9.6-4.52,6.86-3.23,1.76-.83a17.31,17.31,0,0,0,9.25-10.89l.77-2.68L426,572.36l9.21-11,8.19-6.08,7.29-5.64,10.8-2.88,5.43-2.56,6.28-.75,5.8.58,5.8.58,7.13,1.06,7.14,1.06,2.35,1.69a11.05,11.05,0,0,0,12.29.42l16-9.9,14.42-4.58,18.09-8.53,7.29-5.65,6.28-.74,7.23-3.42,3.62-1.7"/><path class="cls-9" d="M657.75,512.87l-15.5,7.31a14.69,14.69,0,0,0-1.51.82l-19.88,12.46a14.54,14.54,0,0,1-1.5.82l-13.16,6.2c-.36.17-.71.36-1.06.56L596,546.35a12.56,12.56,0,0,0-1.38.9l-2.29,1.7a14.18,14.18,0,0,1-2.43,1.45L580.17,555a30.09,30.09,0,0,0-6.47,4.15l-8.9,7.52-8.67,7.4-7.59,6.48a14.07,14.07,0,0,0-2,2l-2.05,2.6a67.11,67.11,0,0,1-6.22,5c-3.29,2.4-1.92,4.76-3.28,8.88a15.05,15.05,0,0,1-1.65,3.46l-2.81,4.29c-.17.27-.36.54-.55.79l-4,5.35a14.46,14.46,0,0,1-5.36,4.36l-4.75,2.24a13.55,13.55,0,0,0-2.06,1.18l-9,6.25-5.05,3.33a14.69,14.69,0,0,1-1.78,1L494.39,633a14.11,14.11,0,0,1-1.9.74l-4.8,1.48a14.72,14.72,0,0,0-1.91.73l-5.23,2.47a14.11,14.11,0,0,0-2.06,1.19l-3,2.1a14.51,14.51,0,0,1-2.06,1.19l-1.56.74a14.42,14.42,0,0,1-7.74,1.28l-3.54-.39-7.13-1.06-8.54-1.51a12,12,0,0,1-2.84-1c-2.68-1.23-5.94-.56-8.85.77a13.41,13.41,0,0,0-4.11,3l-3.73,3.87a14.33,14.33,0,0,1-6,3.73l-10,3.19a15.88,15.88,0,0,0-1.77.7l-15.8,7.45a13.66,13.66,0,0,0-2.68,1.64l-2.89,2.23a14.38,14.38,0,0,1-7.11,2.92h0a14.33,14.33,0,0,0-4.43,1.27l-5.12,2.42-3.62,1.7"/><path class="cls-8" d="M259.07,806.91c16.34,11.32,15.45,28.09-26.27,52.18-22,12.7-53.48,10.83-57-13-2.88-19.68,3.28-41.35,26.26-52.18S241,794.41,259.07,806.91Z"/><path class="cls-8" d="M250.61,811.18c12.87,8.91,12.16,22.11-20.67,41.07-17.32,10-42.1,8.53-44.83-10.2-2.26-15.48,2.58-32.54,20.67-41.06S236.4,801.34,250.61,811.18Z"/><path class="cls-8" d="M241.49,815.72c9.35,6.47,8.84,16.07-15,29.84-12.59,7.27-30.59,6.2-32.58-7.4-1.64-11.26,1.88-23.65,15-29.85S231.16,808.57,241.49,815.72Z"/><path class="cls-9" d="M24.77,898.55l9-7.55,15.61-10.67,10.45-1.61L70,877.23l9-7.55,10.51-5,8.65-5.18,8.26-2.79,8.5-6.21,6.13-.68,6.4-3,9.14-4.31,9.6-4.52,6.85-3.23,1.77-.83a17.31,17.31,0,0,0,9.25-10.89l.76-2.68,3.83-10.65,9.2-11,8.19-6.07,7.29-5.64,10.8-2.89,5.43-2.55,6.28-.75,5.8.58,5.8.58,7.14,1.06,7.13,1.06,2.35,1.69a11.07,11.07,0,0,0,12.3.42l15.95-9.9,14.42-4.58,18.09-8.53,7.29-5.65,6.28-.75,7.24-3.41,3.61-1.7"/><path class="cls-9" d="M400.4,750.25l-15.51,7.31a13,13,0,0,0-1.51.82l-19.87,12.46a14.69,14.69,0,0,1-1.51.82l-13.15,6.2c-.36.17-.72.36-1.06.56l-9.2,5.31a13.46,13.46,0,0,0-1.37.9l-2.29,1.69a14.07,14.07,0,0,1-2.44,1.46l-9.68,4.56a29.64,29.64,0,0,0-6.46,4.15L307.44,804l-8.67,7.4-7.58,6.48a14.16,14.16,0,0,0-2,2.05l-2.05,2.6a67.11,67.11,0,0,1-6.22,5c-3.28,2.4-1.91,4.76-3.28,8.87a14.29,14.29,0,0,1-1.65,3.46l-2.8,4.3c-.18.27-.36.53-.56.79l-4,5.35a14.4,14.4,0,0,1-5.36,4.36l-4.75,2.23a15,15,0,0,0-2,1.19l-9,6.25-5.05,3.32a13.52,13.52,0,0,1-1.78,1L237,870.36a14.78,14.78,0,0,1-1.91.74l-4.8,1.47a14.11,14.11,0,0,0-1.9.74l-5.24,2.47a14.91,14.91,0,0,0-2.05,1.18l-3,2.11a15,15,0,0,1-2.05,1.19l-1.57.74a14.42,14.42,0,0,1-7.74,1.28l-3.53-.39-7.13-1.06-8.54-1.51a11.86,11.86,0,0,1-2.84-1c-2.69-1.23-5.94-.56-8.86.77a13.67,13.67,0,0,0-4.11,3L168,886a14.4,14.4,0,0,1-6,3.73l-10,3.19a14.29,14.29,0,0,0-1.78.7l-15.8,7.44a14.2,14.2,0,0,0-2.68,1.65l-2.88,2.23a14.38,14.38,0,0,1-7.11,2.92h0a14.31,14.31,0,0,0-4.44,1.27l-5.12,2.41-3.62,1.71"/><path class="cls-9" d="M1140.06,358.5l9-7.55,15.61-10.67,10.45-1.61,10.2-1.49,9-7.56,10.51-4.95,8.65-5.18,8.26-2.79,8.5-6.22,6.13-.67,6.4-3,9.14-4.31,9.6-4.52,6.85-3.23,1.77-.84c4.51-2.12,10.32-4,11.69-8.82l2.77-3.52,6.38-5.22,11.81-7.78,6.33-3,7.24-3.41,9.52-5.6,8.15-3.83,3.67-3.94,3.61-1.71,4.47.1,4.48.11,4.41,2.34,3.62-1.71c3.64,2.61,9.59.64,13.4-1.72l15.95-9.9,14.42-4.59,18.09-8.52,7.29-5.65,6.28-.75,7.24-3.41,3.61-1.7"/><path class="cls-9" d="M225.74,569.45l14.06-10,24-14.63,15-3.75,14.65-3.59,14.09-10,15.74-7.41,13.15-7.31,12.16-4.62,13.14-8.41,8.76-1.91,9.58-4.52,13.68-6.45,14.37-6.77,10.26-4.84,2.64-1.24c6.75-3.18,15.3-6.38,18.15-11.87l4.56-4.36,10-6.92,18.11-10.74,9.48-4.47,10.83-5.11,14.47-7.92L518.79,417l5.92-5,5.41-2.55,6.27-.75,6.27-.74,5.77,1.7,5.42-2.55c4.61,2.15,13.36-1.14,19.17-4.44l24.34-13.85L618.52,381l27.08-12.76,11.34-7.56,9-2,10.83-5.1,5.42-2.56"/><path class="cls-9" d="M1238.14,238.2l9-7.54,15.6-10.68,10.45-1.6,10.2-1.5,9-7.55,10.52-5,8.64-5.18,8.27-2.8,8.49-6.21,6.13-.68,6.4-3,9.14-4.31,9.6-4.53,6.85-3.23,1.77-.83c4.51-2.12,10.33-4,11.7-8.83l2.76-3.51L1389,156l11.82-7.78,6.33-3,7.23-3.41,9.53-5.59,8.14-3.84,3.67-3.94,3.62-1.7,4.47.1,4.47.1,4.42,2.34,3.62-1.7c3.63,2.61,9.58.64,13.39-1.73l16-9.89,14.42-4.59,18.09-8.53,7.29-5.64,6.28-.75,7.24-3.41,3.62-1.71"/><path class="cls-9" d="M46.13,695l7.45-6.83,13.11-9.5,9.09-1,8.89-.87L92.14,670l9-4.23,7.31-4.54,7.1-2.25,7.11-5.56,5.35-.31,5.46-2.57,7.79-3.67,8.17-3.86,5.84-2.75,1.51-.71c3.84-1.81,8.84-3.34,9.77-7.92l2.23-3.27,5.32-4.71,9.94-6.9,5.39-2.54,6.17-2.9,8-4.91,6.94-3.26,3-3.63,3.08-1.45,3.94.35,3.93.36,4,2.53,3.08-1.46c3.35,2.75,8.47,1.17,11.68-.91l13.45-8.72,12.42-3.64,15.41-7.27,6.09-5.07,5.47-.38,6.17-2.9,3.08-1.45"/><path class="cls-10" d="M82.61,819.32l11.53-2.12L112.3,812l7.89-7,7.65-6.92,11.55-2.13,10.51-5,9.49-3.37,7.42-4.6,10.2-2.6,4.42-4.29,6.4-3,9.14-4.31,9.6-4.52,6.86-3.23,1.76-.84c4.51-2.12,9.69-5.39,14.25-3.4l4.48.11,8.08-1.61,13.52-4.15,6.33-3,7.24-3.41,10.38-3.79,8.14-3.83,5.37-.33,3.62-1.7,2.77-3.51,2.76-3.52,1-4.9,3.62-1.7c.3-4.47,5.61-7.8,9.85-9.24l17.79-6L347.12,698l18.09-8.52,9-2,4.57-4.37,7.24-3.41,3.62-1.7"/><path class="cls-9" d="M775.54,549.1,764,551.22l-18.17,5.24-7.88,7-7.65,6.92-11.55,2.12-10.51,5-9.5,3.37-7.41,4.6-10.2,2.6-4.43,4.29-6.4,3-9.14,4.31-9.59,4.52-6.86,3.23-1.77.83c-4.5,2.13-9.68,5.4-14.25,3.41l-4.47-.11-8.09,1.6-13.52,4.16-6.33,3-7.23,3.41-10.38,3.78-8.14,3.84-5.38.32-3.62,1.71-2.76,3.51L556,640.41l-1,4.9-3.62,1.7c-.3,4.47-5.61,7.8-9.86,9.23l-17.78,6L511,670.45,492.94,679l-9,2-4.58,4.37-7.24,3.41-3.61,1.7"/><path class="cls-9" d="M56.57,804l6.12-6.2,10.92-8.46,7.89-.4,7.72-.33,6.14-6.21,7.59-3.57,6.12-4,6.08-1.77,5.9-5h4.66l4.62-2.18,6.6-3.11,6.93-3.26,4.95-2.34,1.27-.6c3.26-1.53,7.54-2.72,8.09-7.13l1.76-3,4.37-4.27,8.29-6.12,4.57-2.15,5.22-2.46,6.76-4.29,5.88-2.77,2.41-3.35,2.61-1.23,3.47.58,3.46.57,3.66,2.7,2.62-1.23c3.09,2.87,7.47,1.63,10.16-.2l11.26-7.69,10.65-2.81,13.06-6.15,5-4.58,4.77,0,5.22-2.46,2.62-1.23"/><path class="cls-9" d="M284.51,504.16,273,506.28l-18.16,5.24-7.89,7-7.65,6.93-11.54,2.12-10.52,5-9.49,3.37-7.42,4.6-10.19,2.59-4.43,4.3-6.4,3-9.14,4.3-9.6,4.53-6.85,3.23-1.77.83c-4.51,2.13-9.69,5.4-14.25,3.4l-4.47-.1-8.09,1.6-13.52,4.16-6.33,3L98,578.79l-10.38,3.78-8.14,3.84-5.37.32-3.62,1.71L67.75,592,65,595.47l-1,4.89-3.62,1.71c-.3,4.47-5.61,7.8-9.85,9.23l-17.79,6L20,625.51,1.91,634l-9,2-4.57,4.36-7.24,3.41-3.62,1.71"/><path class="cls-8" d="M886.65,235.7C903,247,902.1,263.79,860.39,287.88c-22,12.7-53.49,10.83-57-13-2.87-19.67,3.28-41.34,26.26-52.17S868.6,223.2,886.65,235.7Z"/><path class="cls-8" d="M878.19,240c12.87,8.91,12.17,22.11-20.67,41.07-17.31,10-42.09,8.52-44.83-10.2-2.26-15.48,2.59-32.54,20.67-41.07S864,230.13,878.19,240Z"/><path class="cls-8" d="M869.07,244.51c9.35,6.47,8.84,16.07-15,29.84-12.58,7.27-30.59,6.2-32.58-7.41-1.64-11.25,1.88-23.64,15-29.84S858.75,237.36,869.07,244.51Z"/><path class="cls-9" d="M652.36,327.34l9-7.55,15.61-10.67,10.44-1.61,10.2-1.49,9-7.56,10.52-4.95,8.64-5.18,8.27-2.79,8.49-6.21,6.13-.68,6.4-3,9.14-4.31,9.6-4.52,6.86-3.23,1.76-.83a17.31,17.31,0,0,0,9.25-10.89l.77-2.68,3.82-10.65,9.2-11,8.2-6.07,7.28-5.65L831.71,213l5.42-2.55,6.28-.75,5.81.58,5.8.58,7.13,1.06,7.13,1.06,2.36,1.69a11.05,11.05,0,0,0,12.29.42l16-9.9,14.42-4.58L932.4,192l7.28-5.65,6.28-.75,7.24-3.41,3.62-1.7"/><path class="cls-9" d="M1028,179l-15.5,7.3a13.79,13.79,0,0,0-1.51.83l-19.88,12.46a13.72,13.72,0,0,1-1.51.82l-13.15,6.2c-.36.17-.71.35-1.06.55l-9.2,5.31a15.49,15.49,0,0,0-1.37.91l-2.29,1.69a13.7,13.7,0,0,1-2.44,1.46l-9.68,4.56a29.88,29.88,0,0,0-6.46,4.15L935,232.8l-8.67,7.4-7.59,6.48a14.62,14.62,0,0,0-2,2l-2,2.61a68.65,68.65,0,0,1-6.21,5c-3.29,2.4-1.92,4.76-3.28,8.87a15.07,15.07,0,0,1-1.65,3.46L900.8,273c-.17.27-.36.53-.55.79l-4,5.35a14.43,14.43,0,0,1-5.36,4.35l-4.75,2.24a14.51,14.51,0,0,0-2.06,1.19l-9,6.25-5,3.32a14.19,14.19,0,0,1-1.78,1l-3.58,1.69a14.59,14.59,0,0,1-1.9.73l-4.81,1.48a14.64,14.64,0,0,0-1.9.74l-5.23,2.47a13.55,13.55,0,0,0-2.06,1.18l-3,2.11a14.51,14.51,0,0,1-2.06,1.19l-1.57.73a14.3,14.3,0,0,1-7.73,1.29l-3.54-.4-7.13-1.06-8.54-1.5a11.46,11.46,0,0,1-2.84-1c-2.69-1.22-5.94-.56-8.85.77a13.46,13.46,0,0,0-4.11,3l-3.73,3.87a14.42,14.42,0,0,1-6,3.74l-10,3.19a14.29,14.29,0,0,0-1.78.7L762,329.84a14.69,14.69,0,0,0-2.68,1.64l-2.89,2.24a14.38,14.38,0,0,1-7.11,2.92h0a14.25,14.25,0,0,0-4.43,1.27l-5.13,2.41L736.11,342"/><path class="cls-9" d="M1443.13,21.08l9-7.55,15.61-10.67,10.44-1.6,10.21-1.5,9-7.55,10.51-5,8.64-5.18,8.27-2.79,8.5-6.21,6.13-.68,6.4-3,9.14-4.3,9.59-4.53,6.86-3.23,1.77-.83c4.5-2.13,10.32-4,11.69-8.83l2.77-3.51,6.38-5.22,11.81-7.78,6.33-3,7.24-3.41,9.52-5.59,8.14-3.84,3.67-3.94,3.62-1.71,4.47.11,4.47.1,4.42,2.34,3.62-1.7c3.64,2.61,9.59.63,13.4-1.73l16-9.89,14.42-4.59,18.09-8.53,7.29-5.64,6.28-.75L1744-124l3.61-1.71"/><path class="cls-9" d="M727.54,477.76l9-7.55,15.61-10.67,10.44-1.61,10.21-1.49,9-7.56,10.51-4.95,8.64-5.18,8.27-2.79,8.49-6.21,6.13-.68,6.4-3,9.14-4.31,9.6-4.52L855.8,414l1.76-.83c4.51-2.13,10.33-4,11.7-8.83l2.76-3.52,6.39-5.22,11.81-7.78,6.33-3,7.24-3.41,9.52-5.6,8.14-3.83,3.67-3.94,3.62-1.71,4.47.1,4.47.11,4.42,2.34,3.62-1.71c3.63,2.62,9.59.64,13.39-1.72l15.95-9.9L989.49,351l18.09-8.53,7.29-5.65,6.28-.75,7.23-3.41,3.62-1.7"/><path class="cls-9" d="M607.52,483.47l16.4-11.05L651.77,456l17.09-4.74,16.67-4.54L702,435.64l18.14-8.55,15.21-8.27,14-5.47,15.27-9.41,10-2.48,11-5.21,15.76-7.43,16.56-7.8,11.82-5.57,3.05-1.44c7.78-3.66,17.58-7.45,21.1-13.26l5.39-4.75,11.63-7.69,21-12.11,10.92-5.15,12.48-5.88,16.74-9,14-6.62,7-5.49,6.24-2.94,7.09-1.13,7.09-1.13,6.39,1.41,6.24-2.94c5.06,1.94,15.1-2,21.82-5.7L1036,276l24.26-9.22,31.2-14.71,13.19-8.43,10.22-2.6,12.48-5.88,6.24-2.94"/><path class="cls-9" d="M1641.6,8.24l-11.53,2.12L1611.9,15.6l-7.88,7-7.65,6.93-11.55,2.12-10.51,5-9.5,3.37-7.41,4.6-10.2,2.59-4.43,4.3-6.39,3-9.14,4.3-9.6,4.53-6.86,3.23-1.76.83c-4.51,2.13-9.69,5.4-14.26,3.4l-4.47-.1-8.09,1.6-13.51,4.16-6.34,3-7.23,3.41-10.38,3.78-8.14,3.84-5.37.32-3.62,1.71L1424.84,96l-2.76,3.52-1,4.89-3.62,1.71c-.3,4.47-5.61,7.8-9.85,9.23l-17.79,6-12.72,8.2L1359,138.12l-9,2-4.58,4.36-7.23,3.41-3.62,1.71"/><path class="cls-9" d="M1639.49,41.29l6.12-6.2,10.91-8.46,7.9-.4,7.72-.33,6.13-6.2,7.59-3.58,6.12-4,6.09-1.77,5.89-5h4.67l4.62-2.18,6.6-3.11,6.92-3.26,5-2.34,1.28-.6c3.25-1.53,7.54-2.72,8.08-7.13l1.76-3,4.37-4.27,8.29-6.12,4.58-2.15,5.22-2.46,6.76-4.29,5.87-2.77,2.42-3.35,2.61-1.23,3.46.58,3.47.57,3.66,2.7,2.61-1.23c3.09,2.87,7.48,1.63,10.16-.2l11.26-7.69,10.65-2.8,13.06-6.16,5-4.58,4.77,0,5.22-2.46,2.61-1.23"/><path class="cls-11" d="M1315.28,777.85c1.47,11.79-39.94,16.58-91.45,23s-93.63,12.07-95.11.29S1169.46,784.47,1221,778,1313.8,766.07,1315.28,777.85Z"/><path class="cls-12" d="M521,239.3c-19.82-45.63-101.49-54-182.61-18.81"/><path class="cls-12" d="M523,241.36c-27.13-41.69,10.89-114.46,85-162.7"/><path d="M1808.5,423.89C1906.14,495.81,1711.42,545,1590.15,545s-343.84-25.85-228.2-62.39c118.2-37.34,106.92-293,228.2-293S1732.16,367.66,1808.5,423.89Z"/><path class="cls-13" d="M1424.11,458.55c-69.31,92,74.19,86.53,165.72,86.53s253.93,24.37,165.72-86.53c-29.76-37.4-74.2-86.54-165.72-86.54S1452.87,420.38,1424.11,458.55Z"/><circle class="cls-14" cx="1662.29" cy="256.92" r="10.5"/><circle class="cls-14" cx="1530.81" cy="256.92" r="10.5"/><path class="cls-14" d="M1758.22,275.19c71,73.94-22.57,50.41-50.41,50.41a50.41,50.41,0,0,1-50.41-50.41c0-27.84,30.67-42,50.41-50.41C1733.43,213.88,1738.94,255.11,1758.22,275.19Z"/><path class="cls-14" d="M1432.09,275.19c-71,73.94,22.57,50.41,50.41,50.41a50.41,50.41,0,0,0,50.41-50.41c0-27.84-30.67-42-50.41-50.41C1456.88,213.88,1451.37,255.11,1432.09,275.19Z"/><path d="M1446.72,281.33c-51.87,54,16.48,36.82,36.82,36.82a36.83,36.83,0,0,0,36.83-36.82c0-20.34-22.4-30.69-36.83-36.83C1464.83,236.54,1460.8,266.66,1446.72,281.33Z"/><path d="M1611.46,319.93a93.54,93.54,0,0,1,38.44-75.66c-14-14.14-31.15-23.48-54.82-23.48s-40.69,10.08-54.61,24.9a93.69,93.69,0,0,1-33.66,165c26.51,11.79,60.37,18.92,88.27,18.92,28.39,0,62.26-6.75,88.46-18.46A93.72,93.72,0,0,1,1611.46,319.93Z"/><path d="M1742.41,281.51c51.87,54-16.49,36.82-36.82,36.82a36.82,36.82,0,0,1-36.83-36.82c0-20.34,22.4-30.69,36.83-36.83C1724.3,236.72,1728.33,266.84,1742.41,281.51Z"/><path class="cls-14" d="M1720.92,283.83c29.68,30.91-9.44,21-21.08,21.07s-10-13.75-21.07-21.07c-9.7-6.44,12.82-17.56,21.07-21.08C1710.55,258.2,1712.86,275.43,1720.92,283.83Z"/><path class="cls-15" d="M1715.64,341.35c-25.18-30.05-40.33-71.45-65.74-97.08-33-33.56-38.44,44.58-38.44,75.66a93.72,93.72,0,0,0,72.08,91.17C1718.79,395.34,1740.17,370.63,1715.64,341.35Z"/><path class="cls-14" d="M1470.71,282c-29.68,30.91,9.44,21,21.08,21.07s10-13.75,21.07-21.07c9.7-6.44-12.82-17.56-21.07-21.08C1481.08,256.33,1478.77,273.56,1470.71,282Z"/><path class="cls-16" d="M1577,319.93c0-30.23,0-112.16-36.55-74.24-25.24,26.89-44.11,66.25-66,95.66-23.07,31-4.46,52.94,32.29,69.29A93.72,93.72,0,0,0,1577,319.93Z"/><circle cx="1543.61" cy="295.36" r="20.39"/><circle cx="1651.41" cy="295.36" r="21.59"/><path class="cls-17" d="M1555,295.69c0,6.5-5.08,10.41-11.76,11.76-6.37,1.3-11.76-5.26-11.76-11.76a11.76,11.76,0,1,1,23.52,0Z"/><path class="cls-17" d="M1660.8,298.14c0,6.49,1.58,3-11.76,11.76-5.44,3.55-11.76-5.27-11.76-11.76a11.76,11.76,0,1,1,23.52,0Z"/><path class="cls-18" d="M1601.51,369.1l-1.6,12.79-10.08,4.2V369l-1.09.07.94,14-9.93-2.08-2-10.14c-12.1,3.18-29,13.58-20.65,22.32,10.1,10.55,10.92,16.3,20.27,21.63a14.74,14.74,0,0,1-3.25-9c0-11,13.44-19.95,30-19.95,11.74,0,21.9,4.47,26.84,11a13.68,13.68,0,0,0,.47-3.65C1631.42,377.64,1618.89,370.43,1601.51,369.1Z"/><path class="cls-19" d="M1604.11,385.88c-16.59,0-30,8.93-30,19.95a14.74,14.74,0,0,0,3.25,9c5.79.74,10.71,3.75,17.74,3.7,12.92-.11,19.7-12.32,35.88-21.68C1626,390.35,1615.85,385.88,1604.11,385.88Z"/><path class="cls-17" d="M1589.68,383.13l-.94-14a63.52,63.52,0,0,0-11,1.8l2,10.14Z"/><path class="cls-17" d="M1599.91,381.89l1.6-12.79c-2-.16-4.09-.24-6.22-.24q-2.77,0-5.46.18v17Z"/><ellipse cx="1495.94" cy="536.89" rx="8.4" ry="11.55"/><circle cx="1499.93" cy="525.97" r="1.68"/><circle cx="1496.57" cy="524.71" r="1.68"/><circle cx="1493.21" cy="525.55" r="1.68"/><circle cx="1490.27" cy="527.23" r="1.68"/><ellipse cx="1699.98" cy="536.89" rx="8.4" ry="11.55"/><circle cx="1703.97" cy="525.96" r="1.68"/><circle cx="1700.61" cy="524.7" r="1.68"/><circle cx="1697.25" cy="525.54" r="1.68"/><circle cx="1694.31" cy="527.22" r="1.68"/><path d="M1583.64,224.27l3.24,1c-1-.23-1.38.91-.9,1.84h0a1.88,1.88,0,0,0,2.54.82l32.59-16.59c2.76-1.41,5.56-1.22,8.94-1.12,16.48.5-.17-7.6-3-5.8Z"/><path d="M1610.82,229.54l-3.17,1.23c1-.29,1.44.82,1,1.78h0a1.89,1.89,0,0,1-2.49,1l-33.59-14.48c-2.84-1.22-5.62-.86-9-.54-16.42,1.55-.32-7.6,2.57-6Z"/><ellipse cx="1673.81" cy="460.73" rx="8.28" ry="11.55"/><ellipse cx="1677.74" cy="449.81" rx="1.66" ry="1.68"/><ellipse cx="1674.43" cy="448.55" rx="1.66" ry="1.68"/><ellipse cx="1671.12" cy="449.39" rx="1.66" ry="1.68"/><ellipse cx="1668.22" cy="451.07" rx="1.66" ry="1.68"/><ellipse cx="1547.45" cy="461.55" rx="8.4" ry="11.55"/><circle cx="1551.44" cy="450.63" r="1.68"/><circle cx="1548.08" cy="449.37" r="1.68"/><circle cx="1544.72" cy="450.21" r="1.68"/><circle cx="1541.78" cy="451.89" r="1.68"/><path class="cls-20" d="M1591.21,354.26l-7-12.3a7.58,7.58,0,0,1,6.63-11.34l6.42,0a6.66,6.66,0,0,1,5.72,10l-8,13.6A2.2,2.2,0,0,1,1591.21,354.26Z"/><circle cx="1586.86" cy="338.11" r="1.64"/><circle cx="1597.53" cy="337.29" r="4.1"/><rect class="cls-21" x="1678.8" y="180.51" width="11.49" height="373.49"/><path class="cls-22" d="M1566.75,183.38l-13.54,20.11,25-8.11c1.63-.34,7.77-2.56,9.43-2.56l9-1.64,21.35-3.29h16.41l7.39,4.11c2.4,0,3.83,3.83,5.53,5.53h0a10.59,10.59,0,0,0,7.46,3.09h24l4.1.41-.29-6.2c-24.07-34.11-40.34-53.32-116-10.59"/><path class="cls-23" d="M145.55,503.31l2,2.15a11.79,11.79,0,0,0,3.58,2.81,3.49,3.49,0,0,1,2,1.54,2.33,2.33,0,0,1-.45,2.52,6.65,6.65,0,0,1-2.57,2,10.38,10.38,0,0,1-7.38.68c-2.35-.7-4.15-2.44-5.41-5.24q-9.93-22.06-15.88-36.23l-6.66-15.74q-6.8-16.53-10.42-24.58,0,46.93-7.81,74.36T67.81,544.39q-15.4,6.93-26.84.71T20.56,518.91A133.4,133.4,0,0,1,9.05,461q.54-31.1,12.29-55.75t31.18-33.4q6.13-2.76,10.06.11a17.72,17.72,0,0,1,5.81,7.07,26.5,26.5,0,0,1,2.32,7.27c.24,1.93,0,3.05-.7,3.37s-1.26-.07-2-1a51.29,51.29,0,0,1-3.48-5.17,15.54,15.54,0,0,0-4.31-4.9c-1.37-.86-3.11-.81-5.21.13Q38.88,386,28.9,409.47T18.46,462.06q-.47,29.16,9.85,52.1,6.54,14.54,15,20.51t21.09.3q13.65-6.13,20.58-22.1a122.76,122.76,0,0,0,9.07-35.77q2.15-19.8,3.09-51.39A252.57,252.57,0,0,0,75.27,444l-5.8,5.35-5.54,5q-5.44,5.19-9,8.14a27.48,27.48,0,0,1-6.14,4.13,3.25,3.25,0,0,1-3.46-.44A7.76,7.76,0,0,1,42.78,463q-1.1-2.46,4.93-8.22a212.13,212.13,0,0,1,19-15.38q5.06-3.75,14.22-11.45,1.52-1.32,9.33-7.57t11.32-7.83l2-.91a2.72,2.72,0,0,1,3,.25,10.14,10.14,0,0,1,2.55,3.8q.72,1.57-.84,3.75L114.13,433q5.63,13.89,12.87,30l11.18,24.87,4.34,9.63C144.53,501.38,145.55,503.31,145.55,503.31Z"/><path class="cls-23" d="M227.67,441.1a6.51,6.51,0,0,1-3.67,3.55q-3.51,1.58-9.7-4.48a59.66,59.66,0,0,1-10.44-13.62q-4.1-7.2-14.76-30-1.83-3.6-3.52-7.36t-3.05-6.32a289.8,289.8,0,0,1-1.47,33.72,222.12,222.12,0,0,1-5.7,34.35q-3.88,15-9.48,17.53-5.79,2.61-10.38-2.7t-10.58-18.61a154.49,154.49,0,0,1-9.44-29.65q-3.85-17.2-3.35-27.33a23,23,0,0,1,.73-6.33,4.09,4.09,0,0,1,2.21-2.57c2.91-1.32,4.64-1.39,5.16-.22.27.58.28,2.19.06,4.81a115.24,115.24,0,0,0,1.23,24.72q2,13.83,11.3,34.49,6.23,13.83,10.08,12.1,4.54-2.06,7.81-15.62a203.4,203.4,0,0,0,4.67-31.05,233.16,233.16,0,0,0,.78-29.62,92.74,92.74,0,0,0-1.73-12.27,26.1,26.1,0,0,1-.88-4.76c0-1,.17-1.66.63-1.87a8.35,8.35,0,0,1,4.92-.31q3,.56,3.77,2.3,3.78,8.4,13.57,28.53t14.21,27.61a36.55,36.55,0,0,0,7.34,9.54,35.19,35.19,0,0,0,6.31,4.42c1.82.94,2.82,1.58,3,1.93A6.51,6.51,0,0,1,227.67,441.1Z"/><path class="cls-23" d="M206.39,320.35l-5.77,2.6a10.6,10.6,0,0,1-7.15.27q-4.17-1.08-4.87-2.65a5.56,5.56,0,0,1,.18-4.5,6,6,0,0,1,3-3.45,11.26,11.26,0,0,1,5.64.83,43.87,43.87,0,0,1,4.8,2.26c1.85,1,2.85,1.67,3,2Zm52.48,108.93a5.74,5.74,0,0,1-3.06,2.32q-2.53.93-7.13-6.26t-15.52-28.18q-7.08-13.87-13.71-27.2t-10.12-20.61a6.06,6.06,0,0,1-.68-3.17c.12-.82.76-1.5,1.93-2q4-1.82,6.57,1t6.8,12.31l9.12,20.74q8,17.69,13.81,27.89.24.53,6.62,10.5a83.87,83.87,0,0,1,5.64,9.25A3.38,3.38,0,0,1,258.87,429.28Z"/><path class="cls-23" d="M341.61,394a6.94,6.94,0,0,1-3.53,3.38,5.94,5.94,0,0,1-3.33.55,2.71,2.71,0,0,1-2.21-1.64q-3.24-7.17-9-22.71-6.19-16.57-11-27.26-4.65-10.33-8.21-16.62t-5.85-5.27q-6,2.69-6.39,20.66t1.34,46.25l.52,8.19a6.38,6.38,0,0,1-1.1,3.86,7,7,0,0,1-2.94,2.59,8.12,8.12,0,0,1-3,.91c-.58,0-1.18-.59-1.82-1.71l-7.86-13.73-14-24q-8-14.5-14.79-24.92a24.87,24.87,0,0,1-2.33-3.8,5.57,5.57,0,0,1,.34-5.31,9.55,9.55,0,0,1,4.51-4q1.74-.78,6.32,7.27T271.25,363l4.88,9q9.35,17.07,11.65,21.71a18.1,18.1,0,0,0-.1-2.8c-.1-1-.15-2.14-.16-3.4q-1.57-28.77-.62-48.88T295.56,315q5.42-2.44,11.57,5.84a150.67,150.67,0,0,1,13.14,22.41q7.69,15.7,21.48,46.34A5,5,0,0,1,341.61,394Z"/><path class="cls-23" d="M410.19,306.78q1.41,3.15,1.58,15.92a68.08,68.08,0,0,1-5.11,26.09q-5.27,13.32-18.93,19.46-11.21,5-21.88,1.42t-17.22-18.14a73.22,73.22,0,0,1,.75-59.19q6.33-13.05,17.19-17.94a21.61,21.61,0,0,1,12.24-2,10.22,10.22,0,0,1,8.21,6.3q2.75,6.13-1.56,15a71.84,71.84,0,0,1-13.38,18.23,120.18,120.18,0,0,1-19.93,16.55,68.44,68.44,0,0,0,5,16.7q4.58,10.15,11.9,13.59t16.27-.58q13.49-6.06,17.56-19.47a100,100,0,0,0,4.23-28c0-.57,0-1.66,0-3.26s.2-2.52.67-2.73C408.59,304.34,409.4,305,410.19,306.78Zm-35-25.71a15.16,15.16,0,0,0-7.45,1.45,23.82,23.82,0,0,0-10.82,10.13,44.66,44.66,0,0,0-5.51,15.12,40.34,40.34,0,0,0-.46,13.25,68.44,68.44,0,0,0,14.94-12.19A79.52,79.52,0,0,0,377.19,294q4.08-7.1,2.81-9.89A5.29,5.29,0,0,0,375.15,281.07Z"/><path class="cls-23" d="M512.91,300.67a4.05,4.05,0,0,1,2.22,1.64,10.22,10.22,0,0,1,.41,5.6c-.35,2.33-1.12,3.76-2.28,4.29-2,.89-4.05.35-6.21-1.63a23.76,23.76,0,0,1-5.43-7.87q-1.89-4.2-10.82-25.45L488,270.52c-1.21-2.69-2.77-4.3-4.7-4.84q-1.89,16.86-4.31,29.73a102.07,102.07,0,0,1-9,26.27q-6.61,13.4-18.17,18.6-5.59,2.52-10.24.39a14.57,14.57,0,0,1-7.16-7.72q-3.15-7-2.32-22a174,174,0,0,1,5-31.94,143.77,143.77,0,0,1,10.35-29.39,63.78,63.78,0,0,1,7.14-11.74,17.75,17.75,0,0,1,6-4.91,12.5,12.5,0,0,1,6.56-.85,17.11,17.11,0,0,1,7.29,2.62,13.92,13.92,0,0,1,5.33,6.23,21.61,21.61,0,0,1,1.67,11.67l2.58-2.21q1.92-.87,4.4,3.7,1.44,2.73,5.56,11.18t6.82,14l5.39,11q2.63,5.36,4.21,8.42A5.28,5.28,0,0,0,512.91,300.67ZM465,314.52a90.43,90.43,0,0,0,8.15-23.77q2.54-12.83,4.57-30.79a33.41,33.41,0,0,0-3-12.33,10.88,10.88,0,0,0-5.07-5.41,7.84,7.84,0,0,0-7.08-.07q-4.38,2-8.53,11a134.14,134.14,0,0,0-8.64,25.26,163.45,163.45,0,0,0-4.65,28.51q-.88,13.45,1.94,19.76,2.37,5.25,7.27,3.05Q459.43,325.46,465,314.52Z"/><path class="cls-23" d="M654.45,231.31a47.15,47.15,0,0,1-10.24,21.24,58,58,0,0,1-21.67,16.17q-11.38,5.11-18.86,6.27t-9-2.17c-.52-1.16-.56-3.5-.1-7s1.15-5.46,2.09-5.88c1.4-.63,2.23-.66,2.5-.07a2.25,2.25,0,0,1-.07,1.5,2.32,2.32,0,0,0,0,1.67c.16.35,1.12.55,2.9.6a32.65,32.65,0,0,0,7.61-1.11,64.71,64.71,0,0,0,11.42-4.09,42.55,42.55,0,0,0,16.31-12.18,35,35,0,0,0,7.43-15.55q1.44-8-1.16-13.8-3.37-7.52-13.09-9.68t-28,.18q-17.87,1.93-27.89,2.34a47.21,47.21,0,0,1-17.53-2.22,17.72,17.72,0,0,1-10.73-9.81q-4.32-9.63,2.31-23.88t19.94-27.29q13.29-13,27-19.17,7-3.15,8.79-.59a37.5,37.5,0,0,1,3.36,6.07q1.18,2.63-.74,3.49a4.81,4.81,0,0,1-2.29.29,23.5,23.5,0,0,0-2.45,0c-.8.08-1.73.22-2.76.4a19.35,19.35,0,0,0-4.19,1.46q-9.1,4.09-19.76,14.58a95.78,95.78,0,0,0-16.87,21.69q-6.23,11.22-3.3,17.7a13,13,0,0,0,8.38,7.17A39.34,39.34,0,0,0,578.18,201q8.4-.51,23.34-2.4,21.78-3.06,34.12-.19t16.92,13Q656.49,220.18,654.45,231.31Z"/><path class="cls-23" d="M742.57,213.56a6.9,6.9,0,0,1-3.53,3.38,5.94,5.94,0,0,1-3.33.55,2.69,2.69,0,0,1-2.21-1.64q-3.22-7.17-9-22.71-6.19-16.57-11-27.26-4.65-10.33-8.21-16.62T699.49,144q-6,2.69-6.39,20.67t1.33,46.24l.52,8.19a6.36,6.36,0,0,1-1.1,3.86,7,7,0,0,1-2.94,2.59,7.87,7.87,0,0,1-3,.91c-.57,0-1.18-.59-1.82-1.71L678.27,211l-14-24q-8-14.5-14.8-24.92a25.37,25.37,0,0,1-2.33-3.79,5.59,5.59,0,0,1,.34-5.32,9.48,9.48,0,0,1,4.51-4q1.74-.8,6.32,7.26t13.87,26.39l4.88,9q9.35,17.07,11.66,21.71a21,21,0,0,0-.1-2.8c-.11-1-.16-2.14-.17-3.4q-1.58-28.77-.62-48.88t8.66-23.58q5.41-2.44,11.58,5.85a150.91,150.91,0,0,1,13.13,22.4q7.69,15.71,21.48,46.34A5,5,0,0,1,742.57,213.56Z"/><path class="cls-23" d="M832.63,156.83a4,4,0,0,1,2.21,1.64,10.11,10.11,0,0,1,.42,5.6q-.54,3.51-2.28,4.29-3,1.33-6.21-1.63a23.92,23.92,0,0,1-5.44-7.87q-1.87-4.2-10.81-25.45l-2.82-6.73c-1.21-2.68-2.78-4.3-4.7-4.83q-1.89,16.85-4.31,29.73a101.86,101.86,0,0,1-9,26.27q-6.6,13.4-18.16,18.59-5.61,2.52-10.24.4a14.63,14.63,0,0,1-7.16-7.73q-3.15-7-2.32-22a172.93,172.93,0,0,1,5-31.93,143.66,143.66,0,0,1,10.35-29.4A63,63,0,0,1,774.27,94a17.82,17.82,0,0,1,6-4.91,12.55,12.55,0,0,1,6.57-.85,17.16,17.16,0,0,1,7.28,2.62,13.88,13.88,0,0,1,5.34,6.23,21.61,21.61,0,0,1,1.67,11.67l2.58-2.21c1.28-.58,2.75.66,4.4,3.7q1.44,2.73,5.56,11.19l6.82,14q2.78,5.7,5.39,11.05t4.21,8.42A5.28,5.28,0,0,0,832.63,156.83Zm-47.87,13.85a90.66,90.66,0,0,0,8.15-23.77q2.54-12.82,4.56-30.79a33.39,33.39,0,0,0-3-12.33,10.86,10.86,0,0,0-5.07-5.4,7.86,7.86,0,0,0-7.09-.08q-4.37,2-8.52,11a134,134,0,0,0-8.64,25.25,163.55,163.55,0,0,0-4.65,28.52q-.88,13.46,1.94,19.75,2.37,5.26,7.27,3Q779.15,181.64,784.76,170.68Z"/><path class="cls-23" d="M890.32,102.77a117.9,117.9,0,0,1-2.86,13.08q-4.14,15.12-8.73,24.35T866.26,153q-6.66,3-13.54-.86a23.84,23.84,0,0,1-10.28-11.38q-5-11.21-6.81-31a126,126,0,0,1,1.67-36.54q3.44-16.71,12.54-20.8a9.93,9.93,0,0,1,7.91-.19A19.32,19.32,0,0,1,862.62,55a11.27,11.27,0,0,1,3.53,4.1,39,39,0,0,1,2.32,7.27c.66,2.86.69,4.42.11,4.69a2.47,2.47,0,0,1-3.14-.9,27.09,27.09,0,0,1-2.91-4.59A35.9,35.9,0,0,0,858.76,60c-.79-.83-1.54-1.1-2.24-.78q-8.24,3.7-10.78,18.64a116.59,116.59,0,0,0-.63,32.28q1.9,17.36,5.61,25.58,5.21,11.56,12.91,8.09a21.29,21.29,0,0,0,9-7.4,57.52,57.52,0,0,0,6.17-12.26A188.4,188.4,0,0,0,886,100.92c.07-.45.34-1.66.79-3.62s.91-3,1.38-3.25c1.4-.63,2.34-.42,2.81.63C891.31,95.38,891.08,98.08,890.32,102.77Z"/><path class="cls-23" d="M965.9,22.77q-1.14,3.78-3.24,4.72a5.61,5.61,0,0,1-3.82-.07c-1.62-.47-2.66-.6-3.13-.39Q951,29.16,943.57,40.29a243,243,0,0,0-14.33,24.76,190.22,190.22,0,0,0-9.94,22.37l1.59,3.07q16.07.15,35.5-.18t26.29-1.93q2.61-.75,5.14-1.68c1.69-.62,2.88-1.09,3.58-1.4a18.66,18.66,0,0,1,2.71-1c.75-.2,1.21-.12,1.36.23q.94,2.1-1.35,5.66t-8.77,6.47q-5.77,2.59-17.6,2.76t-28.46-.78l-13.47-.46q12.28,21.21,13.31,23.49a4,4,0,0,1-.51,4,8.48,8.48,0,0,1-3.65,3.11q-1.41.63-4.17-3.17t-9.58-15.69l-6-10.13a11.71,11.71,0,0,1-4.81-.89,5.16,5.16,0,0,1-3-2.35q-.95-2.1,1.3-6.48-4.44-9.37-13.1-26.53T883,38.49L871.15,14.55a28.19,28.19,0,0,1-2.56-9c-.23-2.7,1-4.68,3.86-5.94a3,3,0,0,1,2.37-.33,4.1,4.1,0,0,1,1.59,2.13q3.63,8.06,18,36.87T915,79.25q22.35-54.69,40.39-62.8a14.62,14.62,0,0,1,6.8-1.48c2.09.11,3.34.63,3.76,1.57C966.68,18.17,966.66,20.25,965.9,22.77Z"/><path class="cls-23" d="M401.76,98.83l-3.6,1.65a6.6,6.6,0,0,1-4.46.19c-1.74-.43-2.76-1-3.06-1.63a3.53,3.53,0,0,1,.1-2.82,3.75,3.75,0,0,1,1.85-2.16,6.83,6.83,0,0,1,3.52.5,25.59,25.59,0,0,1,3,1.39A5.79,5.79,0,0,1,401,97.2C401.52,98.29,401.76,98.83,401.76,98.83ZM435,166.71a3.6,3.6,0,0,1-1.9,1.46c-1.06.4-2.55-.9-4.49-3.89s-5.2-8.83-9.8-17.55q-4.49-8.64-8.68-16.94t-6.4-12.85a3.79,3.79,0,0,1-.44-2c.07-.52.47-.94,1.2-1.27a3.23,3.23,0,0,1,4.11.62q1.6,1.77,4.3,7.67l5.78,12.93q5,11,8.74,17.38.15.31,4.17,6.53a50.76,50.76,0,0,1,3.56,5.76A2.12,2.12,0,0,1,435,166.71Z"/><path class="cls-23" d="M486.55,144.31a4.3,4.3,0,0,1-2.19,2.13,3.66,3.66,0,0,1-2.08.35,1.69,1.69,0,0,1-1.39-1q-2-4.47-5.68-14.16-3.94-10.34-7-17-2.94-6.45-5.2-10.36c-1.5-2.61-2.73-3.7-3.67-3.27q-3.72,1.69-3.91,12.94t1,28.9l.36,5.11a4,4,0,0,1-.67,2.42,4.32,4.32,0,0,1-1.83,1.63,5,5,0,0,1-1.85.58c-.35,0-.74-.37-1.14-1.06l-5-8.55-8.82-15q-5.05-9-9.34-15.52a14.49,14.49,0,0,1-1.47-2.36,3.48,3.48,0,0,1,.19-3.32,6,6,0,0,1,2.8-2.54q1.1-.49,4,4.52t8.77,16.44l3.08,5.58q5.91,10.63,7.37,13.52a11.71,11.71,0,0,0-.07-1.74q-.1-.95-.12-2.13-1.08-18-.57-30.55t5.32-14.77q3.38-1.55,7.26,3.61a93.5,93.5,0,0,1,8.29,14q4.88,9.78,13.6,28.88A3.09,3.09,0,0,1,486.55,144.31Z"/><path class="cls-23" d="M529.08,89.57c.6,1.31.95,4.63,1,9.94A42.68,42.68,0,0,1,527,115.84a21.78,21.78,0,0,1-11.76,12.24,18.16,18.16,0,0,1-13.67,1q-6.69-2.22-10.83-11.28A43,43,0,0,1,487,99.11a43,43,0,0,1,4-18.33q3.9-8.18,10.67-11.28a13.56,13.56,0,0,1,7.65-1.32,6.41,6.41,0,0,1,5.15,3.91q1.75,3.82-.92,9.4a44.59,44.59,0,0,1-8.29,11.44,74.87,74.87,0,0,1-12.39,10.42,43,43,0,0,0,3.18,10.42q2.9,6.33,7.5,8.45t10.16-.43a19,19,0,0,0,10.9-12.24A62.78,62.78,0,0,0,527.17,92c0-.36,0-1,0-2s.12-1.57.41-1.71C528.08,88.05,528.58,88.48,529.08,89.57Zm-22-15.93a9.46,9.46,0,0,0-4.65.93A14.88,14.88,0,0,0,495.71,81a28.12,28.12,0,0,0-3.39,9.46,25.41,25.41,0,0,0-.23,8.29A42.8,42.8,0,0,0,501.38,91a50,50,0,0,0,7-9.28c1.68-3,2.25-5,1.72-6.2A3.3,3.3,0,0,0,507.08,73.64Z"/><path class="cls-24" d="M1519,664.39c0,45.07-88.74,81.61-198.2,81.61s-271.51-145-271.51-190.06,162,0,271.51,0S1519,619.32,1519,664.39Z"/><path class="cls-25" d="M1494.56,680.84c0,36.74-57.39,38-146.61,38s-89.6-42-89.6-78.74-7.76-32.58,81.46-32.58S1494.56,644.1,1494.56,680.84Z"/><path class="cls-26" d="M1049.26,514.55c-1.84-14.89-43.1-22-92.25-16"/><polygon class="cls-27" points="1043.98 584.66 1039.48 504.48 1111.17 540.67 1043.98 584.66"/><path class="cls-17" d="M1243,626H1222.6v-6.27c0-2.93-.27-4.79-.79-5.59a2.88,2.88,0,0,0-2.61-1.2,3.31,3.31,0,0,0-3,1.62,9.39,9.39,0,0,0-1,4.91,14,14,0,0,0,1.14,6.38q1.1,2.14,6.22,5.17,14.68,8.72,18.5,14.31t3.81,18q0,9-2.11,13.33t-8.18,7.18a32.38,32.38,0,0,1-14.11,2.9,31.53,31.53,0,0,1-15.07-3.34q-6.24-3.35-8.18-8.52t-1.93-14.68v-5.54h20.43V665q0,4.75.86,6.12a3.35,3.35,0,0,0,3.06,1.36,3.57,3.57,0,0,0,3.26-1.73,9.77,9.77,0,0,0,1.07-5.12q0-7.47-2-9.77t-10.3-7.68a100.36,100.36,0,0,1-10.86-7.89,18.4,18.4,0,0,1-4.42-6.79,29.82,29.82,0,0,1-1.75-11.08q0-9.7,2.48-14.21a16.76,16.76,0,0,1,8-7,32,32,0,0,1,13.38-2.54,34.93,34.93,0,0,1,14.6,2.77q6,2.77,8,7t2,14.28Z"/><path class="cls-17" d="M1296.05,600.43v16.93H1283V685h-22V617.36h-13V600.43Z"/><path class="cls-17" d="M1334.81,600.43,1347.38,685h-22.47l-1.18-15.2h-7.87l-1.32,15.2h-22.75L1303,600.43Zm-11.66,54.39q-1.67-14.37-3.35-35.53-3.36,24.3-4.22,35.53Z"/><path class="cls-17" d="M1351.12,600.43h15.57q15.57,0,21.08,1.2a14.52,14.52,0,0,1,9,6.14q3.46,4.93,3.47,15.75,0,9.87-2.45,13.27c-1.64,2.27-4.86,3.62-9.67,4.08q6.53,1.62,8.78,4.33a13,13,0,0,1,2.79,5q.55,2.28.55,12.52V685H1379.8v-28.1c0-4.53-.35-7.34-1.07-8.41s-2.58-1.62-5.61-1.62V685h-22Zm22,14.47v18.81q3.7,0,5.19-1c1-.68,1.49-2.88,1.49-6.61v-4.65q0-4-1.43-5.28T1373.12,614.9Z"/><path class="cls-17" d="M1453.05,600.43v16.93H1440V685h-22V617.36h-13V600.43Z"/><path class="cls-28" d="M179,1038.9C23.44,1245.37,345.53,1233.12,551,1233.12s569.93,54.68,371.94-194.22C856.12,955,756.37,844.68,551,844.68S243.55,953.23,179,1038.9Z"/><path class="cls-29" d="M327.24,1069.71C222.89,1208.22,439,1200,576.74,1200s382.31,36.68,249.49-130.28c-44.79-56.31-111.7-130.28-249.49-130.28S370.54,1012.24,327.24,1069.71Z"/><circle class="cls-30" cx="713.59" cy="586.34" r="23.57"/><circle class="cls-30" cx="418.48" cy="586.34" r="23.57"/><path class="cls-31" d="M928.89,627.37c159.34,165.93-50.65,113.14-113.14,113.14A113.15,113.15,0,0,1,702.61,627.37c0-62.49,68.83-94.28,113.14-113.14C873.25,489.76,885.61,582.3,928.89,627.37Z"/><path class="cls-31" d="M196.92,627.37C37.58,793.3,247.57,740.51,310.06,740.51A113.15,113.15,0,0,0,423.2,627.37c0-62.49-68.83-94.28-113.14-113.14C252.56,489.76,240.2,582.3,196.92,627.37Z"/><path class="cls-32" d="M229.75,641.13c-116.41,121.23,37,82.66,82.65,82.66a82.65,82.65,0,0,0,82.65-82.66c0-45.65-50.28-68.88-82.65-82.65C270.4,540.6,261.36,608.21,229.75,641.13Z"/><path class="cls-31" d="M599.5,727.77A209.94,209.94,0,0,1,685.78,558c-31.46-31.73-69.92-52.7-123-52.7s-91.32,22.63-122.55,55.9a209.89,209.89,0,0,1,82,166.61c0,97.92-66.94,180.21-157.57,203.59,59.49,26.46,135.5,42.48,198.11,42.48,63.72,0,139.74-15.17,198.55-41.45C668.53,910.5,599.5,827.2,599.5,727.77Z"/><path class="cls-32" d="M893.41,641.54c116.41,121.23-37,82.66-82.65,82.66a82.66,82.66,0,0,1-82.66-82.66c0-45.65,50.29-68.88,82.66-82.65C852.76,541,861.79,608.61,893.41,641.54Z"/><path class="cls-33" d="M845.17,646.75c66.62,69.37-21.18,47-47.3,47.3-26.3.25-22.53-30.87-47.3-47.3-21.77-14.45,28.77-39.42,47.3-47.3C821.91,589.22,827.08,627.91,845.17,646.75Z"/><path class="cls-34" d="M833.32,775.85C776.81,708.4,742.82,615.49,685.78,558c-74-75.33-86.28,100-86.28,169.81,0,99.43,69,182.73,161.78,204.62C840.4,897,888.38,841.56,833.32,775.85Z"/><path class="cls-34" d="M522.19,727.77c0-67.84,0-251.74-82-166.61-56.65,60.35-99,148.69-148,214.69-51.78,69.7-10,118.81,72.47,155.51C455.25,908,522.19,825.69,522.19,727.77Z"/><circle cx="443.94" cy="680.63" r="71.65"/><circle cx="678.7" cy="680.63" r="71.65"/><path class="cls-17" d="M496.74,645.74c0,14.58.94-9.43-26.4,26.4-8.85,11.59-26.4-11.82-26.4-26.4a26.4,26.4,0,0,1,52.8,0Z"/><path class="cls-17" d="M728.67,643.86c0,14.58-9.43,0-26.4,26.4-7.88,12.26-26.4-11.82-26.4-26.4a26.4,26.4,0,0,1,52.8,0Z"/><path class="cls-33" d="M283.6,642.55c-66.62,69.38,21.18,47.06,47.3,47.3,26.3.25,22.53-30.86,47.3-47.3,21.77-14.44-28.77-39.41-47.3-47.3C306.86,585,301.69,623.71,283.6,642.55Z"/><path class="cls-35" d="M575.2,840.84l-3.52,27.95L549.5,878V840.72l-2.41.16,2.08,30.64L527.32,867l-4.49-22.15c-26.62,6.94-45.42,22.35-45.42,48.77,0,25,20.12,44.16,44.59,47.27a32.15,32.15,0,0,1-7.16-19.73c0-24.08,29.59-43.61,66.08-43.61,25.83,0,48.18,9.79,59.05,24a29.11,29.11,0,0,0,1-8C641,859.5,613.43,843.75,575.2,840.84Z"/><path class="cls-32" d="M580.92,877.51c-36.49,0-66.08,19.53-66.08,43.61A32.15,32.15,0,0,0,522,940.85a57.86,57.86,0,0,0,39.51-9.63c19.18-12.7,70.57-1.65,78.46-29.67C629.1,887.3,606.75,877.51,580.92,877.51Z"/><path class="cls-17" d="M549.17,871.52l-2.08-30.64a139.54,139.54,0,0,0-24.26,3.93L527.32,867Z"/><path class="cls-17" d="M571.68,868.79l3.52-27.95c-4.43-.33-9-.51-13.69-.51q-6.09,0-12,.39V878Z"/><path class="cls-31" d="M537.07,513.08l7.27,2.31c-2.27-.53-3.1,2-2,4.12h0a4.25,4.25,0,0,0,5.71,1.85l73.16-37.24c6.18-3.15,12.46-2.73,20.05-2.5,37,1.11-.38-17.06-6.61-13Z"/><path class="cls-31" d="M598.06,524.9,591,527.67c2.24-.67,3.23,1.83,2.3,4h0a4.26,4.26,0,0,1-5.58,2.22l-75.38-32.51c-6.37-2.75-12.61-1.93-20.17-1.22-36.84,3.48-.7-17.05,5.77-13.42Z"/><ellipse class="cls-32" cx="702.86" cy="1045.64" rx="18.86" ry="25.93"/><circle class="cls-32" cx="711.82" cy="1021.13" r="3.77"/><circle class="cls-32" cx="704.28" cy="1018.3" r="3.77"/><circle class="cls-32" cx="696.73" cy="1020.18" r="3.77"/><circle class="cls-32" cx="690.13" cy="1023.95" r="3.77"/><ellipse class="cls-32" cx="455.84" cy="1045.64" rx="18.86" ry="25.93"/><circle class="cls-32" cx="464.8" cy="1021.13" r="3.77"/><circle class="cls-32" cx="457.26" cy="1018.3" r="3.77"/><circle class="cls-32" cx="449.72" cy="1020.18" r="3.77"/><circle class="cls-32" cx="443.12" cy="1023.95" r="3.77"/><path class="cls-32" d="M560.16,820.87l-13.62-16.38-1.68-2.15-5-6.89-6.66-9.13,0,0-2.1-4.55-1.59-4.07-.69-2.17-.68-2.13h0l-.16-.91-1-4.32h0v0l-.19-1.14a12.12,12.12,0,0,1,0-3.94h0l.31-2h0l.87-2.39h0l1.44-2.8h0l2-3.21v0l1.63-1.77,1.76-1.58.18-.13h0l3.29-1.75,2.33-1,3-1,1,.16,1,.15,1,.16,2.9,1.22a9.08,9.08,0,0,1,1.7.94l.61.44a3,3,0,0,1,.72.71l.53.73,1.67,2.28.83,1.14.84,1.14.35.49a6.65,6.65,0,0,1,.78,1.4l1.9,4.66,2.78,7.28a.11.11,0,0,0,.2,0l1.13-2.69a8.31,8.31,0,0,1,.91-1.62l.75-1.06.57-.42.77-.78,2.24-2.29-2,3.22h0l-1.27,2.88-1.21,3.31-.16,1-1.75,4.79.26-1.71-.55-2.28h0a.71.71,0,0,1-.13-.26l-.64-2-.41-.58-1.3-2.58-1.47-2.4h0l-1.67-2.28h0l-3.64-4.31-1.51-1.55h0a20.28,20.28,0,0,0-3.86-2.16l-.85-.36a4.3,4.3,0,0,0-1.88-.33h0l-3.12.33h0l-.78.25a8.72,8.72,0,0,0-2.49,1.26h0l-1.13.83,0,0h0a21,21,0,0,0-2.15,3.85l-.74,1.76-1.6,3.79v0h0a13.69,13.69,0,0,0-.06,3.94l.65,5.24h0l1,4.36.54,1.73,1.85,4.56,1.52,3.26v0h0l1.52,2.35,2.49,4.34,4,6.69h0l14,20.39"/><circle class="cls-36" cx="544.82" cy="770.19" r="4.71"/><circle class="cls-32" cx="577.82" cy="770.19" r="4.71"/><path class="cls-32" d="M592.28,760h0l-.91-2.39h0l-1.32-2.77h0l-1.14-1.58-1.28-1.43-.12-.12h0L585,750l-1.79-1-2.36-1.06-2.43.09-2.44.72a7.64,7.64,0,0,0-1.45.6l-.53.29a2.93,2.93,0,0,0-.65.51l-.49.53-2.33,2.53-.78.84-.33.36a5.2,5.2,0,0,0-.76,1L566.72,759l-2.64,5.08c-.07.18-.14.37-.23.55a4.88,4.88,0,0,1-.39,1.17,5.34,5.34,0,0,1-.33,1.05.13.13,0,0,0,0,.06c0,.11.08.22.13.33A4.69,4.69,0,0,1,564,766l.56-1.23.38-.42,1.29-2,1.4-1.79,1.55-1.69,3.33-3.12,1.36-1.11h0a16.5,16.5,0,0,1,3.31-1.37l.72-.21a3.48,3.48,0,0,1,1.54-.1l2.48.56h0l.6.27a7,7,0,0,1,1.89,1.25l.83.77v0a15.64,15.64,0,0,1,1.37,3.3l.44,1.48.93,3.19v0a11.27,11.27,0,0,1-.31,3.17l-1,4.16h0l-1.21,3.41-.6,1.34-1.91,3.49-1.52,2.49h0L580,783.67l-2.4,3.26-3.85,5h0l-10.28,11.79c.06.13.11.26.16.4l9.42-9,1.55-1.57,4.69-5.08,6.21-6.72h0l2.11-3.47,1.65-3.12.77-1.69.74-1.64h0l.21-.72,1.25-3.38h0l.26-.9a10,10,0,0,0,.39-3.17l-.07-1.62Z"/><path class="cls-37" d="M123.12,1002.26l19.42-8.71a58.63,58.63,0,0,0-2-11l-21.16-1.46,12.26-17a59.15,59.15,0,0,0-7.47-8.57l-18.62,9.11,2.07-20.23a58.59,58.59,0,0,0-11.07-3.73L85.31,957.36l-8-17.9A59.48,59.48,0,0,0,65.5,941.8l-1.34,19.33L48.77,950a59.58,59.58,0,0,0-9.29,8.07L47.73,975l-18.54-1.9A58.82,58.82,0,0,0,25,984.8l15.41,10.37-17,7.61A59.64,59.64,0,0,0,25.54,1015l18.65,1.29L33.1,1031.66a60.37,60.37,0,0,0,7.72,9.5l17.2-8.41-2,19.43a59.67,59.67,0,0,0,11.13,4.31l11.07-16.42,8.28,18.47A59.16,59.16,0,0,0,98,1056.77l1.42-20.47,16.94,12.24a60.67,60.67,0,0,0,8.74-7.16l-9.25-18.92,21.18,2.17a60.37,60.37,0,0,0,3.83-10.45Z"/><circle class="cls-37" cx="83" cy="999" r="51"/><path d="M49.57,992.55H45v-1.41a2.67,2.67,0,0,0-.18-1.25.63.63,0,0,0-.58-.27.76.76,0,0,0-.68.36,2.13,2.13,0,0,0-.22,1.1,3.13,3.13,0,0,0,.25,1.43,3.76,3.76,0,0,0,1.4,1.16,14.37,14.37,0,0,1,4.15,3.21,7.38,7.38,0,0,1,.85,4,7.19,7.19,0,0,1-.47,3,3.72,3.72,0,0,1-1.84,1.61,7.14,7.14,0,0,1-3.16.65,7.06,7.06,0,0,1-3.38-.75,3.69,3.69,0,0,1-1.84-1.91,10,10,0,0,1-.43-3.29V999h4.58v2.31a3,3,0,0,0,.2,1.37.73.73,0,0,0,.68.3.81.81,0,0,0,.73-.38,2.21,2.21,0,0,0,.24-1.15,3.58,3.58,0,0,0-.45-2.19,15.16,15.16,0,0,0-2.31-1.73,23.68,23.68,0,0,1-2.44-1.76,4.14,4.14,0,0,1-1-1.53,6.72,6.72,0,0,1-.39-2.48,6.79,6.79,0,0,1,.56-3.19A3.71,3.71,0,0,1,41.06,987a7.17,7.17,0,0,1,3-.57,7.74,7.74,0,0,1,3.28.62,3.39,3.39,0,0,1,1.79,1.56,8.36,8.36,0,0,1,.44,3.21Z"/><path d="M51.53,986.81h8.22v3.79H56.46v3.6h3.08v3.61H56.46V1002h3.62v3.8H51.53Z"/><path d="M71.12,986.81v3.79H68.19v15.18H63.26V990.6H60.34v-3.79Z"/><path d="M82.18,986.81v3.79H79.25v15.18H74.32V990.6H71.4v-3.79Z"/><path d="M88.24,986.81v19H83.3v-19Z"/><path d="M101.23,986.81v19H96.91l-2.57-8.63v8.63H90.22v-19h4.12l2.77,8.54v-8.54Z"/><path d="M114.53,993.79H109.6v-1.72a8.74,8.74,0,0,0-.14-2,.62.62,0,0,0-.67-.41.61.61,0,0,0-.62.35,5.57,5.57,0,0,0-.17,1.8v9.11a5.34,5.34,0,0,0,.17,1.68.63.63,0,0,0,.65.4.74.74,0,0,0,.74-.45,5.37,5.37,0,0,0,.19-1.78v-2.25h-1v-2.89h5.78v10.19h-3.1l-.46-1.36a3.41,3.41,0,0,1-1.27,1.31,3.49,3.49,0,0,1-1.81.44,4.76,4.76,0,0,1-2.33-.6,4.41,4.41,0,0,1-1.64-1.49,4.82,4.82,0,0,1-.71-1.87,23.17,23.17,0,0,1-.14-2.94v-5.63a19.27,19.27,0,0,1,.29-3.95,4.1,4.1,0,0,1,1.69-2.26,5.9,5.9,0,0,1,3.59-1,6.61,6.61,0,0,1,3.59.89,4.19,4.19,0,0,1,1.87,2.11,11.21,11.21,0,0,1,.43,3.56Z"/><path d="M126.89,992.55h-4.58v-1.41a2.67,2.67,0,0,0-.18-1.25.63.63,0,0,0-.58-.27.74.74,0,0,0-.67.36,2,2,0,0,0-.23,1.1,3.13,3.13,0,0,0,.25,1.43,3.76,3.76,0,0,0,1.4,1.16,14.37,14.37,0,0,1,4.15,3.21,7.38,7.38,0,0,1,.85,4,7.19,7.19,0,0,1-.47,3,3.72,3.72,0,0,1-1.84,1.61,7.14,7.14,0,0,1-3.16.65,7.06,7.06,0,0,1-3.38-.75,3.66,3.66,0,0,1-1.83-1.91,9.72,9.72,0,0,1-.44-3.29V999h4.58v2.31a3,3,0,0,0,.2,1.37.74.74,0,0,0,.68.3.84.84,0,0,0,.74-.38,2.21,2.21,0,0,0,.24-1.15,3.57,3.57,0,0,0-.46-2.19,14.14,14.14,0,0,0-2.31-1.73,23.68,23.68,0,0,1-2.44-1.76,4.14,4.14,0,0,1-1-1.53,6.72,6.72,0,0,1-.39-2.48,6.92,6.92,0,0,1,.56-3.19,3.69,3.69,0,0,1,1.8-1.57,7.09,7.09,0,0,1,3-.57,7.71,7.71,0,0,1,3.28.62,3.39,3.39,0,0,1,1.79,1.56,8.17,8.17,0,0,1,.44,3.21Z"/></svg>
